<svg width="56" height="57" viewBox="0 0 56 57" fill="none" xmlns="http://www.w3.org/2000/svg">
<g clip-path="url(#clip0_543_79785)">
<path d="M36.8597 54.4314V7.17603C36.8597 6.0335 35.9335 5.10742 34.791 5.10742H5.90064C4.75811 5.10742 3.83203 6.03361 3.83203 7.17603V54.4314C3.83203 55.5739 4.75822 56.5 5.90064 56.5H34.7911C35.9335 56.5 36.8597 55.5738 36.8597 54.4314Z" fill="#FFCB6A"/>
<path d="M41.5737 5.10742H34.6504C35.7929 5.10742 36.7191 6.03361 36.7191 7.17603V54.4314C36.7191 55.5739 35.7929 56.5 34.6504 56.5H41.5737C42.7162 56.5 43.6424 55.5738 43.6424 54.4314V7.17614C43.6424 6.03361 42.7162 5.10742 41.5737 5.10742Z" fill="#EDBB64"/>
<path d="M7.21289 52.3792V9.22766C7.21289 9.03156 7.29079 8.8435 7.42945 8.70484C7.56811 8.56618 7.75617 8.48828 7.95227 8.48828H39.5214C39.7175 8.48828 39.9056 8.56618 40.0442 8.70484C40.1829 8.8435 40.2608 9.03156 40.2608 9.22766V52.3792C40.2608 52.5752 40.1829 52.7633 40.0442 52.902C39.9056 53.0406 39.7175 53.1185 39.5214 53.1185H7.95227C7.75617 53.1185 7.56811 53.0406 7.42945 52.902C7.29079 52.7633 7.21289 52.5752 7.21289 52.3792Z" fill="#171717"/>
<path d="M39.521 8.48828H32.5977C32.7938 8.48828 32.9818 8.56618 33.1205 8.70484C33.2591 8.8435 33.337 9.03156 33.337 9.22766V52.3792C33.337 52.5752 33.2591 52.7633 33.1205 52.902C32.9818 53.0406 32.7938 53.1185 32.5977 53.1185H39.521C39.7171 53.1185 39.9051 53.0406 40.0438 52.902C40.1825 52.7633 40.2604 52.5752 40.2604 52.3792V9.22766C40.2604 9.03156 40.1825 8.8435 40.0438 8.70484C39.9051 8.56618 39.7171 8.48828 39.521 8.48828Z" fill="#222222"/>
<path d="M28.1324 3.07447V1.98542C28.1324 1.16511 27.4674 0.5 26.647 0.5H20.8285C20.0081 0.5 19.3431 1.16511 19.3431 1.98542V3.07447C19.3431 3.23558 19.2791 3.39009 19.1652 3.50401C19.0513 3.61794 18.8968 3.68194 18.7357 3.68194H16.3141C15.5085 3.68194 14.8555 4.33502 14.8555 5.14056V8.48853H32.62V5.14056C32.62 4.33502 31.967 3.68194 31.1614 3.68194H28.7399C28.5788 3.68194 28.4242 3.61794 28.3103 3.50401C28.1964 3.39009 28.1324 3.23558 28.1324 3.07447Z" fill="#2F404D"/>
<path d="M11.5137 20.4922V13.9802C11.5137 13.2588 12.0986 12.6738 12.82 12.6738H19.332C20.0535 12.6738 20.6384 13.2588 20.6384 13.9802V20.4922C20.6384 21.2136 20.0535 21.7985 19.332 21.7985H12.82C12.0985 21.7985 11.5137 21.2136 11.5137 20.4922ZM11.5137 34.059V27.5471C11.5137 26.8256 12.0986 26.2407 12.82 26.2407H19.332C20.0535 26.2407 20.6384 26.8256 20.6384 27.5471V34.059C20.6384 34.7805 20.0535 35.3654 19.332 35.3654H12.82C12.0985 35.3654 11.5137 34.7805 11.5137 34.059ZM11.5137 47.6258V41.1138C11.5137 40.3924 12.0986 39.8075 12.82 39.8075H19.332C20.0535 39.8075 20.6384 40.3924 20.6384 41.1138V47.6258C20.6384 48.3473 20.0535 48.9322 19.332 48.9322H12.82C12.0985 48.9322 11.5137 48.3474 11.5137 47.6258Z" fill="#77BCA8"/>
<path d="M15.5239 19.5686H15.5211C15.3365 19.5678 15.1547 19.5237 14.9902 19.4398C14.8258 19.3558 14.6834 19.2345 14.5744 19.0855L13.5877 17.7303C13.4582 17.549 13.4055 17.3239 13.4412 17.104C13.4768 16.8841 13.5978 16.6871 13.7779 16.556C13.958 16.4248 14.1826 16.3701 14.4028 16.4037C14.6231 16.4373 14.8212 16.5565 14.954 16.7353L15.5261 17.5212L17.199 15.2484C17.3319 15.0679 17.531 14.9476 17.7525 14.9139C17.9741 14.8802 18.2 14.9359 18.3805 15.0688C18.4699 15.1346 18.5454 15.2173 18.6028 15.3123C18.6602 15.4073 18.6983 15.5127 18.715 15.6224C18.7317 15.7321 18.7266 15.844 18.7 15.9518C18.6734 16.0595 18.6259 16.161 18.5601 16.2504L16.4697 19.0903C16.3604 19.2383 16.2179 19.3587 16.0536 19.4418C15.8894 19.5248 15.708 19.5683 15.5239 19.5686ZM15.5238 33.4307H15.5208C15.3361 33.4299 15.1543 33.3857 14.9899 33.3018C14.8255 33.2178 14.6831 33.0964 14.5742 32.9473L13.5877 31.5924C13.4582 31.4111 13.4055 31.186 13.4412 30.9661C13.4768 30.7462 13.5978 30.5492 13.7779 30.4181C13.958 30.2869 14.1826 30.2322 14.4028 30.2658C14.6231 30.2994 14.8212 30.4185 14.954 30.5974L15.5261 31.3833L17.199 29.1105C17.3332 28.9335 17.5316 28.8166 17.7514 28.7848C17.9711 28.753 18.1946 28.809 18.3734 28.9406C18.5522 29.0722 18.672 29.269 18.707 29.4883C18.7419 29.7075 18.6891 29.9318 18.5601 30.1124L16.4697 32.9524C16.3604 33.1005 16.2179 33.2209 16.0536 33.3039C15.8893 33.387 15.7079 33.4304 15.5238 33.4307ZM15.5238 46.7024L15.521 46.7023C15.3364 46.7016 15.1546 46.6575 14.9902 46.5736C14.8258 46.4897 14.6834 46.3684 14.5744 46.2194L13.5877 44.8641C13.4557 44.6829 13.4012 44.4567 13.4361 44.2353C13.4709 44.0139 13.5923 43.8154 13.7735 43.6835C13.9547 43.5516 14.1809 43.497 14.4023 43.5319C14.6237 43.5667 14.8222 43.6881 14.9541 43.8693L15.5261 44.6551L17.1991 42.3822C17.3333 42.2053 17.5317 42.0883 17.7515 42.0565C17.9712 42.0248 18.1947 42.0807 18.3735 42.2124C18.5523 42.344 18.6721 42.5408 18.7071 42.76C18.742 42.9793 18.6892 43.2035 18.5602 43.3842L16.4698 46.2241C16.3604 46.3722 16.2179 46.4926 16.0536 46.5756C15.8893 46.6587 15.7079 46.7021 15.5238 46.7024Z" fill="#141414"/>
<path d="M35.2939 16.316H24.847C24.6229 16.316 24.4079 16.227 24.2495 16.0685C24.091 15.9101 24.002 15.6951 24.002 15.471C24.002 15.2469 24.091 15.032 24.2495 14.8735C24.4079 14.715 24.6229 14.626 24.847 14.626H35.2939C35.5181 14.626 35.733 14.715 35.8915 14.8735C36.0499 15.032 36.139 15.2469 36.139 15.471C36.139 15.6951 36.0499 15.9101 35.8915 16.0685C35.733 16.227 35.5181 16.316 35.2939 16.316ZM30.0705 19.8474H24.8471C24.623 19.8474 24.408 19.7584 24.2496 19.5999C24.0911 19.4415 24.0021 19.2265 24.0021 19.0024C24.0021 18.7783 24.0911 18.5633 24.2496 18.4049C24.408 18.2464 24.623 18.1574 24.8471 18.1574H30.0705C30.2946 18.1574 30.5096 18.2464 30.668 18.4049C30.8265 18.5633 30.9155 18.7783 30.9155 19.0024C30.9155 19.2265 30.8265 19.4415 30.668 19.5999C30.5096 19.7584 30.2946 19.8474 30.0705 19.8474ZM31.8565 29.8829H24.8471C24.623 29.8829 24.408 29.7939 24.2496 29.6354C24.0911 29.4769 24.0021 29.262 24.0021 29.0379C24.0021 28.8138 24.0911 28.5988 24.2496 28.4404C24.408 28.2819 24.623 28.1929 24.8471 28.1929H31.8565C32.0806 28.1929 32.2956 28.2819 32.454 28.4404C32.6125 28.5988 32.7015 28.8138 32.7015 29.0379C32.7015 29.262 32.6125 29.4769 32.454 29.6354C32.2956 29.7939 32.0806 29.8829 31.8565 29.8829ZM30.0705 33.4143H24.8471C24.7361 33.4143 24.6262 33.3924 24.5237 33.35C24.4212 33.3075 24.328 33.2453 24.2496 33.1668C24.1711 33.0883 24.1089 32.9952 24.0664 32.8927C24.0239 32.7901 24.0021 32.6802 24.0021 32.5693C24.0021 32.4583 24.0239 32.3484 24.0664 32.2459C24.1089 32.1434 24.1711 32.0502 24.2496 31.9717C24.328 31.8933 24.4212 31.831 24.5237 31.7886C24.6262 31.7461 24.7361 31.7242 24.8471 31.7242H30.0705C30.1815 31.7242 30.2914 31.7461 30.3939 31.7886C30.4964 31.831 30.5896 31.8933 30.668 31.9717C30.7465 32.0502 30.8088 32.1434 30.8512 32.2459C30.8937 32.3484 30.9155 32.4583 30.9155 32.5693C30.9155 32.6802 30.8937 32.7901 30.8512 32.8927C30.8088 32.9952 30.7465 33.0883 30.668 33.1668C30.5896 33.2453 30.4964 33.3075 30.3939 33.35C30.2914 33.3924 30.1815 33.4143 30.0705 33.4143Z" fill="#071C39"/>
<path d="M48.8793 22.5626L48.0496 21.4695L44.945 19.5034L43.7516 19.3154L27.8545 44.4359C27.4709 45.0416 27.1895 45.7063 27.0215 46.4032C27.9699 46.415 28.8964 46.6899 29.6978 47.1974C30.4991 47.7048 31.1438 48.4248 31.5599 49.2772C32.1181 48.8273 32.5986 48.2888 32.9822 47.683L48.8793 22.5626Z" fill="#FC8086"/>
<path d="M51.1249 14.8274L49.7834 13.9778C48.7377 13.3156 47.353 13.6267 46.6911 14.6727L45.4609 16.6166L45.8534 17.4077L49.5863 19.7717L50.5888 19.8637L51.8197 17.9186C52.4812 16.8732 52.1702 15.4893 51.1249 14.8274Z" fill="#8C9BA6"/>
<path d="M43.7539 19.3085L45.4629 16.6094L50.5915 19.8565L48.8826 22.5557L43.7539 19.3085Z" fill="#204148"/>
<path d="M31.561 49.2782L27.0345 52.9259C26.396 53.4405 25.4683 52.853 25.6605 52.0558L27.0226 46.4043C27.9711 46.416 28.8976 46.6909 29.699 47.1983C30.5003 47.7058 31.145 48.4259 31.561 49.2782Z" fill="#7C8B96"/>
<path d="M30.3732 47.7118L47.0375 21.3964L45.6096 20.4922L28.9453 46.8076C29.4681 47.0279 29.9506 47.3334 30.3732 47.7118Z" fill="#FC7C87"/>
</g>
<defs>
<clipPath id="clip0_543_79785">
<rect width="56" height="56" fill="white" transform="translate(0 0.5)"/>
</clipPath>
</defs>
</svg>
