<svg width="20" height="15" viewBox="0 0 20 15" fill="none" xmlns="http://www.w3.org/2000/svg">
<path d="M18.0664 4.21875C18.3594 4.38151 18.6263 4.58008 18.8672 4.81445C19.1081 5.04883 19.3099 5.30924 19.4727 5.5957C19.6354 5.88216 19.7656 6.1849 19.8633 6.50391C19.9609 6.82292 20.0065 7.15495 20 7.5H18.75C18.75 7.16146 18.6849 6.83919 18.5547 6.5332C18.4245 6.22721 18.2454 5.96354 18.0176 5.74219C17.7897 5.52083 17.5228 5.3418 17.2168 5.20508C16.9108 5.06836 16.5885 5 16.25 5C15.9049 5 15.5827 5.0651 15.2832 5.19531C14.9837 5.32552 14.7201 5.50456 14.4922 5.73242C14.2643 5.96029 14.0853 6.22721 13.9551 6.5332C13.8249 6.83919 13.7565 7.16146 13.75 7.5C13.75 8.09245 13.6165 8.6556 13.3496 9.18945C13.0827 9.72331 12.7083 10.166 12.2266 10.5176C12.6497 10.7324 13.0306 10.9961 13.3691 11.3086C13.7077 11.6211 14.0007 11.9727 14.248 12.3633C14.4954 12.7539 14.681 13.1706 14.8047 13.6133C14.9284 14.056 14.9935 14.5182 15 15H13.75C13.75 14.4857 13.6523 14.0007 13.457 13.5449C13.2617 13.0892 12.9915 12.6921 12.6465 12.3535C12.3014 12.015 11.9043 11.748 11.4551 11.5527C11.0059 11.3574 10.5208 11.2565 10 11.25C9.48568 11.25 9.00065 11.3477 8.54492 11.543C8.08919 11.7383 7.69206 12.0085 7.35352 12.3535C7.01497 12.6986 6.74805 13.0957 6.55273 13.5449C6.35742 13.9941 6.25651 14.4792 6.25 15H5C5 14.5247 5.0651 14.0658 5.19531 13.623C5.32552 13.1803 5.51107 12.7637 5.75195 12.373C5.99284 11.9824 6.28255 11.6309 6.62109 11.3184C6.95964 11.0059 7.34375 10.7389 7.77344 10.5176C7.29818 10.166 6.92708 9.72331 6.66016 9.18945C6.39323 8.6556 6.25651 8.09245 6.25 7.5C6.25 7.16146 6.1849 6.83919 6.05469 6.5332C5.92448 6.22721 5.74544 5.96354 5.51758 5.74219C5.28971 5.52083 5.02279 5.3418 4.7168 5.20508C4.41081 5.06836 4.08854 5 3.75 5C3.40495 5 3.08268 5.0651 2.7832 5.19531C2.48372 5.32552 2.22005 5.50456 1.99219 5.73242C1.76432 5.96029 1.58529 6.22721 1.45508 6.5332C1.32487 6.83919 1.25651 7.16146 1.25 7.5H0C0 7.16146 0.0455729 6.83268 0.136719 6.51367C0.227865 6.19466 0.354818 5.89193 0.517578 5.60547C0.680339 5.31901 0.885417 5.05859 1.13281 4.82422C1.38021 4.58984 1.64714 4.38802 1.93359 4.21875C1.71875 3.99089 1.55273 3.72721 1.43555 3.42773C1.31836 3.12826 1.25651 2.81901 1.25 2.5C1.25 2.16146 1.3151 1.83919 1.44531 1.5332C1.57552 1.22721 1.75456 0.963542 1.98242 0.742188C2.21029 0.520833 2.47396 0.341797 2.77344 0.205078C3.07292 0.0683594 3.39844 0 3.75 0C4.08854 0 4.41081 0.0651042 4.7168 0.195312C5.02279 0.325521 5.28646 0.504557 5.50781 0.732422C5.72917 0.960286 5.9082 1.22721 6.04492 1.5332C6.18164 1.83919 6.25 2.16146 6.25 2.5C6.25 2.81901 6.19141 3.12826 6.07422 3.42773C5.95703 3.72721 5.78776 3.99089 5.56641 4.21875C6.10026 4.51172 6.53646 4.91536 6.875 5.42969C7.22656 4.90885 7.67578 4.4987 8.22266 4.19922C8.76953 3.89974 9.36198 3.75 10 3.75C10.6315 3.75 11.2207 3.89974 11.7676 4.19922C12.3145 4.4987 12.7669 4.90885 13.125 5.42969C13.4635 4.91536 13.8997 4.51172 14.4336 4.21875C14.2188 3.99089 14.0527 3.72721 13.9355 3.42773C13.8184 3.12826 13.7565 2.81901 13.75 2.5C13.75 2.16146 13.8151 1.83919 13.9453 1.5332C14.0755 1.22721 14.2546 0.963542 14.4824 0.742188C14.7103 0.520833 14.974 0.341797 15.2734 0.205078C15.5729 0.0683594 15.8984 0 16.25 0C16.5885 0 16.9108 0.0651042 17.2168 0.195312C17.5228 0.325521 17.7865 0.504557 18.0078 0.732422C18.2292 0.960286 18.4082 1.22721 18.5449 1.5332C18.6816 1.83919 18.75 2.16146 18.75 2.5C18.75 2.81901 18.6914 3.12826 18.5742 3.42773C18.457 3.72721 18.2878 3.99089 18.0664 4.21875ZM2.5 2.5C2.5 2.67578 2.53255 2.83854 2.59766 2.98828C2.66276 3.13802 2.75065 3.26823 2.86133 3.37891C2.97201 3.48958 3.10547 3.58073 3.26172 3.65234C3.41797 3.72396 3.58073 3.75651 3.75 3.75C3.92578 3.75 4.08854 3.71745 4.23828 3.65234C4.38802 3.58724 4.51823 3.49935 4.62891 3.38867C4.73958 3.27799 4.83073 3.14453 4.90234 2.98828C4.97396 2.83203 5.00651 2.66927 5 2.5C5 2.32422 4.96745 2.16146 4.90234 2.01172C4.83724 1.86198 4.74935 1.73177 4.63867 1.62109C4.52799 1.51042 4.39453 1.41927 4.23828 1.34766C4.08203 1.27604 3.91927 1.24349 3.75 1.25C3.57422 1.25 3.41146 1.28255 3.26172 1.34766C3.11198 1.41276 2.98177 1.50065 2.87109 1.61133C2.76042 1.72201 2.66927 1.85547 2.59766 2.01172C2.52604 2.16797 2.49349 2.33073 2.5 2.5ZM10 10C10.3385 10 10.6608 9.9349 10.9668 9.80469C11.2728 9.67448 11.5365 9.49544 11.7578 9.26758C11.9792 9.03971 12.1582 8.77604 12.2949 8.47656C12.4316 8.17708 12.5 7.85156 12.5 7.5C12.5 7.16146 12.4349 6.83919 12.3047 6.5332C12.1745 6.22721 11.9954 5.96354 11.7676 5.74219C11.5397 5.52083 11.2728 5.3418 10.9668 5.20508C10.6608 5.06836 10.3385 5 10 5C9.65495 5 9.33268 5.0651 9.0332 5.19531C8.73372 5.32552 8.47005 5.50456 8.24219 5.73242C8.01432 5.96029 7.83529 6.22721 7.70508 6.5332C7.57487 6.83919 7.50651 7.16146 7.5 7.5C7.5 7.84505 7.5651 8.16732 7.69531 8.4668C7.82552 8.76628 8.00456 9.02995 8.23242 9.25781C8.46029 9.48568 8.72396 9.66471 9.02344 9.79492C9.32292 9.92513 9.64844 9.99349 10 10ZM15 2.5C15 2.67578 15.0326 2.83854 15.0977 2.98828C15.1628 3.13802 15.2507 3.26823 15.3613 3.37891C15.472 3.48958 15.6055 3.58073 15.7617 3.65234C15.918 3.72396 16.0807 3.75651 16.25 3.75C16.4258 3.75 16.5885 3.71745 16.7383 3.65234C16.888 3.58724 17.0182 3.49935 17.1289 3.38867C17.2396 3.27799 17.3307 3.14453 17.4023 2.98828C17.474 2.83203 17.5065 2.66927 17.5 2.5C17.5 2.32422 17.4674 2.16146 17.4023 2.01172C17.3372 1.86198 17.2493 1.73177 17.1387 1.62109C17.028 1.51042 16.8945 1.41927 16.7383 1.34766C16.582 1.27604 16.4193 1.24349 16.25 1.25C16.0742 1.25 15.9115 1.28255 15.7617 1.34766C15.612 1.41276 15.4818 1.50065 15.3711 1.61133C15.2604 1.72201 15.1693 1.85547 15.0977 2.01172C15.026 2.16797 14.9935 2.33073 15 2.5Z" fill="#737791"/>
</svg>
