<svg width="20" height="21" viewBox="0 0 20 21" fill="none" xmlns="http://www.w3.org/2000/svg">
<path fill-rule="evenodd" clip-rule="evenodd" d="M17.8786 5.01327C17.9578 5.13344 17.993 5.27726 17.9785 5.42043C17.9639 5.5636 17.9004 5.69735 17.7986 5.79911L10.1378 13.4591C10.0594 13.5374 9.9616 13.5935 9.85442 13.6216L6.66359 14.4549C6.55812 14.4824 6.44728 14.4819 6.34208 14.4533C6.23689 14.4248 6.14099 14.3692 6.06392 14.2921C5.98684 14.215 5.93126 14.1191 5.9027 14.0139C5.87414 13.9087 5.87358 13.7979 5.90109 13.6924L6.73442 10.5024C6.75934 10.4069 6.80517 10.3181 6.86859 10.2424L14.5578 2.55827C14.6749 2.44123 14.8338 2.37549 14.9994 2.37549C15.165 2.37549 15.3239 2.44123 15.4411 2.55827L17.7986 4.91494C17.8277 4.94564 17.8545 4.97851 17.8786 5.01327ZM16.4728 5.35661L14.9994 3.8841L7.90109 10.9824L7.38026 12.9766L9.37442 12.4558L16.4728 5.35661Z" fill="white"/>
<path d="M16.3682 14.8001C16.5959 12.8534 16.6687 10.8916 16.5857 8.9334C16.5837 8.88725 16.5914 8.84119 16.6081 8.79815C16.6249 8.75512 16.6505 8.71604 16.6832 8.6834L17.5032 7.8634C17.5256 7.84086 17.554 7.82528 17.5851 7.81852C17.6161 7.81176 17.6485 7.81411 17.6782 7.82528C17.7079 7.83646 17.7338 7.85599 17.7527 7.88153C17.7717 7.90706 17.7828 7.93752 17.7848 7.96923C17.9387 10.2953 17.8802 12.6305 17.6098 14.9459C17.4132 16.6309 16.0598 17.9517 14.3823 18.1392C11.4701 18.4615 8.53122 18.4615 5.619 18.1392C3.94233 17.9517 2.58816 16.6309 2.3915 14.9459C2.04658 11.992 2.04658 9.00809 2.3915 6.05423C2.58816 4.36923 3.9415 3.0484 5.619 2.8609C7.82937 2.61677 10.0563 2.5574 12.2765 2.6834C12.3083 2.68568 12.3387 2.69702 12.3643 2.71607C12.3898 2.73513 12.4093 2.7611 12.4205 2.79091C12.4318 2.82073 12.4342 2.85313 12.4276 2.88429C12.421 2.91545 12.4055 2.94406 12.3832 2.96673L11.5557 3.7934C11.5233 3.82577 11.4846 3.85113 11.4421 3.86791C11.3995 3.88468 11.3539 3.89251 11.3082 3.8909C9.45546 3.82744 7.60059 3.89846 5.75816 4.1034C5.21978 4.16299 4.7172 4.40233 4.33162 4.78277C3.94604 5.16321 3.69997 5.66253 3.63316 6.20006C3.29888 9.05699 3.29888 11.9431 3.63316 14.8001C3.69997 15.3376 3.94604 15.8369 4.33162 16.2174C4.7172 16.5978 5.21978 16.8371 5.75816 16.8967C8.554 17.2092 11.4473 17.2092 14.244 16.8967C14.7824 16.8371 15.285 16.5978 15.6705 16.2174C16.0561 15.8369 16.3014 15.3376 16.3682 14.8001Z" fill="white"/>
</svg>
