<svg width="41" height="40" viewBox="0 0 41 40" fill="none" xmlns="http://www.w3.org/2000/svg">
<g clip-path="url(#clip0_195_22772)">
<path d="M37.6594 30.8005C37.6517 30.7895 37.6445 30.7783 37.6374 30.767L22.4391 6.67899C21.5382 5.25165 19.4583 5.25399 18.5588 6.67907L3.29524 30.8706C2.33314 32.3956 3.43157 34.3886 5.23532 34.3886H35.7651C37.6088 34.3886 38.6946 32.3138 37.6594 30.8005Z" fill="#C6271A"/>
<path d="M5.0561 33.2031C4.85797 32.8437 4.75983 32.4378 4.77189 32.0277C4.78396 31.6175 4.90579 31.2181 5.1247 30.871L20.3884 6.67957C20.6337 6.28955 20.9911 5.98276 21.4138 5.79942C20.3961 5.35825 19.1778 5.69879 18.5588 6.67957L3.29525 30.871C2.33314 32.396 3.43157 34.389 5.23532 34.389H7.06486C6.65458 34.389 6.25181 34.279 5.89852 34.0704C5.54522 33.8618 5.25431 33.5623 5.0561 33.2031Z" fill="#AF221B"/>
<path d="M35.765 36.8245H5.23525C1.5176 36.8245 -0.749112 32.7161 1.2351 29.5708L16.4989 5.37943C18.3558 2.43701 22.6447 2.44029 24.499 5.37927L39.6855 29.4481C41.8025 32.5795 39.5453 36.8245 35.765 36.8245ZM18.7286 6.78638L3.46502 30.9777C2.58713 32.3693 3.5894 34.188 5.23533 34.188H35.765C37.4461 34.188 38.439 32.2959 37.4945 30.915C37.4853 30.9016 37.4763 30.888 37.4677 30.8741L22.2693 6.7863C21.4473 5.48388 19.5494 5.48583 18.7286 6.78638Z" fill="#F74C48"/>
<path d="M2.84096 29.5715L18.1047 5.38004C18.8311 4.22902 19.9906 3.46504 21.3018 3.24207C19.4256 2.92332 17.5367 3.73543 16.4988 5.38004L1.23502 29.5715C-0.748573 32.7158 1.51627 36.8253 5.23518 36.8253H6.84104C3.12346 36.8252 0.856739 32.7168 2.84096 29.5715Z" fill="#D63322"/>
<path d="M20.5002 14.4727C19.7723 14.4727 19.1819 15.0629 19.1819 15.7909V23.4462C19.1819 24.1742 19.7723 24.7645 20.5002 24.7645C21.2284 24.7645 21.8185 24.1742 21.8185 23.4462V15.7909C21.8185 15.0629 21.2284 14.4727 20.5002 14.4727Z" fill="#F2F2F2"/>
<path d="M20.4999 29.8514C21.228 29.8514 21.8182 29.2612 21.8182 28.5331C21.8182 27.8051 21.228 27.2148 20.4999 27.2148C19.7719 27.2148 19.1816 27.8051 19.1816 28.5331C19.1816 29.2612 19.7719 29.8514 20.4999 29.8514Z" fill="#F2F2F2"/>
</g>
<defs>
<clipPath id="clip0_195_22772">
<rect width="40" height="40" fill="white" transform="translate(0.5)"/>
</clipPath>
</defs>
</svg>
