<svg width="24" height="24" viewBox="0 0 24 24" fill="none" xmlns="http://www.w3.org/2000/svg">
<g clip-path="url(#clip0_543_79655)">
<path d="M12.1897 4.85713H7.89734C7.50289 4.85713 7.18306 4.5373 7.18306 4.14285V2.8604C7.18311 1.2832 8.46626 0 10.0435 0C11.6208 0 12.904 1.2832 12.904 2.8604V4.1428C12.9041 4.5373 12.5842 4.85713 12.1897 4.85713ZM8.61167 3.42857H11.4755V2.86045C11.4755 2.07093 10.8332 1.42861 10.0436 1.42861C9.25409 1.42861 8.61176 2.07093 8.61176 2.86045V3.42857H8.61167ZM15.9032 24H4.18424C3.80634 24 3.49391 23.7057 3.47123 23.3285L2.51887 7.46642C2.51301 7.36919 2.52711 7.27178 2.56029 7.18019C2.59348 7.0886 2.64504 7.00477 2.71182 6.93385C2.7786 6.86293 2.85918 6.80642 2.94861 6.7678C3.03804 6.72917 3.13442 6.70925 3.23184 6.70925H16.8556C16.953 6.70924 17.0494 6.72915 17.1388 6.76777C17.2282 6.80639 17.3088 6.8629 17.3756 6.93382C17.4424 7.00475 17.494 7.08858 17.5271 7.18018C17.5603 7.27177 17.5744 7.36918 17.5685 7.46642L16.6162 23.3285C16.5935 23.7057 16.2811 24 15.9032 24Z" fill="#003C61"/>
<path d="M18.1832 8.13805H1.90569C1.51123 8.13805 1.19141 7.81823 1.19141 7.42377C1.19141 5.22093 2.98358 3.42871 5.18652 3.42871H14.9024C17.1053 3.42871 18.8975 5.22088 18.8975 7.42377C18.8975 7.81827 18.5777 8.13805 18.1832 8.13805Z" fill="#3275C1"/>
<path d="M16.8569 6.7093H10.0449V24H15.9045C16.2824 24 16.5948 23.7057 16.6175 23.3285L17.5699 7.46642C17.5757 7.36918 17.5616 7.27177 17.5284 7.18018C17.4953 7.08859 17.4437 7.00476 17.3769 6.93383C17.3101 6.86295 17.2295 6.80647 17.1401 6.76786C17.0507 6.72925 16.9543 6.70932 16.8569 6.7093ZM10.0449 0V1.42856C10.8345 1.42856 11.4768 2.07093 11.4768 2.8604V3.42852H10.0449V4.85708H12.1911C12.5855 4.85708 12.9054 4.53726 12.9054 4.1428V2.8604C12.9054 1.28325 11.6222 0 10.0449 0Z" fill="#8ECFFA"/>
<path d="M14.903 3.42871H10.0449V8.13805H18.1838C18.5783 8.13805 18.8981 7.81823 18.8981 7.42377C18.8981 5.22088 17.1059 3.42871 14.903 3.42871Z" fill="#213E6D"/>
<path d="M20.9896 22.0751C22.1146 20.9239 22.8091 19.3504 22.8091 17.6175C22.8091 14.0984 19.9461 11.2354 16.427 11.2354C14.694 11.2354 13.1206 11.9299 11.9694 13.0548C11.9308 13.0861 11.8956 13.1213 11.8643 13.1599C10.7394 14.3111 10.0449 15.8846 10.0449 17.6175C10.0449 21.1366 12.9079 23.9996 16.427 23.9996C18.16 23.9996 19.7334 23.305 20.8847 22.1801C20.9232 22.1488 20.9584 22.1136 20.9896 22.0751ZM21.3806 17.6175C21.3806 18.7261 21.0145 19.7508 20.3968 20.5772L13.4673 13.6476C14.2936 13.03 15.3184 12.6639 16.427 12.6639C19.1584 12.6638 21.3806 14.886 21.3806 17.6175ZM11.4734 17.6175C11.4734 16.5088 11.8395 15.4841 12.4572 14.6577L19.3867 21.5873C18.5604 22.2049 17.5356 22.571 16.427 22.571C13.6956 22.571 11.4734 20.3488 11.4734 17.6175Z" fill="#FC346D"/>
</g>
<defs>
<clipPath id="clip0_543_79655">
<rect width="24" height="24" fill="white"/>
</clipPath>
</defs>
</svg>
