<svg width="57" height="56" viewBox="0 0 57 56" fill="none" xmlns="http://www.w3.org/2000/svg">
<path d="M24.9987 48.9986C38.529 48.9986 49.4975 38.0301 49.4975 24.4998C49.4975 10.9695 38.529 0.000976562 24.9987 0.000976562C11.4685 0.000976562 0.5 10.9695 0.5 24.4998C0.5 38.0301 11.4685 48.9986 24.9987 48.9986Z" fill="#09C768"/>
<path d="M3.99982 24.4996C3.99982 11.5577 14.0351 0.95968 26.7486 0.062411C12.502 -0.943134 0.5 10.3319 0.5 24.4996C0.5 38.6678 12.5023 49.9423 26.7486 48.9369C14.035 48.0396 3.99982 37.4416 3.99982 24.4996Z" fill="#099473"/>
<path d="M45.651 24.4992C45.651 24.7858 45.992 25.0712 45.9806 25.355C45.5429 36.2756 36.7653 45.0496 25.8432 45.4815C25.5631 45.4926 25.2816 45.2273 24.9989 45.2273C24.7159 45.2273 24.4341 45.4926 24.1538 45.4815C18.9923 45.2772 14.3097 43.2099 10.76 39.9334C10.548 39.7379 10.6059 39.1901 10.4021 38.9861C10.2073 38.7908 9.75063 38.9396 9.5635 38.7368C6.28986 35.1896 4.22365 30.5113 4.01706 25.3546C4.00568 25.0709 4.35621 24.7857 4.35621 24.4992C4.35621 24.2162 4.00546 23.9347 4.01662 23.6545C4.22081 18.4928 6.28811 13.8102 9.5647 10.2603C9.76354 10.045 10.2357 10.1849 10.4433 9.97806C10.6349 9.7871 10.5612 9.24867 10.76 9.06515C14.3097 5.78854 18.9923 3.72124 24.154 3.51694C24.4342 3.50589 24.7159 3.771 24.9988 3.771C25.2818 3.771 25.5636 3.50589 25.8438 3.51694C31.0022 3.72113 35.6821 5.78603 39.2311 9.05903C39.441 9.25261 39.3006 9.68385 39.5024 9.88564C39.7025 10.0859 40.2451 10.0567 40.4371 10.2648C43.7113 13.8142 45.777 18.4952 45.9811 23.6548C45.9921 23.9349 45.651 24.2165 45.651 24.4992Z" fill="#EAF6FF"/>
<path d="M7.38015 24.4992C7.38015 13.4707 15.8819 4.42799 26.689 3.56736C26.4102 3.54516 26.13 3.52842 25.8483 3.51716C25.5665 3.50589 25.2834 3.771 24.9989 3.771C24.7158 3.771 24.4342 3.50589 24.1539 3.51694C18.99 3.72135 14.3055 5.7904 10.7553 9.06952C10.551 9.25819 10.64 9.78152 10.4434 9.97806C10.243 10.1783 9.75719 10.052 9.56502 10.2602C6.28712 13.8115 4.21938 18.4966 4.01661 23.6609C4.00567 23.939 4.35653 24.2184 4.35653 24.4993C4.35653 24.7822 4.00578 25.064 4.01694 25.3442C4.22113 30.5058 6.28854 35.1883 9.56491 38.7381C9.74833 38.9368 10.2115 38.7946 10.4024 38.9861C10.6093 39.1936 10.5446 39.7345 10.7601 39.9334C14.3098 43.2099 18.9924 45.2772 24.154 45.4815C24.4343 45.4926 24.7161 45.2273 24.9991 45.2273C25.2819 45.2273 25.5633 45.4926 25.8434 45.4815C26.1268 45.4703 26.4088 45.4534 26.6892 45.4311C15.882 44.5703 7.38015 35.5276 7.38015 24.4992Z" fill="#D8ECFE"/>
<path d="M44.2474 55.9978C51.0126 55.9978 56.4968 50.5136 56.4968 43.7484C56.4968 36.9833 51.0126 31.499 44.2474 31.499C37.4823 31.499 31.998 36.9833 31.998 43.7484C31.998 50.5136 37.4823 55.9978 44.2474 55.9978Z" fill="#F91115"/>
<path d="M35.3782 43.7484C35.3782 37.5567 39.9722 32.438 45.9375 31.6147C45.3774 31.5376 44.8128 31.4989 44.2474 31.499C37.4823 31.499 31.998 36.9833 31.998 43.7484C31.998 51.1431 38.524 56.9054 45.9375 55.8821C39.9722 55.0589 35.3782 49.9402 35.3782 43.7484Z" fill="#DE111C"/>
<path d="M44.248 46.2021C43.2618 46.2021 42.4419 45.4431 42.3659 44.4598L41.8362 37.6044C41.7276 36.1992 42.8386 34.999 44.248 34.999C45.6574 34.999 46.7684 36.1991 46.6598 37.6044L46.1301 44.4598C46.0541 45.4429 45.2341 46.2021 44.248 46.2021Z" fill="#EAF6FF"/>
<path d="M44.6189 44.4596L44.0892 37.6043C44.012 36.6058 44.5505 35.711 45.3743 35.2765C43.7091 34.3983 41.6883 35.6953 41.8357 37.6043L42.3654 44.4596C42.4804 45.9476 44.1934 46.7082 45.3743 45.8288C45.1577 45.668 44.9782 45.4625 44.8478 45.2263C44.7175 44.9901 44.6394 44.7286 44.6189 44.4596Z" fill="#D8ECFE"/>
<path d="M44.248 52.4989C45.2144 52.4989 45.9979 51.7154 45.9979 50.7489C45.9979 49.7825 45.2144 48.999 44.248 48.999C43.2815 48.999 42.498 49.7825 42.498 50.7489C42.498 51.7154 43.2815 52.4989 44.248 52.4989Z" fill="#EAF6FF"/>
<path d="M45.3742 49.4094C44.2478 48.4605 42.4976 49.2559 42.4976 50.7484C42.4976 52.2402 44.2475 53.0365 45.3742 52.0873C44.5427 51.3869 44.544 50.1088 45.3742 49.4094Z" fill="#D8ECFE"/>
<path d="M33.1619 23.6546H25.8437V12.2503C25.8437 12.0262 25.7547 11.8112 25.5962 11.6528C25.4377 11.4943 25.2228 11.4053 24.9987 11.4053C24.7746 11.4053 24.5597 11.4943 24.4012 11.6528C24.2428 11.8112 24.1537 12.0262 24.1537 12.2503C24.1568 25.0402 24.1463 24.2699 24.1619 24.3818C24.0906 24.8922 24.4865 25.3447 24.9987 25.3447H33.1619C33.3844 25.3421 33.5969 25.252 33.7533 25.0938C33.9097 24.9356 33.9974 24.7221 33.9974 24.4996C33.9974 24.2771 33.9097 24.0636 33.7533 23.9054C33.5969 23.7472 33.3844 23.6571 33.1619 23.6546Z" fill="#565F64"/>
<path d="M24.9987 26.2498C25.9651 26.2498 26.7486 25.4664 26.7486 24.4999C26.7486 23.5335 25.9651 22.75 24.9987 22.75C24.0322 22.75 23.2488 23.5335 23.2488 24.4999C23.2488 25.4664 24.0322 26.2498 24.9987 26.2498Z" fill="#F91115"/>
<path d="M24.1537 3.51673V6.99983C24.1537 7.11079 24.1756 7.22067 24.218 7.32319C24.2605 7.42571 24.3227 7.51886 24.4012 7.59733C24.4797 7.67579 24.5728 7.73803 24.6753 7.7805C24.7779 7.82296 24.8877 7.84482 24.9987 7.84482C25.1097 7.84482 25.2196 7.82296 25.3221 7.7805C25.4246 7.73803 25.5177 7.67579 25.5962 7.59733C25.6747 7.51886 25.7369 7.42571 25.7794 7.32319C25.8218 7.22067 25.8437 7.11079 25.8437 6.99983V3.51673C25.2806 3.49442 24.7168 3.49442 24.1537 3.51673ZM39.2377 9.06484L36.7749 11.5276C36.6165 11.6861 36.5275 11.9011 36.5275 12.1252C36.5275 12.3493 36.6166 12.5642 36.7751 12.7227C36.9335 12.8812 37.1485 12.9702 37.3726 12.9702C37.5967 12.9701 37.8117 12.8811 37.9701 12.7226L40.4327 10.2598C40.0504 9.84576 39.6518 9.44712 39.2377 9.06484ZM41.6528 24.4989C41.6528 24.6098 41.6746 24.7197 41.7171 24.8222C41.7596 24.9248 41.8218 25.0179 41.9003 25.0964C41.9787 25.1749 42.0719 25.2371 42.1744 25.2796C42.2769 25.322 42.3868 25.3439 42.4978 25.3439H45.9809C46.0032 24.7807 46.0032 24.2169 45.9809 23.6538H42.4978C42.2737 23.6538 42.0588 23.7428 41.9003 23.9013C41.7418 24.0598 41.6528 24.2747 41.6528 24.4989ZM9.56473 10.26L12.0275 12.7228C12.1871 12.8758 12.4003 12.9602 12.6214 12.9578C12.8425 12.9555 13.0538 12.8666 13.2102 12.7103C13.3665 12.5539 13.4554 12.3426 13.4577 12.1215C13.46 11.9004 13.3757 11.6872 13.2227 11.5276L10.7599 9.06484C10.3457 9.44711 9.947 9.84582 9.56473 10.26ZM4.01664 25.344H7.49973C7.72383 25.344 7.93876 25.2549 8.09722 25.0965C8.25569 24.938 8.34471 24.7231 8.34471 24.499C8.34471 24.2749 8.25569 24.0599 8.09722 23.9015C7.93876 23.743 7.72383 23.654 7.49973 23.654H4.01664C3.99445 24.2171 3.99445 24.7809 4.01664 25.344ZM12.0276 36.2751L9.56484 38.7379C9.9471 39.1521 10.3458 39.5507 10.7599 39.933L13.2227 37.4704C13.3776 37.3112 13.4636 37.0974 13.4621 36.8753C13.4606 36.6531 13.3717 36.4405 13.2146 36.2834C13.0575 36.1263 12.845 36.0374 12.6228 36.0358C12.4007 36.0343 12.1869 36.1203 12.0276 36.2751ZM24.9987 41.153C24.8877 41.153 24.7779 41.1748 24.6753 41.2173C24.5728 41.2598 24.4796 41.322 24.4012 41.4005C24.3227 41.4789 24.2605 41.5721 24.218 41.6746C24.1756 41.7771 24.1537 41.887 24.1537 41.998V45.4811C24.7185 45.5034 25.2783 45.5035 25.8438 45.4811V41.998C25.8438 41.887 25.8219 41.7771 25.7795 41.6746C25.737 41.5721 25.6748 41.4789 25.5963 41.4005C25.5178 41.322 25.4246 41.2598 25.3221 41.2173C25.2196 41.1748 25.1097 41.153 24.9987 41.153Z" fill="#565F64"/>
</svg>
