<svg width="17" height="18" viewBox="0 0 17 18" fill="none" xmlns="http://www.w3.org/2000/svg">
<path d="M0 1.98764C0 1.16646 0.634667 0.5 1.41667 0.5H15.5833C16.3653 0.5 17 1.16646 17 1.98764V12.6137C17 13.0082 16.8507 13.3866 16.5851 13.6656C16.3194 13.9446 15.9591 14.1013 15.5833 14.1013H7.82324C7.79664 14.1013 7.7703 14.1067 7.74571 14.1174C7.72113 14.128 7.69878 14.1436 7.67995 14.1634L4.84662 17.1386C4.68152 17.3114 4.47142 17.4289 4.24281 17.4764C4.0142 17.5239 3.77731 17.4993 3.562 17.4057C3.34669 17.312 3.16259 17.1536 3.03292 16.9502C2.90325 16.7469 2.8338 16.5078 2.83333 16.2631V14.1013H1.41667C1.04094 14.1013 0.680609 13.9446 0.414932 13.6656C0.149256 13.3866 0 13.0082 0 12.6137V1.98764ZM1.41667 1.77512C1.36299 1.77512 1.31152 1.79751 1.27356 1.83737C1.23561 1.87722 1.21429 1.93128 1.21429 1.98764V12.6137C1.21429 12.731 1.30495 12.8262 1.41667 12.8262H3.44048C3.6015 12.8262 3.75593 12.8934 3.86979 13.0129C3.98365 13.1325 4.04762 13.2946 4.04762 13.4637V16.1755L6.82186 13.2623C7.08739 12.9832 7.44759 12.8264 7.82324 12.8262H15.5833C15.637 12.8262 15.6885 12.8038 15.7264 12.7639C15.7644 12.7241 15.7857 12.67 15.7857 12.6137V1.98764C15.7857 1.93128 15.7644 1.87722 15.7264 1.83737C15.6885 1.79751 15.637 1.77512 15.5833 1.77512H1.41667ZM8.5 3.47528C8.66102 3.47528 8.81545 3.54246 8.92931 3.66202C9.04318 3.78159 9.10714 3.94375 9.10714 4.11285V7.51317C9.10714 7.68226 9.04318 7.84443 8.92931 7.96399C8.81545 8.08356 8.66102 8.15073 8.5 8.15073C8.33898 8.15073 8.18455 8.08356 8.07069 7.96399C7.95682 7.84443 7.89286 7.68226 7.89286 7.51317V4.11285C7.89286 3.94375 7.95682 3.78159 8.07069 3.66202C8.18455 3.54246 8.33898 3.47528 8.5 3.47528ZM8.5 11.126C8.2853 11.126 8.0794 11.0365 7.92758 10.877C7.77577 10.7176 7.69048 10.5014 7.69048 10.2759C7.69048 10.0505 7.77577 9.83426 7.92758 9.67484C8.0794 9.51542 8.2853 9.42585 8.5 9.42585C8.7147 9.42585 8.9206 9.51542 9.07242 9.67484C9.22423 9.83426 9.30952 10.0505 9.30952 10.2759C9.30952 10.5014 9.22423 10.7176 9.07242 10.877C8.9206 11.0365 8.7147 11.126 8.5 11.126Z" fill="#737791"/>
</svg>
