<svg width="20" height="21" viewBox="0 0 20 21" fill="none" xmlns="http://www.w3.org/2000/svg">
<g clip-path="url(#clip0_1219_1388)">
<path d="M9.99998 1.60938C8.24192 1.60938 6.52334 2.1307 5.06157 3.10742C3.5998 4.08415 2.46049 5.4724 1.78771 7.09663C1.11494 8.72087 0.938906 10.5081 1.28189 12.2324C1.62487 13.9567 2.47145 15.5405 3.71458 16.7837C4.95772 18.0268 6.54157 18.8734 8.26584 19.2164C9.99012 19.5593 11.7774 19.3833 13.4016 18.7105C15.0258 18.0377 16.4141 16.8984 17.3908 15.4367C18.3675 13.9749 18.8889 12.2563 18.8889 10.4983C18.8889 8.14078 17.9524 5.87986 16.2854 4.21287C14.6184 2.54588 12.3575 1.60938 9.99998 1.60938ZM9.99998 18.276C8.46168 18.276 6.95792 17.8199 5.67888 16.9653C4.39983 16.1106 3.40293 14.8959 2.81425 13.4747C2.22557 12.0535 2.07154 10.4896 2.37165 8.9809C2.67175 7.47215 3.41252 6.08629 4.50026 4.99854C5.588 3.9108 6.97387 3.17004 8.48261 2.86993C9.99135 2.56983 11.5552 2.72385 12.9764 3.31253C14.3976 3.90122 15.6123 4.89811 16.467 6.17716C17.3216 7.45621 17.7778 8.95997 17.7778 10.4983C17.7778 12.5611 16.9583 14.5394 15.4997 15.998C14.0411 17.4566 12.0628 18.276 9.99998 18.276Z" fill="#737791"/>
<path d="M10.1612 5.45369C9.55919 5.44373 8.96236 5.5665 8.41314 5.81327C7.86392 6.06003 7.37579 6.42474 6.98344 6.88146C6.92893 6.93198 6.88511 6.99291 6.85458 7.06067C6.82404 7.12842 6.80741 7.20161 6.80566 7.27591C6.80563 7.34445 6.81938 7.41231 6.8461 7.47543C6.87282 7.53855 6.91197 7.59565 6.96121 7.64334C7.01045 7.69103 7.06878 7.72832 7.13273 7.753C7.19667 7.77769 7.26493 7.78925 7.33344 7.78702C7.48021 7.78338 7.62054 7.72606 7.72789 7.62591C8.02481 7.27795 8.39359 6.99845 8.80886 6.80665C9.22413 6.61484 9.67602 6.51527 10.1334 6.5148C11.4446 6.5148 12.2612 7.35924 12.2612 8.40924V8.43702C12.2612 9.6648 11.2834 10.3481 9.739 10.4648C9.67646 10.4672 9.61514 10.4828 9.55904 10.5106C9.50295 10.5383 9.45335 10.5776 9.41349 10.6259C9.37363 10.6741 9.34441 10.7302 9.32775 10.7905C9.31108 10.8509 9.30734 10.914 9.31678 10.9759C9.31678 10.9759 9.31678 12.2648 9.31678 12.5037C9.33059 12.6412 9.39517 12.7686 9.4979 12.8611C9.60063 12.9535 9.73413 13.0044 9.87233 13.0037H9.93344C10.071 12.9899 10.1984 12.9253 10.2908 12.8226C10.3833 12.7198 10.4341 12.5863 10.4334 12.4481V11.3037C12.1001 11.0704 13.4501 10.1926 13.4501 8.37035V8.34257C13.4334 6.67591 12.1334 5.45369 10.1612 5.45369Z" fill="#737791"/>
<path d="M9.87779 15.7483C10.2613 15.7483 10.5722 15.4374 10.5722 15.0538C10.5722 14.6703 10.2613 14.3594 9.87779 14.3594C9.49426 14.3594 9.18335 14.6703 9.18335 15.0538C9.18335 15.4374 9.49426 15.7483 9.87779 15.7483Z" fill="#737791"/>
</g>
<defs>
<clipPath id="clip0_1219_1388">
<rect width="20" height="20" fill="white" transform="translate(0 0.5)"/>
</clipPath>
</defs>
</svg>
