<svg width="19" height="18" viewBox="0 0 19 18" fill="none" xmlns="http://www.w3.org/2000/svg">
<g clip-path="url(#clip0_1_574)">
<mask id="path-1-outside-1_1_574" maskUnits="userSpaceOnUse" x="1.3623" y="-0.90625" width="16" height="20" fill="black">
<rect fill="white" x="1.3623" y="-0.90625" width="16" height="20"/>
<path fill-rule="evenodd" clip-rule="evenodd" d="M12.2091 1.81144H15.4603C15.5349 1.81144 15.6064 1.84107 15.6592 1.89381C15.7119 1.94656 15.7416 2.0181 15.7416 2.09269V17.0625C15.7416 17.1371 15.7119 17.2086 15.6592 17.2614C15.6064 17.3141 15.5349 17.3437 15.4603 17.3437H3.20605C3.13146 17.3437 3.05993 17.3141 3.00718 17.2614C2.95444 17.2086 2.9248 17.1371 2.9248 17.0625V2.09269C2.9248 2.0181 2.95444 1.94656 3.00718 1.89381C3.05993 1.84107 3.13146 1.81144 3.20605 1.81144H5.80105C5.87387 1.80878 5.94281 1.77798 5.99339 1.72553C6.04396 1.67307 6.07222 1.60305 6.07222 1.53019C6.07222 1.45732 6.04396 1.3873 5.99339 1.33485C5.94281 1.28239 5.87387 1.2516 5.80105 1.24894H3.20605C2.98228 1.24894 2.76767 1.33783 2.60943 1.49607C2.4512 1.6543 2.3623 1.86891 2.3623 2.09269V17.0625C2.3623 17.2863 2.4512 17.5009 2.60943 17.6591C2.76767 17.8174 2.98228 17.9062 3.20605 17.9062H15.4603C15.6841 17.9062 15.8987 17.8174 16.0569 17.6591C16.2152 17.5009 16.3041 17.2863 16.3041 17.0625V2.09269C16.3041 1.86891 16.2152 1.6543 16.0569 1.49607C15.8987 1.33783 15.6841 1.24894 15.4603 1.24894H12.1886C12.1534 1.11535 12.0749 0.997194 11.9654 0.912878C11.856 0.828562 11.7217 0.782831 11.5836 0.782812H11.583C11.5663 0.782812 11.5503 0.776175 11.5384 0.76436C11.5266 0.752545 11.52 0.736521 11.52 0.719812V0.71925C11.52 0.637108 11.5038 0.555771 11.4724 0.479881C11.4409 0.403992 11.3949 0.335038 11.3368 0.276955C11.2787 0.218872 11.2097 0.172798 11.1339 0.141363C11.058 0.109929 10.9766 0.09375 10.8945 0.09375H7.77187C7.60597 0.09375 7.44688 0.159651 7.32957 0.276955C7.21227 0.394259 7.14637 0.553357 7.14637 0.71925V0.719812C7.14637 0.736521 7.13973 0.752545 7.12791 0.76436C7.1161 0.776175 7.10008 0.782812 7.08337 0.782812H7.0828C6.91691 0.782812 6.75781 0.848713 6.64051 0.966017C6.5232 1.08332 6.4573 1.24242 6.4573 1.40831V2.31056C6.4573 2.48461 6.52644 2.65153 6.64952 2.7746C6.77259 2.89767 6.93951 2.96681 7.11355 2.96681H11.5528C11.7269 2.96681 11.8938 2.89767 12.0168 2.7746C12.1399 2.65153 12.2091 2.48461 12.2091 2.31056V1.81144ZM12.4269 13.7655H11.7703C11.6841 13.7654 11.5988 13.7824 11.5191 13.8154C11.4395 13.8483 11.3671 13.8967 11.3062 13.9576C11.2452 14.0185 11.1969 14.0909 11.1639 14.1706C11.1309 14.2502 11.114 14.3356 11.1141 14.4217V15.8505C11.1142 16.0245 11.1834 16.1913 11.3064 16.3144C11.4295 16.4374 11.5963 16.5066 11.7703 16.5068H13.1991C13.3731 16.5068 13.54 16.4376 13.6631 16.3145C13.7862 16.1915 13.8553 16.0245 13.8553 15.8505V15.1941C13.8526 15.1212 13.8218 15.0523 13.7694 15.0017C13.7169 14.9512 13.6469 14.9229 13.5741 14.9229C13.5012 14.9229 13.4312 14.9512 13.3787 15.0017C13.3263 15.0523 13.2955 15.1212 13.2928 15.1941V15.8505C13.2928 15.8754 13.2829 15.8992 13.2653 15.9168C13.2478 15.9344 13.2239 15.9442 13.1991 15.9442H11.7703C11.7454 15.9442 11.7216 15.9344 11.7039 15.9169C11.6864 15.8992 11.6766 15.8754 11.6766 15.8505V14.4217C11.6767 14.3969 11.6866 14.3732 11.7042 14.3556C11.7217 14.3381 11.7455 14.3281 11.7703 14.328H12.4269C12.5015 14.328 12.5731 14.2984 12.6258 14.2456C12.6785 14.1929 12.7082 14.1213 12.7082 14.0467C12.7082 13.9722 12.6785 13.9006 12.6258 13.8479C12.5731 13.7951 12.5015 13.7655 12.4269 13.7655ZM4.61362 15.7661H7.43343C7.50802 15.7661 7.57956 15.7365 7.6323 15.6837C7.68505 15.631 7.71468 15.5595 7.71468 15.4849C7.71468 15.4103 7.68505 15.3387 7.6323 15.286C7.57956 15.2333 7.50802 15.2036 7.43343 15.2036H4.61362C4.53902 15.2036 4.46749 15.2333 4.41474 15.286C4.362 15.3387 4.33237 15.4103 4.33237 15.4849C4.33237 15.5595 4.362 15.631 4.41474 15.6837C4.46749 15.7365 4.53902 15.7661 4.61362 15.7661ZM12.6834 15.3351L14.3505 13.668C14.3774 13.6421 14.3988 13.611 14.4135 13.5767C14.4283 13.5424 14.436 13.5055 14.4363 13.4681C14.4367 13.4308 14.4296 13.3938 14.4154 13.3592C14.4013 13.3246 14.3804 13.2932 14.354 13.2668C14.3276 13.2404 14.2962 13.2195 14.2616 13.2054C14.227 13.1913 14.19 13.1841 14.1527 13.1845C14.1153 13.1848 14.0784 13.1925 14.0441 13.2073C14.0098 13.222 13.9787 13.2434 13.9528 13.2703L12.2857 14.9374C12.2331 14.9901 12.2035 15.0617 12.2035 15.1362C12.2035 15.2108 12.2331 15.2823 12.2857 15.3351C12.3385 15.3877 12.41 15.4173 12.4846 15.4173C12.5591 15.4173 12.6307 15.3877 12.6834 15.3351ZM4.61362 14.328H9.60505C9.67787 14.3253 9.74681 14.2945 9.79739 14.2421C9.84796 14.1896 9.87622 14.1196 9.87622 14.0467C9.87622 13.9739 9.84796 13.9039 9.79739 13.8514C9.74681 13.799 9.67787 13.7682 9.60505 13.7655H4.61362C4.53902 13.7655 4.46749 13.7951 4.41474 13.8479C4.362 13.9006 4.33237 13.9722 4.33237 14.0467C4.33237 14.1213 4.362 14.1929 4.41474 14.2456C4.46749 14.2984 4.53902 14.328 4.61362 14.328ZM12.4269 9.19987H11.7703C11.6841 9.19983 11.5988 9.21677 11.5191 9.24973C11.4395 9.28269 11.3671 9.33103 11.3062 9.39198C11.2452 9.45292 11.1969 9.52529 11.1639 9.60493C11.1309 9.68457 11.114 9.76993 11.1141 9.85612V11.2849C11.1142 11.4589 11.1833 11.6258 11.3064 11.7488C11.4294 11.8719 11.5963 11.941 11.7703 11.9411H13.1991C13.3731 11.9411 13.54 11.872 13.6631 11.7489C13.7862 11.6258 13.8553 11.4589 13.8553 11.2849V10.6284C13.8526 10.5556 13.8218 10.4867 13.7694 10.4361C13.7169 10.3855 13.6469 10.3573 13.5741 10.3573C13.5012 10.3573 13.4312 10.3855 13.3787 10.4361C13.3263 10.4867 13.2955 10.5556 13.2928 10.6284V11.2849C13.2928 11.3097 13.2829 11.3336 13.2653 11.3512C13.2478 11.3687 13.2239 11.3786 13.1991 11.3786H11.7703C11.7454 11.3786 11.7216 11.3688 11.7039 11.3512C11.6864 11.3336 11.6766 11.3097 11.6766 11.2849V9.85612C11.6767 9.83131 11.6866 9.80755 11.7042 9.79C11.7217 9.77245 11.7455 9.76252 11.7703 9.76237H12.4269C12.5015 9.76237 12.5731 9.73274 12.6258 9.68C12.6785 9.62725 12.7082 9.55572 12.7082 9.48112C12.7082 9.40653 12.6785 9.335 12.6258 9.28225C12.5731 9.22951 12.5015 9.19987 12.4269 9.19987ZM4.61362 11.2005H7.43343C7.50802 11.2005 7.57956 11.1709 7.6323 11.1181C7.68505 11.0654 7.71468 10.9938 7.71468 10.9192C7.71468 10.8447 7.68505 10.7731 7.6323 10.7204C7.57956 10.6676 7.50802 10.638 7.43343 10.638H4.61362C4.5408 10.6407 4.47186 10.6715 4.42128 10.7239C4.37071 10.7764 4.34245 10.8464 4.34245 10.9192C4.34245 10.9921 4.37071 11.0621 4.42128 11.1146C4.47186 11.167 4.5408 11.1978 4.61362 11.2005ZM12.6834 10.7694L14.3505 9.10237C14.3774 9.07643 14.3988 9.04539 14.4135 9.01108C14.4283 8.97677 14.436 8.93986 14.4363 8.90252C14.4367 8.86517 14.4296 8.82814 14.4154 8.79358C14.4013 8.75901 14.3804 8.72761 14.354 8.7012C14.3276 8.67479 14.2962 8.65391 14.2616 8.63977C14.227 8.62563 14.19 8.61851 14.1527 8.61884C14.1153 8.61916 14.0784 8.62692 14.0441 8.64166C14.0098 8.6564 13.9787 8.67782 13.9528 8.70469L12.2857 10.3717C12.2331 10.4245 12.2035 10.496 12.2035 10.5706C12.2035 10.6452 12.2331 10.7167 12.2857 10.7694C12.3385 10.8221 12.41 10.8517 12.4846 10.8517C12.5591 10.8517 12.6307 10.8221 12.6834 10.7694ZM4.61362 9.76237H9.60505C9.67787 9.75972 9.74681 9.72892 9.79739 9.67647C9.84796 9.62401 9.87622 9.55399 9.87622 9.48112C9.87622 9.40826 9.84796 9.33824 9.79739 9.28578C9.74681 9.23333 9.67787 9.20253 9.60505 9.19987H4.61362C4.5408 9.20253 4.47186 9.23333 4.42128 9.28578C4.37071 9.33824 4.34245 9.40826 4.34245 9.48112C4.34245 9.55399 4.37071 9.62401 4.42128 9.67647C4.47186 9.72892 4.5408 9.75972 4.61362 9.76237ZM12.4269 4.63425H11.7703C11.5963 4.6344 11.4294 4.70361 11.3064 4.82669C11.1833 4.94977 11.1142 5.11665 11.1141 5.29069V6.71925C11.1142 6.89327 11.1833 7.06013 11.3064 7.18318C11.4294 7.30623 11.5963 7.3754 11.7703 7.3755H13.1991C13.3731 7.3755 13.54 7.30636 13.6631 7.18329C13.7862 7.06022 13.8553 6.8933 13.8553 6.71925V6.06281C13.8526 5.99 13.8218 5.92105 13.7694 5.87048C13.7169 5.8199 13.6469 5.79165 13.5741 5.79165C13.5012 5.79165 13.4312 5.8199 13.3787 5.87048C13.3263 5.92105 13.2955 5.99 13.2928 6.06281V6.71925C13.2928 6.74411 13.2829 6.76796 13.2653 6.78554C13.2478 6.80312 13.2239 6.813 13.1991 6.813H11.7703C11.7454 6.81296 11.7216 6.80313 11.7039 6.78562C11.6864 6.76796 11.6766 6.74411 11.6766 6.71925V5.29069C11.6767 5.26585 11.6866 5.24207 11.7042 5.22449C11.7217 5.20691 11.7455 5.19695 11.7703 5.19675H12.4269C12.5015 5.19675 12.5731 5.16712 12.6258 5.11437C12.6785 5.06163 12.7082 4.99009 12.7082 4.9155C12.7082 4.84091 12.6785 4.76937 12.6258 4.71663C12.5731 4.66388 12.5015 4.63425 12.4269 4.63425ZM4.61362 6.63487H7.43343C7.50802 6.63487 7.57956 6.60524 7.6323 6.5525C7.68505 6.49975 7.71468 6.42822 7.71468 6.35362C7.71468 6.27903 7.68505 6.2075 7.6323 6.15475C7.57956 6.10201 7.50802 6.07237 7.43343 6.07237H4.61362C4.5408 6.07503 4.47186 6.10583 4.42128 6.15828C4.37071 6.21074 4.34245 6.28076 4.34245 6.35362C4.34245 6.42649 4.37071 6.49651 4.42128 6.54897C4.47186 6.60142 4.5408 6.63222 4.61362 6.63487ZM12.6834 6.20381L14.3505 4.53675C14.3774 4.51081 14.3988 4.47977 14.4135 4.44546C14.4283 4.41114 14.436 4.37424 14.4363 4.33689C14.4367 4.29955 14.4296 4.26251 14.4154 4.22795C14.4013 4.19339 14.3804 4.16198 14.354 4.13558C14.3276 4.10917 14.2962 4.08828 14.2616 4.07414C14.227 4.06 14.19 4.05289 14.1527 4.05321C14.1153 4.05353 14.0784 4.06129 14.0441 4.07603C14.0098 4.09077 13.9787 4.1122 13.9528 4.13906L12.2857 5.80612C12.2331 5.85889 12.2035 5.93041 12.2035 6.00497C12.2035 6.07953 12.2331 6.15105 12.2857 6.20381C12.3385 6.25649 12.41 6.28608 12.4846 6.28608C12.5591 6.28608 12.6307 6.25649 12.6834 6.20381ZM4.61362 5.19675H9.60505C9.67787 5.19409 9.74681 5.16329 9.79739 5.11084C9.84796 5.05839 9.87622 4.98836 9.87622 4.9155C9.87622 4.84264 9.84796 4.77261 9.79739 4.72016C9.74681 4.6677 9.67787 4.63691 9.60505 4.63425H4.61362C4.5408 4.63691 4.47186 4.6677 4.42128 4.72016C4.37071 4.77261 4.34245 4.84264 4.34245 4.9155C4.34245 4.98836 4.37071 5.05839 4.42128 5.11084C4.47186 5.16329 4.5408 5.19409 4.61362 5.19675ZM11.583 1.34531H11.5836C11.6184 1.34531 11.6466 1.37362 11.6466 1.40831V2.31056C11.6466 2.33543 11.6367 2.35927 11.6191 2.37685C11.6015 2.39444 11.5777 2.40431 11.5528 2.40431H7.11355C7.08869 2.40431 7.06484 2.39444 7.04726 2.37685C7.02968 2.35927 7.0198 2.33543 7.0198 2.31056V1.40831C7.0198 1.37362 7.04793 1.34531 7.0828 1.34531H7.08337C7.24926 1.34531 7.40836 1.27941 7.52566 1.16211C7.64297 1.0448 7.70887 0.885705 7.70887 0.719812V0.71925C7.70887 0.684375 7.73699 0.65625 7.77187 0.65625H10.8945C10.9294 0.65625 10.9575 0.684375 10.9575 0.71925V0.719812C10.9575 0.885705 11.0234 1.0448 11.1407 1.16211C11.258 1.27941 11.4171 1.34531 11.583 1.34531Z"/>
</mask>
<path fill-rule="evenodd" clip-rule="evenodd" d="M12.2091 1.81144H15.4603C15.5349 1.81144 15.6064 1.84107 15.6592 1.89381C15.7119 1.94656 15.7416 2.0181 15.7416 2.09269V17.0625C15.7416 17.1371 15.7119 17.2086 15.6592 17.2614C15.6064 17.3141 15.5349 17.3437 15.4603 17.3437H3.20605C3.13146 17.3437 3.05993 17.3141 3.00718 17.2614C2.95444 17.2086 2.9248 17.1371 2.9248 17.0625V2.09269C2.9248 2.0181 2.95444 1.94656 3.00718 1.89381C3.05993 1.84107 3.13146 1.81144 3.20605 1.81144H5.80105C5.87387 1.80878 5.94281 1.77798 5.99339 1.72553C6.04396 1.67307 6.07222 1.60305 6.07222 1.53019C6.07222 1.45732 6.04396 1.3873 5.99339 1.33485C5.94281 1.28239 5.87387 1.2516 5.80105 1.24894H3.20605C2.98228 1.24894 2.76767 1.33783 2.60943 1.49607C2.4512 1.6543 2.3623 1.86891 2.3623 2.09269V17.0625C2.3623 17.2863 2.4512 17.5009 2.60943 17.6591C2.76767 17.8174 2.98228 17.9062 3.20605 17.9062H15.4603C15.6841 17.9062 15.8987 17.8174 16.0569 17.6591C16.2152 17.5009 16.3041 17.2863 16.3041 17.0625V2.09269C16.3041 1.86891 16.2152 1.6543 16.0569 1.49607C15.8987 1.33783 15.6841 1.24894 15.4603 1.24894H12.1886C12.1534 1.11535 12.0749 0.997194 11.9654 0.912878C11.856 0.828562 11.7217 0.782831 11.5836 0.782812H11.583C11.5663 0.782812 11.5503 0.776175 11.5384 0.76436C11.5266 0.752545 11.52 0.736521 11.52 0.719812V0.71925C11.52 0.637108 11.5038 0.555771 11.4724 0.479881C11.4409 0.403992 11.3949 0.335038 11.3368 0.276955C11.2787 0.218872 11.2097 0.172798 11.1339 0.141363C11.058 0.109929 10.9766 0.09375 10.8945 0.09375H7.77187C7.60597 0.09375 7.44688 0.159651 7.32957 0.276955C7.21227 0.394259 7.14637 0.553357 7.14637 0.71925V0.719812C7.14637 0.736521 7.13973 0.752545 7.12791 0.76436C7.1161 0.776175 7.10008 0.782812 7.08337 0.782812H7.0828C6.91691 0.782812 6.75781 0.848713 6.64051 0.966017C6.5232 1.08332 6.4573 1.24242 6.4573 1.40831V2.31056C6.4573 2.48461 6.52644 2.65153 6.64952 2.7746C6.77259 2.89767 6.93951 2.96681 7.11355 2.96681H11.5528C11.7269 2.96681 11.8938 2.89767 12.0168 2.7746C12.1399 2.65153 12.2091 2.48461 12.2091 2.31056V1.81144ZM12.4269 13.7655H11.7703C11.6841 13.7654 11.5988 13.7824 11.5191 13.8154C11.4395 13.8483 11.3671 13.8967 11.3062 13.9576C11.2452 14.0185 11.1969 14.0909 11.1639 14.1706C11.1309 14.2502 11.114 14.3356 11.1141 14.4217V15.8505C11.1142 16.0245 11.1834 16.1913 11.3064 16.3144C11.4295 16.4374 11.5963 16.5066 11.7703 16.5068H13.1991C13.3731 16.5068 13.54 16.4376 13.6631 16.3145C13.7862 16.1915 13.8553 16.0245 13.8553 15.8505V15.1941C13.8526 15.1212 13.8218 15.0523 13.7694 15.0017C13.7169 14.9512 13.6469 14.9229 13.5741 14.9229C13.5012 14.9229 13.4312 14.9512 13.3787 15.0017C13.3263 15.0523 13.2955 15.1212 13.2928 15.1941V15.8505C13.2928 15.8754 13.2829 15.8992 13.2653 15.9168C13.2478 15.9344 13.2239 15.9442 13.1991 15.9442H11.7703C11.7454 15.9442 11.7216 15.9344 11.7039 15.9169C11.6864 15.8992 11.6766 15.8754 11.6766 15.8505V14.4217C11.6767 14.3969 11.6866 14.3732 11.7042 14.3556C11.7217 14.3381 11.7455 14.3281 11.7703 14.328H12.4269C12.5015 14.328 12.5731 14.2984 12.6258 14.2456C12.6785 14.1929 12.7082 14.1213 12.7082 14.0467C12.7082 13.9722 12.6785 13.9006 12.6258 13.8479C12.5731 13.7951 12.5015 13.7655 12.4269 13.7655ZM4.61362 15.7661H7.43343C7.50802 15.7661 7.57956 15.7365 7.6323 15.6837C7.68505 15.631 7.71468 15.5595 7.71468 15.4849C7.71468 15.4103 7.68505 15.3387 7.6323 15.286C7.57956 15.2333 7.50802 15.2036 7.43343 15.2036H4.61362C4.53902 15.2036 4.46749 15.2333 4.41474 15.286C4.362 15.3387 4.33237 15.4103 4.33237 15.4849C4.33237 15.5595 4.362 15.631 4.41474 15.6837C4.46749 15.7365 4.53902 15.7661 4.61362 15.7661ZM12.6834 15.3351L14.3505 13.668C14.3774 13.6421 14.3988 13.611 14.4135 13.5767C14.4283 13.5424 14.436 13.5055 14.4363 13.4681C14.4367 13.4308 14.4296 13.3938 14.4154 13.3592C14.4013 13.3246 14.3804 13.2932 14.354 13.2668C14.3276 13.2404 14.2962 13.2195 14.2616 13.2054C14.227 13.1913 14.19 13.1841 14.1527 13.1845C14.1153 13.1848 14.0784 13.1925 14.0441 13.2073C14.0098 13.222 13.9787 13.2434 13.9528 13.2703L12.2857 14.9374C12.2331 14.9901 12.2035 15.0617 12.2035 15.1362C12.2035 15.2108 12.2331 15.2823 12.2857 15.3351C12.3385 15.3877 12.41 15.4173 12.4846 15.4173C12.5591 15.4173 12.6307 15.3877 12.6834 15.3351ZM4.61362 14.328H9.60505C9.67787 14.3253 9.74681 14.2945 9.79739 14.2421C9.84796 14.1896 9.87622 14.1196 9.87622 14.0467C9.87622 13.9739 9.84796 13.9039 9.79739 13.8514C9.74681 13.799 9.67787 13.7682 9.60505 13.7655H4.61362C4.53902 13.7655 4.46749 13.7951 4.41474 13.8479C4.362 13.9006 4.33237 13.9722 4.33237 14.0467C4.33237 14.1213 4.362 14.1929 4.41474 14.2456C4.46749 14.2984 4.53902 14.328 4.61362 14.328ZM12.4269 9.19987H11.7703C11.6841 9.19983 11.5988 9.21677 11.5191 9.24973C11.4395 9.28269 11.3671 9.33103 11.3062 9.39198C11.2452 9.45292 11.1969 9.52529 11.1639 9.60493C11.1309 9.68457 11.114 9.76993 11.1141 9.85612V11.2849C11.1142 11.4589 11.1833 11.6258 11.3064 11.7488C11.4294 11.8719 11.5963 11.941 11.7703 11.9411H13.1991C13.3731 11.9411 13.54 11.872 13.6631 11.7489C13.7862 11.6258 13.8553 11.4589 13.8553 11.2849V10.6284C13.8526 10.5556 13.8218 10.4867 13.7694 10.4361C13.7169 10.3855 13.6469 10.3573 13.5741 10.3573C13.5012 10.3573 13.4312 10.3855 13.3787 10.4361C13.3263 10.4867 13.2955 10.5556 13.2928 10.6284V11.2849C13.2928 11.3097 13.2829 11.3336 13.2653 11.3512C13.2478 11.3687 13.2239 11.3786 13.1991 11.3786H11.7703C11.7454 11.3786 11.7216 11.3688 11.7039 11.3512C11.6864 11.3336 11.6766 11.3097 11.6766 11.2849V9.85612C11.6767 9.83131 11.6866 9.80755 11.7042 9.79C11.7217 9.77245 11.7455 9.76252 11.7703 9.76237H12.4269C12.5015 9.76237 12.5731 9.73274 12.6258 9.68C12.6785 9.62725 12.7082 9.55572 12.7082 9.48112C12.7082 9.40653 12.6785 9.335 12.6258 9.28225C12.5731 9.22951 12.5015 9.19987 12.4269 9.19987ZM4.61362 11.2005H7.43343C7.50802 11.2005 7.57956 11.1709 7.6323 11.1181C7.68505 11.0654 7.71468 10.9938 7.71468 10.9192C7.71468 10.8447 7.68505 10.7731 7.6323 10.7204C7.57956 10.6676 7.50802 10.638 7.43343 10.638H4.61362C4.5408 10.6407 4.47186 10.6715 4.42128 10.7239C4.37071 10.7764 4.34245 10.8464 4.34245 10.9192C4.34245 10.9921 4.37071 11.0621 4.42128 11.1146C4.47186 11.167 4.5408 11.1978 4.61362 11.2005ZM12.6834 10.7694L14.3505 9.10237C14.3774 9.07643 14.3988 9.04539 14.4135 9.01108C14.4283 8.97677 14.436 8.93986 14.4363 8.90252C14.4367 8.86517 14.4296 8.82814 14.4154 8.79358C14.4013 8.75901 14.3804 8.72761 14.354 8.7012C14.3276 8.67479 14.2962 8.65391 14.2616 8.63977C14.227 8.62563 14.19 8.61851 14.1527 8.61884C14.1153 8.61916 14.0784 8.62692 14.0441 8.64166C14.0098 8.6564 13.9787 8.67782 13.9528 8.70469L12.2857 10.3717C12.2331 10.4245 12.2035 10.496 12.2035 10.5706C12.2035 10.6452 12.2331 10.7167 12.2857 10.7694C12.3385 10.8221 12.41 10.8517 12.4846 10.8517C12.5591 10.8517 12.6307 10.8221 12.6834 10.7694ZM4.61362 9.76237H9.60505C9.67787 9.75972 9.74681 9.72892 9.79739 9.67647C9.84796 9.62401 9.87622 9.55399 9.87622 9.48112C9.87622 9.40826 9.84796 9.33824 9.79739 9.28578C9.74681 9.23333 9.67787 9.20253 9.60505 9.19987H4.61362C4.5408 9.20253 4.47186 9.23333 4.42128 9.28578C4.37071 9.33824 4.34245 9.40826 4.34245 9.48112C4.34245 9.55399 4.37071 9.62401 4.42128 9.67647C4.47186 9.72892 4.5408 9.75972 4.61362 9.76237ZM12.4269 4.63425H11.7703C11.5963 4.6344 11.4294 4.70361 11.3064 4.82669C11.1833 4.94977 11.1142 5.11665 11.1141 5.29069V6.71925C11.1142 6.89327 11.1833 7.06013 11.3064 7.18318C11.4294 7.30623 11.5963 7.3754 11.7703 7.3755H13.1991C13.3731 7.3755 13.54 7.30636 13.6631 7.18329C13.7862 7.06022 13.8553 6.8933 13.8553 6.71925V6.06281C13.8526 5.99 13.8218 5.92105 13.7694 5.87048C13.7169 5.8199 13.6469 5.79165 13.5741 5.79165C13.5012 5.79165 13.4312 5.8199 13.3787 5.87048C13.3263 5.92105 13.2955 5.99 13.2928 6.06281V6.71925C13.2928 6.74411 13.2829 6.76796 13.2653 6.78554C13.2478 6.80312 13.2239 6.813 13.1991 6.813H11.7703C11.7454 6.81296 11.7216 6.80313 11.7039 6.78562C11.6864 6.76796 11.6766 6.74411 11.6766 6.71925V5.29069C11.6767 5.26585 11.6866 5.24207 11.7042 5.22449C11.7217 5.20691 11.7455 5.19695 11.7703 5.19675H12.4269C12.5015 5.19675 12.5731 5.16712 12.6258 5.11437C12.6785 5.06163 12.7082 4.99009 12.7082 4.9155C12.7082 4.84091 12.6785 4.76937 12.6258 4.71663C12.5731 4.66388 12.5015 4.63425 12.4269 4.63425ZM4.61362 6.63487H7.43343C7.50802 6.63487 7.57956 6.60524 7.6323 6.5525C7.68505 6.49975 7.71468 6.42822 7.71468 6.35362C7.71468 6.27903 7.68505 6.2075 7.6323 6.15475C7.57956 6.10201 7.50802 6.07237 7.43343 6.07237H4.61362C4.5408 6.07503 4.47186 6.10583 4.42128 6.15828C4.37071 6.21074 4.34245 6.28076 4.34245 6.35362C4.34245 6.42649 4.37071 6.49651 4.42128 6.54897C4.47186 6.60142 4.5408 6.63222 4.61362 6.63487ZM12.6834 6.20381L14.3505 4.53675C14.3774 4.51081 14.3988 4.47977 14.4135 4.44546C14.4283 4.41114 14.436 4.37424 14.4363 4.33689C14.4367 4.29955 14.4296 4.26251 14.4154 4.22795C14.4013 4.19339 14.3804 4.16198 14.354 4.13558C14.3276 4.10917 14.2962 4.08828 14.2616 4.07414C14.227 4.06 14.19 4.05289 14.1527 4.05321C14.1153 4.05353 14.0784 4.06129 14.0441 4.07603C14.0098 4.09077 13.9787 4.1122 13.9528 4.13906L12.2857 5.80612C12.2331 5.85889 12.2035 5.93041 12.2035 6.00497C12.2035 6.07953 12.2331 6.15105 12.2857 6.20381C12.3385 6.25649 12.41 6.28608 12.4846 6.28608C12.5591 6.28608 12.6307 6.25649 12.6834 6.20381ZM4.61362 5.19675H9.60505C9.67787 5.19409 9.74681 5.16329 9.79739 5.11084C9.84796 5.05839 9.87622 4.98836 9.87622 4.9155C9.87622 4.84264 9.84796 4.77261 9.79739 4.72016C9.74681 4.6677 9.67787 4.63691 9.60505 4.63425H4.61362C4.5408 4.63691 4.47186 4.6677 4.42128 4.72016C4.37071 4.77261 4.34245 4.84264 4.34245 4.9155C4.34245 4.98836 4.37071 5.05839 4.42128 5.11084C4.47186 5.16329 4.5408 5.19409 4.61362 5.19675ZM11.583 1.34531H11.5836C11.6184 1.34531 11.6466 1.37362 11.6466 1.40831V2.31056C11.6466 2.33543 11.6367 2.35927 11.6191 2.37685C11.6015 2.39444 11.5777 2.40431 11.5528 2.40431H7.11355C7.08869 2.40431 7.06484 2.39444 7.04726 2.37685C7.02968 2.35927 7.0198 2.33543 7.0198 2.31056V1.40831C7.0198 1.37362 7.04793 1.34531 7.0828 1.34531H7.08337C7.24926 1.34531 7.40836 1.27941 7.52566 1.16211C7.64297 1.0448 7.70887 0.885705 7.70887 0.719812V0.71925C7.70887 0.684375 7.73699 0.65625 7.77187 0.65625H10.8945C10.9294 0.65625 10.9575 0.684375 10.9575 0.71925V0.719812C10.9575 0.885705 11.0234 1.0448 11.1407 1.16211C11.258 1.27941 11.4171 1.34531 11.583 1.34531Z" fill="white"/>
<path fill-rule="evenodd" clip-rule="evenodd" d="M12.2091 1.81144H15.4603C15.5349 1.81144 15.6064 1.84107 15.6592 1.89381C15.7119 1.94656 15.7416 2.0181 15.7416 2.09269V17.0625C15.7416 17.1371 15.7119 17.2086 15.6592 17.2614C15.6064 17.3141 15.5349 17.3437 15.4603 17.3437H3.20605C3.13146 17.3437 3.05993 17.3141 3.00718 17.2614C2.95444 17.2086 2.9248 17.1371 2.9248 17.0625V2.09269C2.9248 2.0181 2.95444 1.94656 3.00718 1.89381C3.05993 1.84107 3.13146 1.81144 3.20605 1.81144H5.80105C5.87387 1.80878 5.94281 1.77798 5.99339 1.72553C6.04396 1.67307 6.07222 1.60305 6.07222 1.53019C6.07222 1.45732 6.04396 1.3873 5.99339 1.33485C5.94281 1.28239 5.87387 1.2516 5.80105 1.24894H3.20605C2.98228 1.24894 2.76767 1.33783 2.60943 1.49607C2.4512 1.6543 2.3623 1.86891 2.3623 2.09269V17.0625C2.3623 17.2863 2.4512 17.5009 2.60943 17.6591C2.76767 17.8174 2.98228 17.9062 3.20605 17.9062H15.4603C15.6841 17.9062 15.8987 17.8174 16.0569 17.6591C16.2152 17.5009 16.3041 17.2863 16.3041 17.0625V2.09269C16.3041 1.86891 16.2152 1.6543 16.0569 1.49607C15.8987 1.33783 15.6841 1.24894 15.4603 1.24894H12.1886C12.1534 1.11535 12.0749 0.997194 11.9654 0.912878C11.856 0.828562 11.7217 0.782831 11.5836 0.782812H11.583C11.5663 0.782812 11.5503 0.776175 11.5384 0.76436C11.5266 0.752545 11.52 0.736521 11.52 0.719812V0.71925C11.52 0.637108 11.5038 0.555771 11.4724 0.479881C11.4409 0.403992 11.3949 0.335038 11.3368 0.276955C11.2787 0.218872 11.2097 0.172798 11.1339 0.141363C11.058 0.109929 10.9766 0.09375 10.8945 0.09375H7.77187C7.60597 0.09375 7.44688 0.159651 7.32957 0.276955C7.21227 0.394259 7.14637 0.553357 7.14637 0.71925V0.719812C7.14637 0.736521 7.13973 0.752545 7.12791 0.76436C7.1161 0.776175 7.10008 0.782812 7.08337 0.782812H7.0828C6.91691 0.782812 6.75781 0.848713 6.64051 0.966017C6.5232 1.08332 6.4573 1.24242 6.4573 1.40831V2.31056C6.4573 2.48461 6.52644 2.65153 6.64952 2.7746C6.77259 2.89767 6.93951 2.96681 7.11355 2.96681H11.5528C11.7269 2.96681 11.8938 2.89767 12.0168 2.7746C12.1399 2.65153 12.2091 2.48461 12.2091 2.31056V1.81144ZM12.4269 13.7655H11.7703C11.6841 13.7654 11.5988 13.7824 11.5191 13.8154C11.4395 13.8483 11.3671 13.8967 11.3062 13.9576C11.2452 14.0185 11.1969 14.0909 11.1639 14.1706C11.1309 14.2502 11.114 14.3356 11.1141 14.4217V15.8505C11.1142 16.0245 11.1834 16.1913 11.3064 16.3144C11.4295 16.4374 11.5963 16.5066 11.7703 16.5068H13.1991C13.3731 16.5068 13.54 16.4376 13.6631 16.3145C13.7862 16.1915 13.8553 16.0245 13.8553 15.8505V15.1941C13.8526 15.1212 13.8218 15.0523 13.7694 15.0017C13.7169 14.9512 13.6469 14.9229 13.5741 14.9229C13.5012 14.9229 13.4312 14.9512 13.3787 15.0017C13.3263 15.0523 13.2955 15.1212 13.2928 15.1941V15.8505C13.2928 15.8754 13.2829 15.8992 13.2653 15.9168C13.2478 15.9344 13.2239 15.9442 13.1991 15.9442H11.7703C11.7454 15.9442 11.7216 15.9344 11.7039 15.9169C11.6864 15.8992 11.6766 15.8754 11.6766 15.8505V14.4217C11.6767 14.3969 11.6866 14.3732 11.7042 14.3556C11.7217 14.3381 11.7455 14.3281 11.7703 14.328H12.4269C12.5015 14.328 12.5731 14.2984 12.6258 14.2456C12.6785 14.1929 12.7082 14.1213 12.7082 14.0467C12.7082 13.9722 12.6785 13.9006 12.6258 13.8479C12.5731 13.7951 12.5015 13.7655 12.4269 13.7655ZM4.61362 15.7661H7.43343C7.50802 15.7661 7.57956 15.7365 7.6323 15.6837C7.68505 15.631 7.71468 15.5595 7.71468 15.4849C7.71468 15.4103 7.68505 15.3387 7.6323 15.286C7.57956 15.2333 7.50802 15.2036 7.43343 15.2036H4.61362C4.53902 15.2036 4.46749 15.2333 4.41474 15.286C4.362 15.3387 4.33237 15.4103 4.33237 15.4849C4.33237 15.5595 4.362 15.631 4.41474 15.6837C4.46749 15.7365 4.53902 15.7661 4.61362 15.7661ZM12.6834 15.3351L14.3505 13.668C14.3774 13.6421 14.3988 13.611 14.4135 13.5767C14.4283 13.5424 14.436 13.5055 14.4363 13.4681C14.4367 13.4308 14.4296 13.3938 14.4154 13.3592C14.4013 13.3246 14.3804 13.2932 14.354 13.2668C14.3276 13.2404 14.2962 13.2195 14.2616 13.2054C14.227 13.1913 14.19 13.1841 14.1527 13.1845C14.1153 13.1848 14.0784 13.1925 14.0441 13.2073C14.0098 13.222 13.9787 13.2434 13.9528 13.2703L12.2857 14.9374C12.2331 14.9901 12.2035 15.0617 12.2035 15.1362C12.2035 15.2108 12.2331 15.2823 12.2857 15.3351C12.3385 15.3877 12.41 15.4173 12.4846 15.4173C12.5591 15.4173 12.6307 15.3877 12.6834 15.3351ZM4.61362 14.328H9.60505C9.67787 14.3253 9.74681 14.2945 9.79739 14.2421C9.84796 14.1896 9.87622 14.1196 9.87622 14.0467C9.87622 13.9739 9.84796 13.9039 9.79739 13.8514C9.74681 13.799 9.67787 13.7682 9.60505 13.7655H4.61362C4.53902 13.7655 4.46749 13.7951 4.41474 13.8479C4.362 13.9006 4.33237 13.9722 4.33237 14.0467C4.33237 14.1213 4.362 14.1929 4.41474 14.2456C4.46749 14.2984 4.53902 14.328 4.61362 14.328ZM12.4269 9.19987H11.7703C11.6841 9.19983 11.5988 9.21677 11.5191 9.24973C11.4395 9.28269 11.3671 9.33103 11.3062 9.39198C11.2452 9.45292 11.1969 9.52529 11.1639 9.60493C11.1309 9.68457 11.114 9.76993 11.1141 9.85612V11.2849C11.1142 11.4589 11.1833 11.6258 11.3064 11.7488C11.4294 11.8719 11.5963 11.941 11.7703 11.9411H13.1991C13.3731 11.9411 13.54 11.872 13.6631 11.7489C13.7862 11.6258 13.8553 11.4589 13.8553 11.2849V10.6284C13.8526 10.5556 13.8218 10.4867 13.7694 10.4361C13.7169 10.3855 13.6469 10.3573 13.5741 10.3573C13.5012 10.3573 13.4312 10.3855 13.3787 10.4361C13.3263 10.4867 13.2955 10.5556 13.2928 10.6284V11.2849C13.2928 11.3097 13.2829 11.3336 13.2653 11.3512C13.2478 11.3687 13.2239 11.3786 13.1991 11.3786H11.7703C11.7454 11.3786 11.7216 11.3688 11.7039 11.3512C11.6864 11.3336 11.6766 11.3097 11.6766 11.2849V9.85612C11.6767 9.83131 11.6866 9.80755 11.7042 9.79C11.7217 9.77245 11.7455 9.76252 11.7703 9.76237H12.4269C12.5015 9.76237 12.5731 9.73274 12.6258 9.68C12.6785 9.62725 12.7082 9.55572 12.7082 9.48112C12.7082 9.40653 12.6785 9.335 12.6258 9.28225C12.5731 9.22951 12.5015 9.19987 12.4269 9.19987ZM4.61362 11.2005H7.43343C7.50802 11.2005 7.57956 11.1709 7.6323 11.1181C7.68505 11.0654 7.71468 10.9938 7.71468 10.9192C7.71468 10.8447 7.68505 10.7731 7.6323 10.7204C7.57956 10.6676 7.50802 10.638 7.43343 10.638H4.61362C4.5408 10.6407 4.47186 10.6715 4.42128 10.7239C4.37071 10.7764 4.34245 10.8464 4.34245 10.9192C4.34245 10.9921 4.37071 11.0621 4.42128 11.1146C4.47186 11.167 4.5408 11.1978 4.61362 11.2005ZM12.6834 10.7694L14.3505 9.10237C14.3774 9.07643 14.3988 9.04539 14.4135 9.01108C14.4283 8.97677 14.436 8.93986 14.4363 8.90252C14.4367 8.86517 14.4296 8.82814 14.4154 8.79358C14.4013 8.75901 14.3804 8.72761 14.354 8.7012C14.3276 8.67479 14.2962 8.65391 14.2616 8.63977C14.227 8.62563 14.19 8.61851 14.1527 8.61884C14.1153 8.61916 14.0784 8.62692 14.0441 8.64166C14.0098 8.6564 13.9787 8.67782 13.9528 8.70469L12.2857 10.3717C12.2331 10.4245 12.2035 10.496 12.2035 10.5706C12.2035 10.6452 12.2331 10.7167 12.2857 10.7694C12.3385 10.8221 12.41 10.8517 12.4846 10.8517C12.5591 10.8517 12.6307 10.8221 12.6834 10.7694ZM4.61362 9.76237H9.60505C9.67787 9.75972 9.74681 9.72892 9.79739 9.67647C9.84796 9.62401 9.87622 9.55399 9.87622 9.48112C9.87622 9.40826 9.84796 9.33824 9.79739 9.28578C9.74681 9.23333 9.67787 9.20253 9.60505 9.19987H4.61362C4.5408 9.20253 4.47186 9.23333 4.42128 9.28578C4.37071 9.33824 4.34245 9.40826 4.34245 9.48112C4.34245 9.55399 4.37071 9.62401 4.42128 9.67647C4.47186 9.72892 4.5408 9.75972 4.61362 9.76237ZM12.4269 4.63425H11.7703C11.5963 4.6344 11.4294 4.70361 11.3064 4.82669C11.1833 4.94977 11.1142 5.11665 11.1141 5.29069V6.71925C11.1142 6.89327 11.1833 7.06013 11.3064 7.18318C11.4294 7.30623 11.5963 7.3754 11.7703 7.3755H13.1991C13.3731 7.3755 13.54 7.30636 13.6631 7.18329C13.7862 7.06022 13.8553 6.8933 13.8553 6.71925V6.06281C13.8526 5.99 13.8218 5.92105 13.7694 5.87048C13.7169 5.8199 13.6469 5.79165 13.5741 5.79165C13.5012 5.79165 13.4312 5.8199 13.3787 5.87048C13.3263 5.92105 13.2955 5.99 13.2928 6.06281V6.71925C13.2928 6.74411 13.2829 6.76796 13.2653 6.78554C13.2478 6.80312 13.2239 6.813 13.1991 6.813H11.7703C11.7454 6.81296 11.7216 6.80313 11.7039 6.78562C11.6864 6.76796 11.6766 6.74411 11.6766 6.71925V5.29069C11.6767 5.26585 11.6866 5.24207 11.7042 5.22449C11.7217 5.20691 11.7455 5.19695 11.7703 5.19675H12.4269C12.5015 5.19675 12.5731 5.16712 12.6258 5.11437C12.6785 5.06163 12.7082 4.99009 12.7082 4.9155C12.7082 4.84091 12.6785 4.76937 12.6258 4.71663C12.5731 4.66388 12.5015 4.63425 12.4269 4.63425ZM4.61362 6.63487H7.43343C7.50802 6.63487 7.57956 6.60524 7.6323 6.5525C7.68505 6.49975 7.71468 6.42822 7.71468 6.35362C7.71468 6.27903 7.68505 6.2075 7.6323 6.15475C7.57956 6.10201 7.50802 6.07237 7.43343 6.07237H4.61362C4.5408 6.07503 4.47186 6.10583 4.42128 6.15828C4.37071 6.21074 4.34245 6.28076 4.34245 6.35362C4.34245 6.42649 4.37071 6.49651 4.42128 6.54897C4.47186 6.60142 4.5408 6.63222 4.61362 6.63487ZM12.6834 6.20381L14.3505 4.53675C14.3774 4.51081 14.3988 4.47977 14.4135 4.44546C14.4283 4.41114 14.436 4.37424 14.4363 4.33689C14.4367 4.29955 14.4296 4.26251 14.4154 4.22795C14.4013 4.19339 14.3804 4.16198 14.354 4.13558C14.3276 4.10917 14.2962 4.08828 14.2616 4.07414C14.227 4.06 14.19 4.05289 14.1527 4.05321C14.1153 4.05353 14.0784 4.06129 14.0441 4.07603C14.0098 4.09077 13.9787 4.1122 13.9528 4.13906L12.2857 5.80612C12.2331 5.85889 12.2035 5.93041 12.2035 6.00497C12.2035 6.07953 12.2331 6.15105 12.2857 6.20381C12.3385 6.25649 12.41 6.28608 12.4846 6.28608C12.5591 6.28608 12.6307 6.25649 12.6834 6.20381ZM4.61362 5.19675H9.60505C9.67787 5.19409 9.74681 5.16329 9.79739 5.11084C9.84796 5.05839 9.87622 4.98836 9.87622 4.9155C9.87622 4.84264 9.84796 4.77261 9.79739 4.72016C9.74681 4.6677 9.67787 4.63691 9.60505 4.63425H4.61362C4.5408 4.63691 4.47186 4.6677 4.42128 4.72016C4.37071 4.77261 4.34245 4.84264 4.34245 4.9155C4.34245 4.98836 4.37071 5.05839 4.42128 5.11084C4.47186 5.16329 4.5408 5.19409 4.61362 5.19675ZM11.583 1.34531H11.5836C11.6184 1.34531 11.6466 1.37362 11.6466 1.40831V2.31056C11.6466 2.33543 11.6367 2.35927 11.6191 2.37685C11.6015 2.39444 11.5777 2.40431 11.5528 2.40431H7.11355C7.08869 2.40431 7.06484 2.39444 7.04726 2.37685C7.02968 2.35927 7.0198 2.33543 7.0198 2.31056V1.40831C7.0198 1.37362 7.04793 1.34531 7.0828 1.34531H7.08337C7.24926 1.34531 7.40836 1.27941 7.52566 1.16211C7.64297 1.0448 7.70887 0.885705 7.70887 0.719812V0.71925C7.70887 0.684375 7.73699 0.65625 7.77187 0.65625H10.8945C10.9294 0.65625 10.9575 0.684375 10.9575 0.71925V0.719812C10.9575 0.885705 11.0234 1.0448 11.1407 1.16211C11.258 1.27941 11.4171 1.34531 11.583 1.34531Z" stroke="white" stroke-width="0.4" mask="url(#path-1-outside-1_1_574)"/>
</g>
<defs>
<clipPath id="clip0_1_574">
<rect width="18" height="18" fill="white" transform="translate(0.333252)"/>
</clipPath>
</defs>
</svg>
