<svg width="16" height="21" viewBox="0 0 16 21" fill="none" xmlns="http://www.w3.org/2000/svg">
<path fill-rule="evenodd" clip-rule="evenodd" d="M11.195 2.51401H14.8075C14.8904 2.51401 14.9698 2.54693 15.0285 2.60554C15.0871 2.66414 15.12 2.74363 15.12 2.82651V19.4596C15.12 19.5425 15.0871 19.622 15.0285 19.6806C14.9698 19.7392 14.8904 19.7721 14.8075 19.7721H1.19165C1.10877 19.7721 1.02928 19.7392 0.970679 19.6806C0.912074 19.622 0.87915 19.5425 0.87915 19.4596V2.82651C0.87915 2.74363 0.912074 2.66414 0.970679 2.60554C1.02928 2.54693 1.10877 2.51401 1.19165 2.51401H4.07498C4.15589 2.51106 4.2325 2.47684 4.28869 2.41856C4.34488 2.36027 4.37628 2.28247 4.37628 2.20151C4.37628 2.12055 4.34488 2.04275 4.28869 1.98446C4.2325 1.92618 4.15589 1.89197 4.07498 1.88901H1.19165C0.94301 1.88901 0.704553 1.98778 0.528738 2.1636C0.352922 2.33941 0.25415 2.57787 0.25415 2.82651V19.4596C0.25415 19.7083 0.352922 19.9467 0.528738 20.1225C0.704553 20.2984 0.94301 20.3971 1.19165 20.3971H14.8075C15.0561 20.3971 15.2946 20.2984 15.4704 20.1225C15.6462 19.9467 15.745 19.7083 15.745 19.4596V2.82651C15.745 2.57787 15.6462 2.33941 15.4704 2.1636C15.2946 1.98778 15.0561 1.88901 14.8075 1.88901H11.1723C11.1331 1.74058 11.0459 1.6093 10.9243 1.51561C10.8027 1.42193 10.6535 1.37111 10.5 1.37109H10.4994C10.4808 1.37109 10.463 1.36372 10.4499 1.35059C10.4367 1.33746 10.4294 1.31966 10.4294 1.30109V1.30047C10.4294 1.2092 10.4114 1.11883 10.3765 1.0345C10.3415 0.950182 10.2903 0.873566 10.2258 0.80903C10.1613 0.744493 10.0846 0.693299 10.0003 0.658372C9.916 0.623445 9.82563 0.605469 9.73436 0.605469H6.26478C6.08045 0.605469 5.90367 0.678692 5.77334 0.80903C5.643 0.939367 5.56978 1.11614 5.56978 1.30047V1.30109C5.56978 1.31966 5.5624 1.33746 5.54927 1.35059C5.53615 1.36372 5.51834 1.37109 5.49977 1.37109H5.49915C5.31482 1.37109 5.13805 1.44432 5.00771 1.57465C4.87737 1.70499 4.80415 1.88177 4.80415 2.06609V3.06859C4.80415 3.26198 4.88097 3.44745 5.01772 3.58419C5.15446 3.72094 5.33993 3.79776 5.53332 3.79776H10.4658C10.6592 3.79776 10.8447 3.72094 10.9814 3.58419C11.1182 3.44745 11.195 3.26198 11.195 3.06859V2.51401ZM11.4371 15.7963H10.7075C10.6117 15.7962 10.5169 15.8151 10.4284 15.8517C10.3399 15.8883 10.2595 15.942 10.1918 16.0097C10.124 16.0775 10.0703 16.1579 10.0337 16.2464C9.99709 16.3349 9.97826 16.4297 9.97832 16.5255V18.113C9.97848 18.3063 10.0554 18.4917 10.1921 18.6284C10.3288 18.7651 10.5141 18.842 10.7075 18.8421H12.295C12.4884 18.8421 12.6738 18.7653 12.8106 18.6286C12.9473 18.4918 13.0242 18.3064 13.0242 18.113V17.3836C13.0212 17.3027 12.987 17.2261 12.9287 17.1699C12.8704 17.1137 12.7926 17.0823 12.7117 17.0823C12.6307 17.0823 12.5529 17.1137 12.4946 17.1699C12.4363 17.2261 12.4021 17.3027 12.3992 17.3836V18.113C12.3992 18.1406 12.3882 18.1671 12.3686 18.1866C12.3491 18.2062 12.3226 18.2171 12.295 18.2171H10.7075C10.6799 18.2171 10.6534 18.2062 10.6337 18.1867C10.6143 18.1671 10.6034 18.1406 10.6033 18.113V16.5255C10.6035 16.4979 10.6145 16.4715 10.634 16.452C10.6535 16.4325 10.6799 16.4215 10.7075 16.4213H11.4371C11.5199 16.4213 11.5994 16.3884 11.658 16.3298C11.7166 16.2712 11.7496 16.1917 11.7496 16.1088C11.7496 16.0259 11.7166 15.9464 11.658 15.8878C11.5994 15.8292 11.5199 15.7963 11.4371 15.7963ZM2.75561 18.0192H5.88873C5.97161 18.0192 6.0511 17.9863 6.1097 17.9277C6.16831 17.8691 6.20123 17.7896 6.20123 17.7067C6.20123 17.6238 6.16831 17.5444 6.1097 17.4857C6.0511 17.4271 5.97161 17.3942 5.88873 17.3942H2.75561C2.67273 17.3942 2.59324 17.4271 2.53464 17.4857C2.47603 17.5444 2.44311 17.6238 2.44311 17.7067C2.44311 17.7896 2.47603 17.8691 2.53464 17.9277C2.59324 17.9863 2.67273 18.0192 2.75561 18.0192ZM11.7221 17.5403L13.5744 15.688C13.6042 15.6591 13.628 15.6247 13.6444 15.5865C13.6608 15.5484 13.6694 15.5074 13.6697 15.4659C13.6701 15.4244 13.6622 15.3833 13.6465 15.3449C13.6308 15.3065 13.6076 15.2716 13.5782 15.2422C13.5489 15.2129 13.514 15.1897 13.4756 15.174C13.4372 15.1582 13.396 15.1503 13.3545 15.1507C13.3131 15.1511 13.272 15.1597 13.2339 15.1761C13.1958 15.1924 13.1613 15.2162 13.1325 15.2461L11.2802 17.0984C11.2217 17.157 11.1888 17.2365 11.1888 17.3193C11.1888 17.4022 11.2217 17.4816 11.2802 17.5403C11.3388 17.5988 11.4183 17.6317 11.5011 17.6317C11.584 17.6317 11.6634 17.5988 11.7221 17.5403ZM2.75561 16.4213H8.30165C8.38256 16.4183 8.45916 16.3841 8.51536 16.3258C8.57155 16.2676 8.60295 16.1898 8.60295 16.1088C8.60295 16.0278 8.57155 15.95 8.51536 15.8918C8.45916 15.8335 8.38256 15.7993 8.30165 15.7963H2.75561C2.67273 15.7963 2.59324 15.8292 2.53464 15.8878C2.47603 15.9464 2.44311 16.0259 2.44311 16.1088C2.44311 16.1917 2.47603 16.2712 2.53464 16.3298C2.59324 16.3884 2.67273 16.4213 2.75561 16.4213ZM11.4371 10.7234H10.7075C10.6117 10.7233 10.5169 10.7422 10.4284 10.7788C10.3399 10.8154 10.2595 10.8691 10.1918 10.9368C10.124 11.0045 10.0703 11.085 10.0337 11.1734C9.99709 11.2619 9.97826 11.3568 9.97832 11.4526V13.0401C9.97843 13.2334 10.0553 13.4188 10.192 13.5555C10.3287 13.6922 10.5141 13.7691 10.7075 13.7692H12.295C12.4884 13.7692 12.6738 13.6924 12.8106 13.5556C12.9473 13.4189 13.0242 13.2334 13.0242 13.0401V12.3107C13.0212 12.2298 12.987 12.1532 12.9287 12.097C12.8704 12.0408 12.7926 12.0094 12.7117 12.0094C12.6307 12.0094 12.5529 12.0408 12.4946 12.097C12.4363 12.1532 12.4021 12.2298 12.3992 12.3107V13.0401C12.3992 13.0677 12.3882 13.0942 12.3686 13.1137C12.3491 13.1332 12.3226 13.1442 12.295 13.1442H10.7075C10.6799 13.1442 10.6534 13.1332 10.6337 13.1138C10.6143 13.0942 10.6034 13.0677 10.6033 13.0401V11.4526C10.6035 11.425 10.6145 11.3986 10.634 11.3791C10.6535 11.3596 10.6799 11.3485 10.7075 11.3484H11.4371C11.5199 11.3484 11.5994 11.3155 11.658 11.2569C11.7166 11.1982 11.7496 11.1188 11.7496 11.0359C11.7496 10.953 11.7166 10.8735 11.658 10.8149C11.5994 10.7563 11.5199 10.7234 11.4371 10.7234ZM2.75561 12.9463H5.88873C5.97161 12.9463 6.0511 12.9134 6.1097 12.8548C6.16831 12.7962 6.20123 12.7167 6.20123 12.6338C6.20123 12.5509 6.16831 12.4714 6.1097 12.4128C6.0511 12.3542 5.97161 12.3213 5.88873 12.3213H2.75561C2.6747 12.3243 2.5981 12.3585 2.5419 12.4168C2.48571 12.475 2.45431 12.5528 2.45431 12.6338C2.45431 12.7148 2.48571 12.7926 2.5419 12.8508C2.5981 12.9091 2.6747 12.9433 2.75561 12.9463ZM11.7221 12.4673L13.5744 10.6151C13.6042 10.5862 13.628 10.5517 13.6444 10.5136C13.6608 10.4755 13.6694 10.4345 13.6697 10.393C13.6701 10.3515 13.6622 10.3103 13.6465 10.2719C13.6308 10.2335 13.6076 10.1986 13.5782 10.1693C13.5489 10.14 13.514 10.1168 13.4756 10.101C13.4372 10.0853 13.396 10.0774 13.3545 10.0778C13.3131 10.0781 13.272 10.0868 13.2339 10.1031C13.1958 10.1195 13.1613 10.1433 13.1325 10.1732L11.2802 12.0255C11.2217 12.0841 11.1888 12.1636 11.1888 12.2464C11.1888 12.3293 11.2217 12.4087 11.2802 12.4673C11.3388 12.5259 11.4183 12.5588 11.5011 12.5588C11.584 12.5588 11.6634 12.5259 11.7221 12.4673ZM2.75561 11.3484H8.30165C8.38256 11.3454 8.45916 11.3112 8.51536 11.2529C8.57155 11.1946 8.60295 11.1168 8.60295 11.0359C8.60295 10.9549 8.57155 10.8771 8.51536 10.8188C8.45916 10.7606 8.38256 10.7263 8.30165 10.7234H2.75561C2.6747 10.7263 2.5981 10.7606 2.5419 10.8188C2.48571 10.8771 2.45431 10.9549 2.45431 11.0359C2.45431 11.1168 2.48571 11.1946 2.5419 11.2529C2.5981 11.3112 2.6747 11.3454 2.75561 11.3484ZM11.4371 5.65047H10.7075C10.5141 5.65063 10.3287 5.72754 10.192 5.86429C10.0553 6.00105 9.97843 6.18647 9.97832 6.37984V7.96713C9.97843 8.16049 10.0553 8.34589 10.192 8.48261C10.3287 8.61933 10.5141 8.69619 10.7075 8.6963H12.295C12.4884 8.6963 12.6738 8.61948 12.8106 8.48273C12.9473 8.34599 13.0242 8.16052 13.0242 7.96713V7.23776C13.0212 7.15685 12.987 7.08025 12.9287 7.02406C12.8704 6.96786 12.7926 6.93646 12.7117 6.93646C12.6307 6.93646 12.5529 6.96786 12.4946 7.02406C12.4363 7.08025 12.4021 7.15685 12.3992 7.23776V7.96713C12.3992 7.99476 12.3882 8.02126 12.3686 8.04079C12.3491 8.06033 12.3226 8.0713 12.295 8.0713H10.7075C10.6799 8.07126 10.6534 8.06033 10.6337 8.04088C10.6143 8.02126 10.6034 7.99476 10.6033 7.96713V6.37984C10.6035 6.35225 10.6145 6.32583 10.634 6.30629C10.6535 6.28676 10.6799 6.27569 10.7075 6.27547H11.4371C11.5199 6.27547 11.5994 6.24254 11.658 6.18394C11.7166 6.12533 11.7496 6.04585 11.7496 5.96297C11.7496 5.88009 11.7166 5.8006 11.658 5.742C11.5994 5.68339 11.5199 5.65047 11.4371 5.65047ZM2.75561 7.87338H5.88873C5.97161 7.87338 6.0511 7.84046 6.1097 7.78186C6.16831 7.72325 6.20123 7.64377 6.20123 7.56088C6.20123 7.478 6.16831 7.39852 6.1097 7.33991C6.0511 7.28131 5.97161 7.24838 5.88873 7.24838H2.75561C2.6747 7.25134 2.5981 7.28556 2.5419 7.34384C2.48571 7.40212 2.45431 7.47993 2.45431 7.56088C2.45431 7.64184 2.48571 7.71965 2.5419 7.77793C2.5981 7.83621 2.6747 7.87043 2.75561 7.87338ZM11.7221 7.39443L13.5744 5.54213C13.6042 5.51331 13.628 5.47883 13.6444 5.4407C13.6608 5.40257 13.6694 5.36157 13.6697 5.32007C13.6701 5.27858 13.6622 5.23743 13.6465 5.19902C13.6308 5.16062 13.6076 5.12573 13.5782 5.09639C13.5489 5.06705 13.514 5.04384 13.4756 5.02813C13.4372 5.01242 13.396 5.00451 13.3545 5.00487C13.3131 5.00523 13.272 5.01385 13.2339 5.03023C13.1958 5.04661 13.1613 5.07041 13.1325 5.10026L11.2802 6.95255C11.2217 7.01118 11.1888 7.09064 11.1888 7.17349C11.1888 7.25634 11.2217 7.3358 11.2802 7.39443C11.3388 7.45296 11.4183 7.48584 11.5011 7.48584C11.584 7.48584 11.6634 7.45296 11.7221 7.39443ZM2.75561 6.27547H8.30165C8.38256 6.27251 8.45916 6.2383 8.51536 6.18001C8.57155 6.12173 8.60295 6.04393 8.60295 5.96297C8.60295 5.88201 8.57155 5.8042 8.51536 5.74592C8.45916 5.68764 8.38256 5.65342 8.30165 5.65047H2.75561C2.6747 5.65342 2.5981 5.68764 2.5419 5.74592C2.48571 5.8042 2.45431 5.88201 2.45431 5.96297C2.45431 6.04393 2.48571 6.12173 2.5419 6.18001C2.5981 6.2383 2.6747 6.27251 2.75561 6.27547ZM10.4994 1.99609H10.5C10.5387 1.99609 10.57 2.02755 10.57 2.06609V3.06859C10.57 3.09622 10.559 3.12272 10.5395 3.14225C10.5199 3.16179 10.4934 3.17276 10.4658 3.17276H5.53332C5.50569 3.17276 5.4792 3.16179 5.45966 3.14225C5.44012 3.12272 5.42915 3.09622 5.42915 3.06859V2.06609C5.42915 2.02755 5.4604 1.99609 5.49915 1.99609H5.49977C5.6841 1.99609 5.86088 1.92287 5.99121 1.79253C6.12155 1.6622 6.19478 1.48542 6.19478 1.30109V1.30047C6.19478 1.26172 6.22603 1.23047 6.26478 1.23047H9.73436C9.77311 1.23047 9.80436 1.26172 9.80436 1.30047V1.30109C9.80436 1.48542 9.87758 1.6622 10.0079 1.79253C10.1383 1.92287 10.315 1.99609 10.4994 1.99609Z" fill="#737791"/>
</svg>
