<svg width="19" height="18" viewBox="0 0 19 18" fill="none" xmlns="http://www.w3.org/2000/svg">
<path d="M10.7917 7.3125C10.7917 7.16332 10.7325 7.02024 10.627 6.91475C10.5215 6.80926 10.3784 6.75 10.2292 6.75H5.72925C5.58006 6.75 5.43699 6.80926 5.3315 6.91475C5.22601 7.02024 5.16675 7.16332 5.16675 7.3125C5.16675 7.46168 5.22601 7.60476 5.3315 7.71025C5.43699 7.81574 5.58006 7.875 5.72925 7.875H10.2292C10.3784 7.875 10.5215 7.81574 10.627 7.71025C10.7325 7.60476 10.7917 7.46168 10.7917 7.3125ZM10.0417 9.5625C10.0417 9.41332 9.98248 9.27024 9.877 9.16475C9.77151 9.05926 9.62843 9 9.47925 9H5.72925C5.58006 9 5.43699 9.05926 5.3315 9.16475C5.22601 9.27024 5.16675 9.41332 5.16675 9.5625C5.16675 9.71168 5.22601 9.85476 5.3315 9.96025C5.43699 10.0657 5.58006 10.125 5.72925 10.125H9.47925C9.62843 10.125 9.77151 10.0657 9.877 9.96025C9.98248 9.85476 10.0417 9.71168 10.0417 9.5625ZM10.2292 11.25C10.3784 11.25 10.5215 11.3093 10.627 11.4148C10.7325 11.5202 10.7917 11.6633 10.7917 11.8125C10.7917 11.9617 10.7325 12.1048 10.627 12.2102C10.5215 12.3157 10.3784 12.375 10.2292 12.375H5.72925C5.58006 12.375 5.43699 12.3157 5.3315 12.2102C5.22601 12.1048 5.16675 11.9617 5.16675 11.8125C5.16675 11.6633 5.22601 11.5202 5.3315 11.4148C5.43699 11.3093 5.58006 11.25 5.72925 11.25H10.2292Z" fill="white"/>
<path fill-rule="evenodd" clip-rule="evenodd" d="M5.16675 16.3125H14.9167C15.4638 16.3125 15.9884 16.0952 16.3752 15.7084C16.7619 15.3216 16.9792 14.797 16.9792 14.25V10.125C16.9792 9.97584 16.92 9.83277 16.8145 9.72728C16.709 9.62179 16.5659 9.56253 16.4167 9.56253H13.9792V3.70728C13.9792 2.64003 12.7725 2.01903 11.904 2.63928L11.7727 2.73303C11.4853 2.93705 11.1415 3.0464 10.789 3.04586C10.4366 3.04532 10.093 2.93492 9.80625 2.73003C9.32746 2.38928 8.75441 2.20618 8.16675 2.20618C7.57909 2.20618 7.00603 2.38928 6.52725 2.73003C6.24046 2.93492 5.89694 3.04532 5.54448 3.04586C5.19202 3.0464 4.84816 2.93705 4.56075 2.73303L4.4295 2.63928C3.561 2.01903 2.35425 2.63928 2.35425 3.70728V13.5C2.35425 14.2459 2.65056 14.9613 3.17801 15.4888C3.70546 16.0162 4.42083 16.3125 5.16675 16.3125ZM7.18125 3.64503C7.46921 3.44061 7.81361 3.3308 8.16675 3.3308C8.51989 3.3308 8.86429 3.44061 9.15225 3.64503C9.62978 3.98637 10.2019 4.17019 10.7889 4.17086C11.3759 4.17153 11.9484 3.98902 12.4267 3.64878L12.558 3.55503C12.586 3.53508 12.619 3.52323 12.6533 3.52075C12.6876 3.51828 12.7219 3.52529 12.7525 3.541C12.783 3.55672 12.8087 3.58054 12.8267 3.60987C12.8446 3.6392 12.8542 3.67289 12.8542 3.70728V14.25C12.8542 14.5875 12.9352 14.9063 13.0792 15.1875H5.16675C4.7192 15.1875 4.28997 15.0097 3.97351 14.6933C3.65704 14.3768 3.47925 13.9476 3.47925 13.5V3.70728C3.47934 3.67289 3.48888 3.6392 3.50683 3.60987C3.52479 3.58054 3.55046 3.55672 3.58104 3.541C3.61162 3.52529 3.64594 3.51828 3.68024 3.52075C3.71453 3.52323 3.74749 3.53508 3.7755 3.55503L3.90675 3.64878C4.38506 3.98902 4.95762 4.17153 5.5446 4.17086C6.13158 4.17019 6.70372 3.98637 7.18125 3.64503ZM13.9792 14.25V10.6875H15.8542V14.25C15.8542 14.4987 15.7555 14.7371 15.5797 14.9129C15.4038 15.0888 15.1654 15.1875 14.9167 15.1875C14.6681 15.1875 14.4297 15.0888 14.2538 14.9129C14.078 14.7371 13.9792 14.4987 13.9792 14.25Z" fill="white"/>
</svg>
