<svg width="20" height="21" viewBox="0 0 20 21" fill="none" xmlns="http://www.w3.org/2000/svg">
<path d="M19.6642 10.0883L18.3233 7.13703C18.1574 6.7731 17.8905 6.46448 17.5543 6.24791C17.218 6.03133 16.8266 5.9159 16.4267 5.91536H13.75V5.08203C13.75 4.39286 13.1892 3.83203 12.5 3.83203H1.25C0.560833 3.83203 0 4.39286 0 5.08203V14.2487C0 14.9379 0.560833 15.4987 1.25 15.4987H2.10458C2.20958 16.4337 2.99583 17.1654 3.95833 17.1654C4.92083 17.1654 5.70708 16.4337 5.81208 15.4987H14.1875C14.2925 16.4337 15.0787 17.1654 16.0413 17.1654C17.0037 17.1654 17.79 16.4337 17.895 15.4987H18.7496C19.4387 15.4987 19.9996 14.9379 19.9996 14.2487V11.6395C20.0004 11.1043 19.8863 10.5752 19.6642 10.0883ZM18.7458 10.0816H16.25V8.41495H17.9888L18.7458 10.0816ZM16.4267 6.74828C16.9158 6.74828 17.3625 7.03578 17.5646 7.4812L17.61 7.58161H16.25C15.7904 7.58161 15.4167 7.95536 15.4167 8.41495V10.0816C15.4167 10.5412 15.7904 10.9149 16.25 10.9149H19.0717C19.1321 11.1504 19.1667 11.392 19.1667 11.6391V12.9983H13.75V6.74828H16.4267ZM14.2817 14.6649H13.75V13.8316H14.8775C14.6052 14.0485 14.3988 14.3371 14.2817 14.6649ZM5.1225 13.8316H12.9167V14.6649H5.71833C5.60118 14.3371 5.39482 14.0485 5.1225 13.8316ZM1.25 4.66495H12.5C12.7296 4.66495 12.9167 4.85203 12.9167 5.08161V12.9983H0.833333V5.08161C0.833333 4.85203 1.02042 4.66495 1.25 4.66495ZM2.19833 14.6649H1.25C1.02042 14.6649 0.833333 14.4779 0.833333 14.2483V13.8316H2.79417C2.52184 14.0485 2.31548 14.3371 2.19833 14.6649ZM3.95833 16.3316C3.38417 16.3316 2.91667 15.8641 2.91667 15.2899C2.91667 14.7158 3.38417 14.2483 3.95833 14.2483C4.5325 14.2483 5 14.7158 5 15.2899C5 15.8641 4.5325 16.3316 3.95833 16.3316ZM16.0417 16.3316C15.4675 16.3316 15 15.8641 15 15.2899C15 14.7158 15.4675 14.2483 16.0417 14.2483C16.6158 14.2483 17.0833 14.7158 17.0833 15.2899C17.0833 15.8641 16.6158 16.3316 16.0417 16.3316ZM18.75 14.6649H17.8017C17.6845 14.3371 17.4782 14.0485 17.2058 13.8316H19.1667V14.2483C19.1667 14.4779 18.9796 14.6649 18.75 14.6649Z" fill="#737791"/>
</svg>
