<svg width="56" height="56" viewBox="0 0 56 56" fill="none" xmlns="http://www.w3.org/2000/svg">
<path d="M48.3074 12.9337L27.3074 3.60041C27.1581 3.5342 26.9967 3.5 26.8334 3.5C26.6701 3.5 26.5087 3.5342 26.3594 3.60041L5.35942 12.9337C5.15325 13.0254 4.97809 13.1749 4.85515 13.3641C4.73222 13.5533 4.66677 13.7741 4.66675 13.9998V39.6665C4.66677 39.8921 4.73222 40.1129 4.85515 40.3021C4.97809 40.4913 5.15325 40.6409 5.35942 40.7326L26.3594 50.0659C26.5086 50.1322 26.6701 50.1664 26.8334 50.1664C26.9967 50.1664 27.1582 50.1322 27.3074 50.0659L48.3074 40.7326C48.5135 40.6409 48.6887 40.4913 48.8116 40.3021C48.9346 40.1129 49 39.8921 49 39.6665V13.9998C49 13.7741 48.9346 13.5533 48.8116 13.3641C48.6887 13.1749 48.5135 13.0254 48.3074 12.9337Z" fill="#FF9500"/>
<path d="M27.3073 50.0661L48.3073 40.7328C48.5135 40.6411 48.6886 40.4916 48.8116 40.3024C48.9345 40.1131 48.9999 39.8923 49 39.6667V14C48.9999 13.7744 48.9345 13.5536 48.8116 13.3643C48.6886 13.1751 48.5135 13.0256 48.3073 12.9339L27.3073 3.60062C27.158 3.53434 26.9966 3.50006 26.8333 3.5V50.1667C26.9966 50.1666 27.158 50.1323 27.3073 50.0661Z" fill="#FBAB01"/>
<path d="M26.8334 23.3332L48.8889 13.5308C48.776 13.2664 48.5688 13.0535 48.3075 12.9337L27.3075 3.60041C27.1582 3.5342 26.9968 3.5 26.8335 3.5C26.6702 3.5 26.5088 3.5342 26.3595 3.60041L5.35951 12.9338C5.09822 13.0536 4.89093 13.2665 4.77808 13.5309L26.8334 23.3332Z" fill="#FAC100"/>
<path d="M17.1137 19.0131L39.5501 9.04138L36.6774 7.76465L14.241 17.7364L17.1137 19.0131Z" fill="#FBAB01"/>
<path d="M40.8333 50.167C46.6322 50.167 51.3333 45.466 51.3333 39.667C51.3333 33.868 46.6322 29.167 40.8333 29.167C35.0343 29.167 30.3333 33.868 30.3333 39.667C30.3333 45.466 35.0343 50.167 40.8333 50.167Z" fill="#FD3730"/>
<path d="M42.5833 47.8334C40.5224 47.8347 38.5125 47.1936 36.8331 45.9992C35.1537 44.8049 33.8884 43.1166 33.2133 41.1695C32.5382 39.2224 32.4869 37.1133 33.0666 35.1357C33.6462 33.1581 34.828 31.4103 36.4473 30.1357C34.9096 30.8421 33.5654 31.9098 32.5295 33.2478C31.4936 34.5859 30.7966 36.1546 30.498 37.8203C30.1993 39.4859 30.3079 41.1991 30.8145 42.8137C31.321 44.4283 32.2105 45.8965 33.4071 47.093C34.6037 48.2896 36.0719 49.179 37.6865 49.6856C39.3011 50.1921 41.0143 50.3006 42.6799 50.0019C44.3456 49.7033 45.9143 49.0062 47.2523 47.9703C48.5903 46.9343 49.658 45.5902 50.3643 44.0524C49.4385 45.2309 48.257 46.1837 46.9091 46.8387C45.5611 47.4937 44.0819 47.8338 42.5833 47.8334Z" fill="#D3241F"/>
<path d="M42.4832 39.6668L45.1583 36.9917C45.3729 36.7721 45.4923 36.4767 45.4905 36.1696C45.4888 35.8626 45.366 35.5686 45.1489 35.3515C44.9317 35.1343 44.6377 35.0116 44.3307 35.0098C44.0236 35.008 43.7282 35.1274 43.5086 35.342L40.8335 38.0171L38.1584 35.342C37.9388 35.1274 37.6434 35.008 37.3364 35.0098C37.0293 35.0116 36.7353 35.1343 36.5182 35.3515C36.301 35.5686 36.1783 35.8626 36.1765 36.1696C36.1747 36.4767 36.2941 36.7721 36.5087 36.9917L39.1838 39.6668L36.5087 42.3419C36.3983 42.4498 36.3105 42.5784 36.2502 42.7205C36.1899 42.8626 36.1584 43.0152 36.1575 43.1695C36.1566 43.3239 36.1863 43.4768 36.245 43.6196C36.3036 43.7623 36.39 43.892 36.4992 44.0012C36.6083 44.1103 36.738 44.1967 36.8807 44.2553C37.0235 44.314 37.1765 44.3437 37.3308 44.3428C37.4851 44.3419 37.6377 44.3104 37.7798 44.2501C37.9219 44.1899 38.0506 44.102 38.1584 43.9916L40.8335 41.3165L43.5086 43.9916C43.7282 44.2062 44.0236 44.3256 44.3307 44.3238C44.6377 44.322 44.9317 44.1993 45.1489 43.9821C45.366 43.765 45.4888 43.471 45.4905 43.164C45.4923 42.8569 45.3729 42.5615 45.1583 42.3419L42.4832 39.6668Z" fill="#EAEFF0"/>
</svg>
