<svg width="16" height="19" viewBox="0 0 16 19" fill="none" xmlns="http://www.w3.org/2000/svg">
<path d="M8 9.5V14.5M10.5 12H5.5M4.25 6.375V5.125C4.25 4.13044 4.64509 3.17661 5.34835 2.47335C6.05161 1.77009 7.00544 1.375 8 1.375C8.99456 1.375 9.94839 1.77009 10.6517 2.47335C11.3549 3.17661 11.75 4.13044 11.75 5.125V6.375M1.125 6.375C0.95924 6.375 0.800269 6.44085 0.683058 6.55806C0.565848 6.67527 0.5 6.83424 0.5 7V15.4375C0.5 16.6187 1.50625 17.625 2.6875 17.625H13.3125C14.4937 17.625 15.5 16.6676 15.5 15.4863V7C15.5 6.83424 15.4342 6.67527 15.3169 6.55806C15.1997 6.44085 15.0408 6.375 14.875 6.375H1.125Z" stroke="#737791" stroke-linecap="round" stroke-linejoin="round"/>
</svg>
