<svg width="20" height="21" viewBox="0 0 20 21" fill="none" xmlns="http://www.w3.org/2000/svg">
<path d="M15.2433 10.6048L14.7506 5.24473C14.7399 5.12832 14.6861 5.02011 14.5998 4.94132C14.5134 4.86254 14.4007 4.81886 14.2838 4.81887H11.4215V3.72984C11.4215 2.03504 10.0426 0.65625 8.34788 0.65625C6.65311 0.65625 5.27429 2.03504 5.27429 3.72984V4.81883H2.41186C2.29497 4.81882 2.18229 4.8625 2.09593 4.94129C2.00957 5.02007 1.95576 5.12828 1.94507 5.24469L0.926707 16.3243C0.887332 16.753 1.01987 17.1478 1.30999 17.4658C1.60018 17.7838 1.98108 17.952 2.41159 17.952H9.9246C10.7883 19.384 12.3591 20.3438 14.1499 20.3438C16.8687 20.3438 19.0806 18.1318 19.0806 15.413C19.0806 13.07 17.4376 11.1035 15.2433 10.6048ZM6.21179 3.72984C6.21179 2.55199 7.17003 1.59375 8.34788 1.59375C9.52573 1.59375 10.484 2.55199 10.484 3.72984V4.81883H6.21179V3.72984ZM2.41159 17.0145C2.24491 17.0145 2.11495 16.9571 2.00261 16.8339C1.89026 16.7108 1.84507 16.5761 1.8603 16.4101L2.83952 5.75637H5.27429V6.61102C5.27429 6.86988 5.48417 7.07977 5.74304 7.07977C6.0019 7.07977 6.21179 6.86988 6.21179 6.61102V5.75637H10.484V6.61102C10.484 6.86988 10.6939 7.07977 10.9528 7.07977C11.2116 7.07977 11.4215 6.86988 11.4215 6.61102V5.75637H13.8562L14.2908 10.4845C14.2439 10.4831 14.1969 10.4824 14.1499 10.4824C11.4311 10.4824 9.21921 12.6943 9.21921 15.4131C9.21921 15.9734 9.31335 16.5121 9.48636 17.0145H2.41159ZM14.1499 19.4062C11.948 19.4062 10.1567 17.6149 10.1567 15.413C10.1567 13.2112 11.948 11.4198 14.1499 11.4198C16.3517 11.4198 18.1431 13.2112 18.1431 15.413C18.1431 17.6149 16.3517 19.4062 14.1499 19.4062ZM16.3527 13.943C16.5317 14.13 16.5253 14.4267 16.3383 14.6058L13.9447 16.8975C13.8575 16.9811 13.7414 17.0278 13.6205 17.0277C13.5031 17.0278 13.3899 16.9837 13.3035 16.9041L11.9686 15.6782C11.7779 15.5031 11.7653 15.2066 11.9404 15.0159C12.1155 14.8252 12.412 14.8126 12.6027 14.9877L13.6139 15.9163L15.69 13.9286C15.8769 13.7496 16.1737 13.756 16.3527 13.943Z" fill="#737791"/>
</svg>
