<svg width="14" height="17" viewBox="0 0 14 17" fill="none" xmlns="http://www.w3.org/2000/svg">
<path d="M0.333984 16.3327V11.3952C0.333984 11.1174 0.400095 10.8535 0.532318 10.6035C0.66454 10.3535 0.848429 10.1521 1.08398 9.99935L2.00065 9.39518C2.09787 10.5618 2.25065 11.5549 2.45898 12.3743C2.66732 13.1938 2.99371 14.1035 3.43815 15.1035L0.333984 16.3327ZM4.68815 14.666C4.20204 13.7493 3.84093 12.7771 3.60482 11.7493C3.36871 10.7216 3.25065 9.65907 3.25065 8.56185C3.25065 6.82574 3.59454 5.19046 4.28232 3.65602C4.9701 2.12157 5.87621 0.958238 7.00065 0.166016C8.12565 0.957682 9.03204 2.12102 9.71982 3.65602C10.4076 5.19102 10.7512 6.82629 10.7507 8.56185C10.7507 9.64518 10.6326 10.6974 10.3965 11.7185C10.1604 12.7396 9.79926 13.7221 9.31315 14.666H4.68815ZM7.00065 8.83268C7.45898 8.83268 7.85148 8.66963 8.17815 8.34352C8.50482 8.0174 8.66787 7.6249 8.66732 7.16602C8.66676 6.70713 8.50371 6.3149 8.17815 5.98935C7.8526 5.66379 7.4601 5.50046 7.00065 5.49935C6.54121 5.49824 6.14898 5.66157 5.82398 5.98935C5.49898 6.31713 5.33565 6.70935 5.33398 7.16602C5.33232 7.62268 5.49565 8.01518 5.82398 8.34352C6.15232 8.67185 6.54454 8.8349 7.00065 8.83268ZM13.6673 16.3327L10.5632 15.1035C11.0076 14.1035 11.334 13.1938 11.5423 12.3743C11.7507 11.5549 11.9034 10.5618 12.0007 9.39518L12.9173 9.99935C13.1534 10.1521 13.3376 10.3535 13.4698 10.6035C13.602 10.8535 13.6679 11.1174 13.6673 11.3952V16.3327Z" fill="#1A9FFF"/>
</svg>
