<svg width="56" height="56" viewBox="0 0 56 56" fill="none" xmlns="http://www.w3.org/2000/svg">
<g clip-path="url(#clip0_179_500)">
<path d="M37.3333 26.1229V45.7773C37.3333 46.5746 36.7845 47.2676 36.0083 47.4506L19.0611 51.4486C18.8016 51.5095 18.5316 51.5095 18.2721 51.4486L1.32497 47.4506C0.947928 47.3617 0.611953 47.148 0.371475 46.8443C0.130997 46.5406 0.000103417 46.1646 0 45.7773L0 26.1229C0 25.6434 0.198625 25.2026 0.524781 24.8866H36.8067V24.8848C36.9733 25.045 37.1059 25.2373 37.1964 25.4501C37.2869 25.6628 37.3335 25.8917 37.3333 26.1229Z" fill="url(#paint0_linear_179_500)"/>
<path d="M18.6667 30.5238V28.6992H20.5907L18.6667 30.5238Z" fill="url(#paint1_linear_179_500)"/>
<path d="M36.8065 24.8866H26.3152V49.7372L36.0082 47.4505C36.3853 47.3616 36.7213 47.148 36.9617 46.8442C37.2022 46.5405 37.3331 46.1645 37.3332 45.7771V26.1229C37.3333 25.8917 37.2868 25.6628 37.1963 25.4501C37.1058 25.2373 36.9732 25.045 36.8065 24.8848V24.8866Z" fill="url(#paint2_linear_179_500)"/>
<path d="M18.6667 24.8867V51.4938C18.5346 51.4938 18.4025 51.4791 18.2722 51.4485L1.32497 47.4507C0.947928 47.3618 0.611953 47.1481 0.371475 46.8444C0.130997 46.5407 0.000103417 46.1647 0 45.7773L0 26.123C0 25.6435 0.198625 25.2027 0.524781 24.8867H18.6667Z" fill="url(#paint3_linear_179_500)"/>
<path d="M18.6667 24.8867V51.4938C18.5346 51.4938 18.4025 51.4791 18.2722 51.4485L1.32497 47.4507C0.947928 47.3618 0.611953 47.1481 0.371475 46.8444C0.130997 46.5407 0.000103417 46.1647 0 45.7773L0 26.123C0 25.6435 0.198625 25.2027 0.524781 24.8867H18.6667Z" fill="url(#paint4_linear_179_500)"/>
<path d="M18.6667 39.3756V51.4932C18.5346 51.4932 18.4025 51.4785 18.2722 51.448L1.32497 47.4501C0.947928 47.3612 0.611953 47.1476 0.371475 46.8438C0.130997 46.5401 0.000103417 46.1641 0 45.7768L0 35.2002L16.7615 39.1538C17.3858 39.3012 18.0252 39.3756 18.6667 39.3756Z" fill="url(#paint5_linear_179_500)"/>
<path d="M18.6667 39.3757V51.4934C18.7989 51.4934 18.931 51.4786 19.0613 51.4481L36.0085 47.4501C36.3855 47.3612 36.7215 47.1476 36.962 46.8439C37.2025 46.5402 37.3334 46.1641 37.3335 45.7768V35.2002L20.572 39.154C19.9476 39.3013 19.3082 39.3757 18.6667 39.3757Z" fill="url(#paint6_linear_179_500)"/>
<path d="M36.8066 24.8861L19.6599 28.9312C19.0067 29.0855 18.3266 29.0855 17.6734 28.9312L0.526611 24.8861C0.748414 24.6716 1.0238 24.5206 1.32395 24.449L18.272 20.451C18.5315 20.39 18.8016 20.39 19.0611 20.451L25.3893 21.9441V22.7064H28.6222L36.0092 24.4489C36.3094 24.5206 36.5848 24.6716 36.8066 24.8861Z" fill="url(#paint7_linear_179_500)"/>
<path d="M25.3893 21.9442V22.7065L8.33774 26.7294L0.526611 24.8861C0.748414 24.6716 1.0238 24.5206 1.32395 24.449L18.272 20.451C18.5315 20.39 18.8016 20.39 19.0611 20.451L25.3893 21.9442Z" fill="url(#paint8_linear_179_500)"/>
<path d="M25.3893 21.9434L7.0797 26.2632C6.97794 26.2872 6.88727 26.3449 6.82238 26.4269C6.75748 26.5088 6.72217 26.6103 6.72215 26.7148L6.72095 32.4578C6.72095 32.5829 6.80703 32.6916 6.92876 32.7204L9.6231 33.3554C9.6627 33.3648 9.70389 33.365 9.74361 33.3562C9.78332 33.3474 9.82051 33.3297 9.85241 33.3044C9.88431 33.2792 9.91008 33.247 9.9278 33.2104C9.94552 33.1738 9.95473 33.1336 9.95473 33.0929V27.4452C9.95472 27.3499 9.98693 27.2573 10.0461 27.1825C10.1053 27.1077 10.1881 27.0551 10.2809 27.0332L28.6221 22.7064L25.3893 21.9434Z" fill="url(#paint9_linear_179_500)"/>
<path d="M15.4329 25.8188L10.2809 27.0338C10.2072 27.0514 10.1395 27.0884 10.085 27.141L6.86499 26.3815C6.92466 26.3237 6.99866 26.2829 7.07937 26.2633L12.1981 25.0557L15.4329 25.8188Z" fill="url(#paint10_linear_179_500)"/>
<path d="M6.86497 26.3809L10.084 27.1404C10.043 27.1799 10.0105 27.2273 9.98825 27.2797C9.96602 27.332 9.95457 27.3884 9.95459 27.4453V33.0925C9.95468 33.1333 9.94553 33.1735 9.92783 33.2101C9.91013 33.2468 9.88434 33.279 9.85241 33.3043C9.82047 33.3295 9.78322 33.3472 9.74346 33.356C9.7037 33.3648 9.66246 33.3644 9.62286 33.3549L6.92863 32.7202C6.86949 32.7063 6.81679 32.6728 6.77905 32.6252C6.74132 32.5776 6.72076 32.5186 6.7207 32.4578L6.72158 26.7146C6.72157 26.6521 6.73428 26.5903 6.75893 26.533C6.78358 26.4756 6.81966 26.4238 6.86497 26.3809Z" fill="url(#paint11_linear_179_500)"/>
<path d="M6.72138 29.6925L6.72095 32.4577C6.72095 32.5825 6.80692 32.6914 6.92887 32.7201L9.6231 33.3548C9.66271 33.3643 9.70395 33.3647 9.74372 33.3559C9.78349 33.3471 9.82075 33.3294 9.85269 33.3042C9.88463 33.2789 9.91042 33.2467 9.92812 33.21C9.94581 33.1734 9.95495 33.1331 9.95484 33.0924V29.6924H6.72138V29.6925Z" fill="url(#paint12_linear_179_500)"/>
<path d="M2.04406 44.9857L9.47281 46.7382C9.53035 46.7517 9.59021 46.7521 9.64791 46.7393C9.70562 46.7265 9.75967 46.7007 9.80603 46.6641C9.85238 46.6274 9.88984 46.5807 9.91559 46.5275C9.94134 46.4742 9.95472 46.4159 9.95472 46.3568V42.277C9.95473 42.1887 9.92493 42.103 9.87013 42.0338C9.81534 41.9645 9.73877 41.9158 9.65284 41.8956L2.22409 40.1433C2.16656 40.1297 2.1067 40.1293 2.04899 40.1422C1.99129 40.155 1.93723 40.1807 1.89088 40.2174C1.84452 40.2541 1.80707 40.3008 1.78132 40.354C1.75557 40.4072 1.74219 40.4656 1.74219 40.5247V44.6043C1.74217 44.6925 1.77198 44.7782 1.82677 44.8475C1.88156 44.9167 1.95813 44.9654 2.04406 44.9857Z" fill="url(#paint13_linear_179_500)"/>
<path d="M1.74219 41.6816V44.6046C1.74217 44.6929 1.77198 44.7786 1.82677 44.8478C1.88156 44.917 1.95813 44.9657 2.04406 44.986L9.47281 46.7385C9.53035 46.7521 9.59021 46.7524 9.64791 46.7396C9.70562 46.7268 9.75967 46.7011 9.80603 46.6644C9.85238 46.6277 9.88984 46.581 9.91559 46.5278C9.94134 46.4746 9.95472 46.4162 9.95472 46.3571V43.619L1.74219 41.6816Z" fill="url(#paint14_linear_179_500)"/>
<path d="M9.65282 41.8957L5.88037 41.0059V45.8909L9.4729 46.7384C9.53044 46.752 9.5903 46.7524 9.648 46.7396C9.70571 46.7267 9.75976 46.701 9.80612 46.6643C9.85247 46.6276 9.88993 46.5809 9.91568 46.5277C9.94143 46.4745 9.9548 46.4161 9.95481 46.357V42.2771C9.95478 42.1888 9.92494 42.1031 9.87013 42.0339C9.81533 41.9647 9.73876 41.916 9.65282 41.8957Z" fill="url(#paint15_linear_179_500)"/>
<path d="M21.6169 45.7469V45.7552C21.6169 45.8096 21.6292 45.8633 21.6529 45.9122C21.6766 45.9612 21.7111 46.0041 21.7537 46.0379C21.7963 46.0716 21.8461 46.0953 21.8992 46.1071C21.9522 46.1189 22.0073 46.1186 22.0602 46.1061L27.3914 44.8486C27.4705 44.83 27.5409 44.7852 27.5913 44.7215C27.6417 44.6578 27.6692 44.579 27.6692 44.4977V44.4894C27.6692 44.435 27.6569 44.3814 27.6332 44.3324C27.6095 44.2834 27.5751 44.2405 27.5324 44.2067C27.4898 44.173 27.4401 44.1493 27.387 44.1375C27.3339 44.1257 27.2788 44.1261 27.2259 44.1385L21.8948 45.396C21.8157 45.4147 21.7453 45.4595 21.6948 45.5232C21.6444 45.5868 21.617 45.6657 21.6169 45.7469Z" fill="url(#paint16_linear_179_500)"/>
<path d="M22.0602 47.5164L24.7176 46.8897C24.7967 46.8711 24.8671 46.8263 24.9175 46.7626C24.968 46.6989 24.9954 46.6201 24.9954 46.5389V46.5304C24.9954 46.476 24.9831 46.4224 24.9594 46.3734C24.9358 46.3245 24.9013 46.2815 24.8587 46.2478C24.816 46.214 24.7663 46.1903 24.7132 46.1785C24.6601 46.1667 24.6051 46.1671 24.5521 46.1796L21.8948 46.8064C21.8157 46.825 21.7453 46.8698 21.6948 46.9335C21.6444 46.9972 21.617 47.076 21.6169 47.1573V47.1657C21.617 47.2201 21.6293 47.2737 21.653 47.3227C21.6767 47.3716 21.7111 47.4146 21.7537 47.4483C21.7964 47.482 21.8461 47.5057 21.8992 47.5175C21.9523 47.5293 22.0073 47.5289 22.0602 47.5164Z" fill="url(#paint17_linear_179_500)"/>
<path d="M55.9999 30.5243V50.1786C55.9999 50.976 55.4511 51.669 54.6749 51.8519L37.7277 55.8498C37.4682 55.9107 37.1982 55.9107 36.9387 55.8498L19.9915 51.8518C19.6144 51.7629 19.2784 51.5493 19.038 51.2456C18.7975 50.9419 18.6666 50.5659 18.6665 50.1785V30.5243C18.6665 30.0448 18.8651 29.604 19.1913 29.288H55.4732V29.2861C55.8013 29.6021 55.9999 30.0438 55.9999 30.5243Z" fill="url(#paint18_linear_179_500)"/>
<path d="M55.4733 29.288H44.9819V54.1385L54.675 51.8518C55.052 51.7629 55.388 51.5493 55.6285 51.2456C55.869 50.9419 55.9998 50.5659 55.9999 50.1785V30.5243C56.0001 30.293 55.9535 30.0642 55.863 29.8514C55.7725 29.6387 55.64 29.4464 55.4733 29.2861V29.288Z" fill="url(#paint19_linear_179_500)"/>
<path d="M37.3332 29.2881V55.8952C37.2011 55.8952 37.069 55.8804 36.9387 55.8499L19.9915 51.8519C19.6144 51.763 19.2784 51.5494 19.038 51.2457C18.7975 50.942 18.6666 50.566 18.6665 50.1786V30.5244C18.6665 30.0449 18.8651 29.6041 19.1913 29.2881H37.3332Z" fill="url(#paint20_linear_179_500)"/>
<path d="M37.3332 29.2881V55.8952C37.2011 55.8952 37.069 55.8804 36.9387 55.8499L19.9915 51.8519C19.6144 51.763 19.2784 51.5494 19.038 51.2457C18.7975 50.942 18.6666 50.566 18.6665 50.1786V30.5244C18.6665 30.0449 18.8651 29.6041 19.1913 29.2881H37.3332Z" fill="url(#paint21_linear_179_500)"/>
<path d="M37.3332 43.7771V55.8947C37.2011 55.8947 37.069 55.88 36.9387 55.8494L19.9915 51.8515C19.6144 51.7626 19.2784 51.5489 19.038 51.2452C18.7975 50.9415 18.6666 50.5655 18.6665 50.1781V39.6016L35.428 43.5551C36.0523 43.7026 36.6917 43.7771 37.3332 43.7771Z" fill="url(#paint22_linear_179_500)"/>
<path d="M37.3333 43.7771V55.8947C37.4654 55.8947 37.5975 55.88 37.7278 55.8494L54.675 51.8515C55.052 51.7626 55.388 51.5489 55.6285 51.2452C55.869 50.9415 55.9999 50.5655 56 50.1781V39.6016L39.2385 43.5551C38.6141 43.7026 37.9748 43.7771 37.3333 43.7771Z" fill="url(#paint23_linear_179_500)"/>
<path d="M55.4733 29.2875L38.3265 33.3326C37.6734 33.4869 36.9932 33.4869 36.3401 33.3326L19.1934 29.2875C19.4152 29.0729 19.6906 28.922 19.9907 28.8504L36.9388 24.8524C37.1983 24.7914 37.4684 24.7914 37.7278 24.8524L44.056 26.3455V27.1077H47.289L54.6759 28.8503C54.9761 28.9219 55.2515 29.0729 55.4733 29.2875Z" fill="url(#paint24_linear_179_500)"/>
<path d="M55.4733 29.2875L38.3265 33.3326C37.6734 33.4869 36.9932 33.4869 36.3401 33.3326L19.1934 29.2875C19.4152 29.0729 19.6906 28.922 19.9907 28.8504L36.9388 24.8524C37.1983 24.7914 37.4684 24.7914 37.7278 24.8524L44.056 26.3455V27.1077H47.289L54.6759 28.8503C54.9761 28.9219 55.2515 29.0729 55.4733 29.2875Z" fill="url(#paint25_linear_179_500)"/>
<path d="M44.056 26.3456V27.1078L27.0045 31.1308L19.1934 29.2875C19.4152 29.0729 19.6906 28.922 19.9907 28.8504L36.9388 24.8524C37.1983 24.7914 37.4684 24.7914 37.7278 24.8524L44.056 26.3456Z" fill="url(#paint26_linear_179_500)"/>
<path d="M44.0561 26.3447L25.7464 30.6646C25.6447 30.6886 25.554 30.7463 25.4891 30.8282C25.4242 30.9102 25.3889 31.0117 25.3889 31.1162L25.3877 36.8592C25.3877 36.9843 25.4738 37.093 25.5955 37.1218L28.2898 37.7568C28.3294 37.7661 28.3706 37.7664 28.4104 37.7576C28.4501 37.7487 28.4873 37.731 28.5192 37.7058C28.5511 37.6805 28.5768 37.6484 28.5945 37.6118C28.6123 37.5751 28.6215 37.535 28.6215 37.4943V31.8466C28.6215 31.7512 28.6537 31.6587 28.7129 31.5839C28.7721 31.5091 28.8548 31.4565 28.9476 31.4346L47.2888 27.1077L44.0561 26.3447Z" fill="url(#paint27_linear_179_500)"/>
<path d="M44.0563 26.3447L25.747 30.6639C25.6638 30.6836 25.5895 30.7252 25.5315 30.7821L28.7504 31.5422C28.804 31.4897 28.8707 31.4525 28.9473 31.4339L47.2884 27.1071L44.0563 26.3447Z" fill="url(#paint28_linear_179_500)"/>
<path d="M34.0996 30.2201L28.9476 31.4352C28.8739 31.4528 28.8063 31.4898 28.7517 31.5424L25.5317 30.7829C25.5914 30.7251 25.6654 30.6843 25.7461 30.6646L30.8649 29.457L34.0996 30.2201Z" fill="url(#paint29_linear_179_500)"/>
<path d="M25.5317 30.7832L28.7507 31.5427C28.7098 31.5822 28.6772 31.6296 28.655 31.682C28.6328 31.7344 28.6213 31.7907 28.6213 31.8476V37.4949C28.6215 37.5356 28.6123 37.5758 28.5946 37.6125C28.5769 37.6492 28.5511 37.6814 28.5192 37.7066C28.4873 37.7319 28.45 37.7496 28.4102 37.7584C28.3705 37.7671 28.3292 37.7668 28.2896 37.7573L25.5954 37.1226C25.5362 37.1086 25.4835 37.0751 25.4458 37.0275C25.4081 36.9799 25.3875 36.9209 25.3875 36.8602L25.3883 31.1169C25.3883 31.0545 25.401 30.9927 25.4257 30.9353C25.4503 30.8779 25.4864 30.8262 25.5317 30.7832Z" fill="url(#paint30_linear_179_500)"/>
<path d="M25.3879 34.0948L25.3875 36.8601C25.3875 36.9849 25.4734 37.0938 25.5954 37.1224L28.2896 37.7571C28.3292 37.7666 28.3705 37.767 28.4102 37.7582C28.45 37.7495 28.4873 37.7318 28.5192 37.7065C28.5511 37.6813 28.5769 37.6491 28.5946 37.6124C28.6123 37.5757 28.6215 37.5355 28.6213 37.4948V34.0947H25.3879V34.0948Z" fill="url(#paint31_linear_179_500)"/>
<path d="M20.7108 49.387L28.1396 51.1395C28.1971 51.1531 28.257 51.1535 28.3147 51.1407C28.3724 51.1278 28.4264 51.1021 28.4728 51.0654C28.5191 51.0287 28.5566 50.982 28.5823 50.9288C28.6081 50.8756 28.6215 50.8173 28.6215 50.7581V46.6783C28.6215 46.5901 28.5917 46.5044 28.5369 46.4351C28.4821 46.3659 28.4055 46.3172 28.3196 46.297L20.8908 44.5447C20.8333 44.5311 20.7734 44.5307 20.7157 44.5435C20.658 44.5564 20.604 44.5821 20.5576 44.6188C20.5113 44.6555 20.4738 44.7022 20.4481 44.7554C20.4223 44.8086 20.4089 44.8669 20.4089 44.926V49.0056C20.4089 49.0939 20.4387 49.1796 20.4935 49.2488C20.5483 49.3181 20.6249 49.3668 20.7108 49.387Z" fill="url(#paint32_linear_179_500)"/>
<path d="M20.4089 46.083V49.0059C20.4089 49.0942 20.4387 49.1799 20.4935 49.2492C20.5483 49.3184 20.6249 49.3671 20.7108 49.3873L28.1396 51.1399C28.1971 51.1534 28.257 51.1538 28.3147 51.141C28.3724 51.1281 28.4264 51.1024 28.4728 51.0657C28.5191 51.0291 28.5566 50.9824 28.5823 50.9291C28.6081 50.8759 28.6215 50.8176 28.6215 50.7585V48.0204L20.4089 46.083Z" fill="url(#paint33_linear_179_500)"/>
<path d="M28.3196 46.2971L24.5471 45.4072V50.2922L28.1397 51.1398C28.1972 51.1534 28.257 51.1538 28.3148 51.1409C28.3725 51.1281 28.4265 51.1024 28.4729 51.0657C28.5192 51.029 28.5567 50.9823 28.5824 50.9291C28.6082 50.8759 28.6216 50.8175 28.6216 50.7584V46.6785C28.6215 46.5902 28.5917 46.5045 28.5369 46.4353C28.4821 46.3661 28.4055 46.3174 28.3196 46.2971Z" fill="url(#paint34_linear_179_500)"/>
<path d="M40.2837 50.1483V50.1566C40.2837 50.211 40.296 50.2646 40.3197 50.3136C40.3434 50.3626 40.3778 50.4055 40.4205 50.4393C40.4631 50.473 40.5128 50.4967 40.5659 50.5085C40.619 50.5203 40.6741 50.5199 40.727 50.5075L46.0581 49.25C46.1372 49.2313 46.2076 49.1865 46.2581 49.1228C46.3085 49.0592 46.3359 48.9803 46.336 48.8991V48.8908C46.336 48.8364 46.3237 48.7827 46.3 48.7338C46.2763 48.6848 46.2418 48.6419 46.1992 48.6081C46.1566 48.5744 46.1068 48.5507 46.0537 48.5389C46.0007 48.5271 45.9456 48.5274 45.8927 48.5399L40.5615 49.7974C40.4824 49.816 40.412 49.8608 40.3615 49.9245C40.3111 49.9882 40.2837 50.067 40.2837 50.1483Z" fill="url(#paint35_linear_179_500)"/>
<path d="M40.7267 51.9178L43.3841 51.2911C43.4632 51.2724 43.5336 51.2277 43.584 51.164C43.6345 51.1003 43.6619 51.0215 43.6619 50.9402V50.9318C43.6619 50.8774 43.6496 50.8237 43.6259 50.7748C43.6023 50.7258 43.5678 50.6829 43.5252 50.6491C43.4825 50.6154 43.4328 50.5917 43.3797 50.5799C43.3266 50.5681 43.2716 50.5684 43.2186 50.5809L40.5613 51.2078C40.4822 51.2264 40.4118 51.2712 40.3613 51.3349C40.3109 51.3986 40.2835 51.4774 40.2834 51.5586V51.5671C40.2835 51.6214 40.2958 51.6751 40.3195 51.724C40.3432 51.773 40.3776 51.8159 40.4203 51.8497C40.4629 51.8834 40.5126 51.9071 40.5657 51.9189C40.6188 51.9307 40.6738 51.9303 40.7267 51.9178Z" fill="url(#paint36_linear_179_500)"/>
<path d="M46.1195 5.82113V25.4755C46.1195 26.2728 45.5707 26.9658 44.7946 27.1488L27.8474 31.1468C27.5879 31.2077 27.3178 31.2077 27.0583 31.1468L10.1111 27.1488C9.73405 27.0599 9.39807 26.8463 9.15758 26.5426C8.9171 26.2389 8.78622 25.8629 8.78613 25.4755V5.82113C8.78613 5.34163 8.98476 4.90085 9.31091 4.58487H45.5928V4.58301C45.7595 4.74325 45.8921 4.93553 45.9826 5.14829C46.0731 5.36106 46.1197 5.58992 46.1195 5.82113Z" fill="url(#paint37_linear_179_500)"/>
<path d="M45.5929 4.58498H35.1016V29.4355L44.7946 27.1488C45.1716 27.0599 45.5076 26.8463 45.7481 26.5426C45.9886 26.2389 46.1195 25.8629 46.1196 25.4755V5.82113C46.1197 5.58992 46.0731 5.36107 45.9826 5.14831C45.8921 4.93554 45.7596 4.74326 45.5929 4.58301V4.58498Z" fill="url(#paint38_linear_179_500)"/>
<path d="M27.4528 4.58507V31.1922C27.3207 31.1922 27.1886 31.1774 27.0583 31.1469L10.1111 27.1489C9.73405 27.06 9.39807 26.8464 9.15758 26.5427C8.9171 26.239 8.78622 25.863 8.78613 25.4756V5.82123C8.78613 5.34173 8.98476 4.90095 9.31091 4.58496L27.4528 4.58507Z" fill="url(#paint39_linear_179_500)"/>
<path d="M27.4528 19.0749V31.1926C27.3207 31.1926 27.1886 31.1778 27.0583 31.1473L10.1111 27.1493C9.73405 27.0604 9.39807 26.8468 9.15758 26.5431C8.9171 26.2394 8.78622 25.8634 8.78613 25.476V14.8994L25.5476 18.853C26.172 19.0005 26.8113 19.0749 27.4528 19.0749Z" fill="url(#paint40_linear_179_500)"/>
<path d="M27.4529 19.0749V31.1926C27.585 31.1926 27.7171 31.1778 27.8474 31.1473L44.7946 27.1493C45.1717 27.0604 45.5077 26.8468 45.7481 26.5431C45.9886 26.2394 46.1195 25.8634 46.1196 25.476V14.8994L29.3581 18.8531C28.7337 19.0005 28.0944 19.0749 27.4529 19.0749Z" fill="url(#paint41_linear_179_500)"/>
<path d="M45.5928 4.58531L28.446 8.63044C27.7929 8.78477 27.1127 8.78477 26.4596 8.63044L9.31274 4.58531C9.53455 4.37079 9.80994 4.21984 10.1101 4.14825L27.0582 0.150267C27.3176 0.089234 27.5877 0.089234 27.8472 0.150267L34.1754 1.64334V2.40558H37.4083L44.7953 4.14814C45.0955 4.2197 45.371 4.3707 45.5928 4.58531Z" fill="url(#paint42_linear_179_500)"/>
<path d="M34.1754 1.64334V2.40558L17.1239 6.4285L9.31274 4.58531C9.53455 4.37079 9.80994 4.21984 10.1101 4.14825L27.0582 0.150267C27.3176 0.089234 27.5877 0.089234 27.8472 0.150267L34.1754 1.64334Z" fill="url(#paint43_linear_179_500)"/>
<path d="M34.1755 1.64258L15.8658 5.96245C15.7641 5.98645 15.6734 6.04411 15.6085 6.12607C15.5436 6.20804 15.5083 6.30952 15.5083 6.41406L15.5071 12.157C15.5071 12.2821 15.5932 12.3909 15.7149 12.4196L18.4092 13.0547C18.4488 13.064 18.49 13.0643 18.5297 13.0554C18.5694 13.0466 18.6066 13.0289 18.6385 13.0036C18.6704 12.9784 18.6962 12.9462 18.7139 12.9096C18.7317 12.873 18.7409 12.8328 18.7409 12.7922V7.14447C18.7409 7.04909 18.7731 6.9565 18.8323 6.88172C18.8915 6.80694 18.9742 6.75434 19.067 6.73245L37.4082 2.40558L34.1755 1.64258Z" fill="url(#paint44_linear_179_500)"/>
<path d="M24.219 5.51799L19.067 6.73304C18.9933 6.75061 18.9257 6.78762 18.8711 6.84023L15.6511 6.08073C15.7108 6.02294 15.7848 5.98213 15.8655 5.96249L20.9842 4.75488L24.219 5.51799Z" fill="url(#paint45_linear_179_500)"/>
<path d="M15.6511 6.08008L18.8701 6.83958C18.8292 6.87911 18.7966 6.92648 18.7744 6.97887C18.7521 7.03127 18.7407 7.0876 18.7407 7.14452V12.7918C18.7408 12.8325 18.7317 12.8727 18.714 12.9094C18.6963 12.9461 18.6705 12.9783 18.6386 13.0035C18.6066 13.0288 18.5694 13.0465 18.5296 13.0552C18.4898 13.064 18.4486 13.0636 18.409 13.0542L15.7148 12.4195C15.6556 12.4055 15.6029 12.372 15.5652 12.3244C15.5274 12.2768 15.5069 12.2178 15.5068 12.1571L15.5077 6.41378C15.5077 6.35134 15.5204 6.28954 15.5451 6.23217C15.5697 6.1748 15.6058 6.12305 15.6511 6.08008Z" fill="url(#paint46_linear_179_500)"/>
<path d="M15.5075 9.3916L15.5071 12.1568C15.5071 12.2816 15.593 12.3906 15.715 12.4192L18.4092 13.0539C18.4488 13.0634 18.4901 13.0638 18.5299 13.055C18.5696 13.0462 18.6069 13.0285 18.6388 13.0033C18.6708 12.978 18.6966 12.9458 18.7143 12.9091C18.7319 12.8725 18.7411 12.8322 18.741 12.7915V9.3916H15.5075Z" fill="url(#paint47_linear_179_500)"/>
<path d="M10.8302 24.6849L18.2589 26.4374C18.3165 26.451 18.3763 26.4514 18.434 26.4385C18.4918 26.4257 18.5458 26.4 18.5922 26.3633C18.6385 26.3266 18.676 26.2799 18.7017 26.2267C18.7275 26.1735 18.7408 26.1151 18.7409 26.056V21.9762C18.7409 21.8879 18.7111 21.8022 18.6563 21.733C18.6015 21.6638 18.5249 21.6151 18.439 21.5948L11.0102 19.8425C10.9527 19.8289 10.8928 19.8285 10.8351 19.8414C10.7774 19.8542 10.7234 19.8799 10.677 19.9166C10.6307 19.9533 10.5932 20 10.5675 20.0532C10.5417 20.1064 10.5283 20.1648 10.5283 20.2239V24.3035C10.5283 24.3918 10.5581 24.4775 10.6129 24.5467C10.6677 24.616 10.7442 24.6646 10.8302 24.6849Z" fill="url(#paint48_linear_179_500)"/>
<path d="M10.5283 21.3799V24.3028C10.5283 24.3911 10.5581 24.4768 10.6129 24.546C10.6677 24.6153 10.7443 24.664 10.8302 24.6842L18.2589 26.4367C18.3165 26.4503 18.3763 26.4507 18.434 26.4379C18.4918 26.425 18.5458 26.3993 18.5922 26.3626C18.6385 26.3259 18.676 26.2792 18.7017 26.226C18.7275 26.1728 18.7408 26.1145 18.7409 26.0553V23.3172L10.5283 21.3799Z" fill="url(#paint49_linear_179_500)"/>
<path d="M18.439 21.595L14.6665 20.7051V25.5901L18.259 26.4376C18.3166 26.4512 18.3764 26.4516 18.4341 26.4388C18.4918 26.4259 18.5459 26.4002 18.5923 26.3635C18.6386 26.3268 18.6761 26.2801 18.7018 26.2269C18.7276 26.1737 18.7409 26.1154 18.7409 26.0563V21.9763C18.7409 21.888 18.7111 21.8023 18.6563 21.7331C18.6015 21.6639 18.5249 21.6152 18.439 21.595Z" fill="url(#paint50_linear_179_500)"/>
<path d="M30.4031 25.4461V25.4544C30.4031 25.5088 30.4154 25.5625 30.4391 25.6114C30.4627 25.6604 30.4972 25.7034 30.5398 25.7371C30.5825 25.7709 30.6322 25.7945 30.6853 25.8063C30.7384 25.8182 30.7934 25.8178 30.8464 25.8053L36.1775 24.5478C36.2566 24.5292 36.327 24.4844 36.3775 24.4207C36.4279 24.357 36.4553 24.2782 36.4553 24.197V24.1886C36.4553 24.1343 36.443 24.0806 36.4194 24.0316C36.3957 23.9827 36.3612 23.9397 36.3186 23.906C36.2759 23.8722 36.2262 23.8485 36.1731 23.8367C36.12 23.8249 36.065 23.8253 36.012 23.8378L30.6809 25.0952C30.6018 25.1139 30.5313 25.1586 30.4809 25.2223C30.4305 25.286 30.4031 25.3649 30.4031 25.4461Z" fill="url(#paint51_linear_179_500)"/>
<path d="M30.8464 27.2147L33.5037 26.588C33.5828 26.5693 33.6533 26.5245 33.7037 26.4608C33.7541 26.3972 33.7815 26.3183 33.7816 26.2371V26.2287C33.7816 26.1743 33.7693 26.1206 33.7456 26.0717C33.7219 26.0227 33.6874 25.9797 33.6448 25.946C33.6022 25.9122 33.5524 25.8886 33.4993 25.8768C33.4463 25.865 33.3912 25.8653 33.3383 25.8778L30.6809 26.5046C30.6018 26.5233 30.5314 26.5681 30.481 26.6318C30.4305 26.6954 30.4031 26.7743 30.4031 26.8555V26.8639C30.4031 26.9183 30.4154 26.972 30.4391 27.0209C30.4628 27.0698 30.4972 27.1128 30.5399 27.1465C30.5825 27.1803 30.6322 27.2039 30.6853 27.2157C30.7384 27.2275 30.7935 27.2272 30.8464 27.2147Z" fill="url(#paint52_linear_179_500)"/>
</g>
<defs>
<linearGradient id="paint0_linear_179_500" x1="2.34599" y1="22.8717" x2="34.8837" y2="48.9546" gradientUnits="userSpaceOnUse">
<stop stop-color="#FEA613"/>
<stop offset="1" stop-color="#C4573A"/>
</linearGradient>
<linearGradient id="paint1_linear_179_500" x1="16.5654" y1="29.6115" x2="18.844" y2="29.6115" gradientUnits="userSpaceOnUse">
<stop stop-color="#C4573A" stop-opacity="0"/>
<stop offset="0.235" stop-color="#BE5539" stop-opacity="0.235"/>
<stop offset="0.539" stop-color="#AE4E35" stop-opacity="0.539"/>
<stop offset="0.879" stop-color="#934330" stop-opacity="0.879"/>
<stop offset="1" stop-color="#883F2E"/>
</linearGradient>
<linearGradient id="paint2_linear_179_500" x1="31.5187" y1="37.311" x2="37.8474" y2="37.311" gradientUnits="userSpaceOnUse">
<stop stop-color="#C4573A" stop-opacity="0"/>
<stop offset="0.235" stop-color="#BE5539" stop-opacity="0.235"/>
<stop offset="0.539" stop-color="#AE4E35" stop-opacity="0.539"/>
<stop offset="0.879" stop-color="#934330" stop-opacity="0.879"/>
<stop offset="1" stop-color="#883F2E"/>
</linearGradient>
<linearGradient id="paint3_linear_179_500" x1="7.92619" y1="33.8953" x2="21.2641" y2="50.3947" gradientUnits="userSpaceOnUse">
<stop stop-color="#C4573A" stop-opacity="0"/>
<stop offset="0.235" stop-color="#BE5539" stop-opacity="0.235"/>
<stop offset="0.539" stop-color="#AE4E35" stop-opacity="0.539"/>
<stop offset="0.879" stop-color="#934330" stop-opacity="0.879"/>
<stop offset="1" stop-color="#883F2E"/>
</linearGradient>
<linearGradient id="paint4_linear_179_500" x1="12.7683" y1="34.2899" x2="18.967" y2="26.6878" gradientUnits="userSpaceOnUse">
<stop stop-color="#C4573A" stop-opacity="0"/>
<stop offset="0.235" stop-color="#BE5539" stop-opacity="0.235"/>
<stop offset="0.539" stop-color="#AE4E35" stop-opacity="0.539"/>
<stop offset="0.879" stop-color="#934330" stop-opacity="0.879"/>
<stop offset="1" stop-color="#883F2E"/>
</linearGradient>
<linearGradient id="paint5_linear_179_500" x1="8.92774" y1="45.4424" x2="8.13739" y2="49.5261" gradientUnits="userSpaceOnUse">
<stop stop-color="#C4573A" stop-opacity="0"/>
<stop offset="0.235" stop-color="#BE5539" stop-opacity="0.235"/>
<stop offset="0.539" stop-color="#AE4E35" stop-opacity="0.539"/>
<stop offset="0.879" stop-color="#934330" stop-opacity="0.879"/>
<stop offset="1" stop-color="#883F2E"/>
</linearGradient>
<linearGradient id="paint6_linear_179_500" x1="28.4056" y1="45.4425" x2="29.1961" y2="49.5262" gradientUnits="userSpaceOnUse">
<stop stop-color="#C4573A" stop-opacity="0"/>
<stop offset="0.235" stop-color="#BE5539" stop-opacity="0.235"/>
<stop offset="0.539" stop-color="#AE4E35" stop-opacity="0.539"/>
<stop offset="0.879" stop-color="#934330" stop-opacity="0.879"/>
<stop offset="1" stop-color="#883F2E"/>
</linearGradient>
<linearGradient id="paint7_linear_179_500" x1="18.5424" y1="23.2297" x2="19.0364" y2="29.8163" gradientUnits="userSpaceOnUse">
<stop stop-color="#FEA613"/>
<stop offset="1" stop-color="#C4573A"/>
</linearGradient>
<linearGradient id="paint8_linear_179_500" x1="12.995" y1="23.5701" x2="13.3573" y2="25.085" gradientUnits="userSpaceOnUse">
<stop stop-color="#C4573A" stop-opacity="0"/>
<stop offset="0.235" stop-color="#BE5539" stop-opacity="0.235"/>
<stop offset="0.539" stop-color="#AE4E35" stop-opacity="0.539"/>
<stop offset="0.879" stop-color="#934330" stop-opacity="0.879"/>
<stop offset="1" stop-color="#883F2E"/>
</linearGradient>
<linearGradient id="paint9_linear_179_500" x1="15.3946" y1="22.0626" x2="17.9634" y2="28.3199" gradientUnits="userSpaceOnUse">
<stop stop-color="#FEF0AE"/>
<stop offset="1" stop-color="#FAC600"/>
</linearGradient>
<linearGradient id="paint10_linear_179_500" x1="11.149" y1="25.8728" x2="11.149" y2="27.3149" gradientUnits="userSpaceOnUse">
<stop stop-color="#FE9738" stop-opacity="0"/>
<stop offset="1" stop-color="#FE9738"/>
</linearGradient>
<linearGradient id="paint11_linear_179_500" x1="9.15714" y1="29.8717" x2="10.1539" y2="29.8717" gradientUnits="userSpaceOnUse">
<stop stop-color="#FE9738" stop-opacity="0"/>
<stop offset="1" stop-color="#FE9738"/>
</linearGradient>
<linearGradient id="paint12_linear_179_500" x1="8.23174" y1="32.007" x2="8.03421" y2="33.1267" gradientUnits="userSpaceOnUse">
<stop stop-color="#FE9738" stop-opacity="0"/>
<stop offset="1" stop-color="#FE9738"/>
</linearGradient>
<linearGradient id="paint13_linear_179_500" x1="3.48781" y1="39.3752" x2="8.07161" y2="47.2693" gradientUnits="userSpaceOnUse">
<stop stop-color="#F5FBFF"/>
<stop offset="1" stop-color="#DBD5EF"/>
</linearGradient>
<linearGradient id="paint14_linear_179_500" x1="5.8012" y1="44.2481" x2="5.45098" y2="45.776" gradientUnits="userSpaceOnUse">
<stop stop-color="#DBD5EF" stop-opacity="0"/>
<stop offset="0.285" stop-color="#D9D2EE" stop-opacity="0.285"/>
<stop offset="0.474" stop-color="#D4C9E9" stop-opacity="0.474"/>
<stop offset="0.635" stop-color="#CBBAE2" stop-opacity="0.635"/>
<stop offset="0.779" stop-color="#BFA5D7" stop-opacity="0.78"/>
<stop offset="0.913" stop-color="#AF8ACA" stop-opacity="0.913"/>
<stop offset="1" stop-color="#A274BF"/>
</linearGradient>
<linearGradient id="paint15_linear_179_500" x1="8.77695" y1="43.8774" x2="9.97012" y2="43.8774" gradientUnits="userSpaceOnUse">
<stop stop-color="#DBD5EF" stop-opacity="0"/>
<stop offset="0.285" stop-color="#D9D2EE" stop-opacity="0.285"/>
<stop offset="0.474" stop-color="#D4C9E9" stop-opacity="0.474"/>
<stop offset="0.635" stop-color="#CBBAE2" stop-opacity="0.635"/>
<stop offset="0.779" stop-color="#BFA5D7" stop-opacity="0.78"/>
<stop offset="0.913" stop-color="#AF8ACA" stop-opacity="0.913"/>
<stop offset="1" stop-color="#A274BF"/>
</linearGradient>
<linearGradient id="paint16_linear_179_500" x1="23.2127" y1="42.2355" x2="25.6277" y2="47.1097" gradientUnits="userSpaceOnUse">
<stop stop-color="#5A5A5A"/>
<stop offset="1" stop-color="#444444"/>
</linearGradient>
<linearGradient id="paint17_linear_179_500" x1="21.4529" y1="43.1079" x2="23.868" y2="47.982" gradientUnits="userSpaceOnUse">
<stop stop-color="#5A5A5A"/>
<stop offset="1" stop-color="#444444"/>
</linearGradient>
<linearGradient id="paint18_linear_179_500" x1="21.0125" y1="27.273" x2="53.5503" y2="53.356" gradientUnits="userSpaceOnUse">
<stop stop-color="#FEA613"/>
<stop offset="1" stop-color="#C4573A"/>
</linearGradient>
<linearGradient id="paint19_linear_179_500" x1="50.1854" y1="41.7123" x2="56.514" y2="41.7123" gradientUnits="userSpaceOnUse">
<stop stop-color="#C4573A" stop-opacity="0"/>
<stop offset="0.235" stop-color="#BE5539" stop-opacity="0.235"/>
<stop offset="0.539" stop-color="#AE4E35" stop-opacity="0.539"/>
<stop offset="0.879" stop-color="#934330" stop-opacity="0.879"/>
<stop offset="1" stop-color="#883F2E"/>
</linearGradient>
<linearGradient id="paint20_linear_179_500" x1="26.5928" y1="38.2965" x2="39.9306" y2="54.796" gradientUnits="userSpaceOnUse">
<stop stop-color="#C4573A" stop-opacity="0"/>
<stop offset="0.235" stop-color="#BE5539" stop-opacity="0.235"/>
<stop offset="0.539" stop-color="#AE4E35" stop-opacity="0.539"/>
<stop offset="0.879" stop-color="#934330" stop-opacity="0.879"/>
<stop offset="1" stop-color="#883F2E"/>
</linearGradient>
<linearGradient id="paint21_linear_179_500" x1="28.6264" y1="43.9381" x2="25.3517" y2="22.3013" gradientUnits="userSpaceOnUse">
<stop stop-color="#C4573A" stop-opacity="0"/>
<stop offset="0.235" stop-color="#BE5539" stop-opacity="0.235"/>
<stop offset="0.539" stop-color="#AE4E35" stop-opacity="0.539"/>
<stop offset="0.879" stop-color="#934330" stop-opacity="0.879"/>
<stop offset="1" stop-color="#883F2E"/>
</linearGradient>
<linearGradient id="paint22_linear_179_500" x1="27.5943" y1="49.8438" x2="26.8039" y2="53.9275" gradientUnits="userSpaceOnUse">
<stop stop-color="#C4573A" stop-opacity="0"/>
<stop offset="0.235" stop-color="#BE5539" stop-opacity="0.235"/>
<stop offset="0.539" stop-color="#AE4E35" stop-opacity="0.539"/>
<stop offset="0.879" stop-color="#934330" stop-opacity="0.879"/>
<stop offset="1" stop-color="#883F2E"/>
</linearGradient>
<linearGradient id="paint23_linear_179_500" x1="47.0722" y1="49.8438" x2="47.8627" y2="53.9275" gradientUnits="userSpaceOnUse">
<stop stop-color="#C4573A" stop-opacity="0"/>
<stop offset="0.235" stop-color="#BE5539" stop-opacity="0.235"/>
<stop offset="0.539" stop-color="#AE4E35" stop-opacity="0.539"/>
<stop offset="0.879" stop-color="#934330" stop-opacity="0.879"/>
<stop offset="1" stop-color="#883F2E"/>
</linearGradient>
<linearGradient id="paint24_linear_179_500" x1="37.2091" y1="27.631" x2="37.703" y2="34.2175" gradientUnits="userSpaceOnUse">
<stop stop-color="#FEA613"/>
<stop offset="1" stop-color="#C4573A"/>
</linearGradient>
<linearGradient id="paint25_linear_179_500" x1="38.719" y1="33.4866" x2="37.0037" y2="28.2885" gradientUnits="userSpaceOnUse">
<stop stop-color="#C4573A" stop-opacity="0"/>
<stop offset="0.235" stop-color="#BE5539" stop-opacity="0.235"/>
<stop offset="0.539" stop-color="#AE4E35" stop-opacity="0.539"/>
<stop offset="0.879" stop-color="#934330" stop-opacity="0.879"/>
<stop offset="1" stop-color="#883F2E"/>
</linearGradient>
<linearGradient id="paint26_linear_179_500" x1="31.6618" y1="27.9715" x2="32.024" y2="29.4864" gradientUnits="userSpaceOnUse">
<stop stop-color="#C4573A" stop-opacity="0"/>
<stop offset="0.235" stop-color="#BE5539" stop-opacity="0.235"/>
<stop offset="0.539" stop-color="#AE4E35" stop-opacity="0.539"/>
<stop offset="0.879" stop-color="#934330" stop-opacity="0.879"/>
<stop offset="1" stop-color="#883F2E"/>
</linearGradient>
<linearGradient id="paint27_linear_179_500" x1="34.0614" y1="26.4639" x2="36.6301" y2="32.7212" gradientUnits="userSpaceOnUse">
<stop stop-color="#FEF0AE"/>
<stop offset="1" stop-color="#FAC600"/>
</linearGradient>
<linearGradient id="paint28_linear_179_500" x1="36.8751" y1="30.9215" x2="36.3552" y2="28.7124" gradientUnits="userSpaceOnUse">
<stop stop-color="#FE9738" stop-opacity="0"/>
<stop offset="1" stop-color="#FE9738"/>
</linearGradient>
<linearGradient id="paint29_linear_179_500" x1="29.8157" y1="30.2743" x2="29.8157" y2="31.7163" gradientUnits="userSpaceOnUse">
<stop stop-color="#FE9738" stop-opacity="0"/>
<stop offset="1" stop-color="#FE9738"/>
</linearGradient>
<linearGradient id="paint30_linear_179_500" x1="27.824" y1="34.274" x2="28.8207" y2="34.274" gradientUnits="userSpaceOnUse">
<stop stop-color="#FE9738" stop-opacity="0"/>
<stop offset="1" stop-color="#FE9738"/>
</linearGradient>
<linearGradient id="paint31_linear_179_500" x1="26.8984" y1="36.4092" x2="26.7007" y2="37.529" gradientUnits="userSpaceOnUse">
<stop stop-color="#FE9738" stop-opacity="0"/>
<stop offset="1" stop-color="#FE9738"/>
</linearGradient>
<linearGradient id="paint32_linear_179_500" x1="22.1546" y1="43.7764" x2="26.7382" y2="51.6707" gradientUnits="userSpaceOnUse">
<stop stop-color="#F5FBFF"/>
<stop offset="1" stop-color="#DBD5EF"/>
</linearGradient>
<linearGradient id="paint33_linear_179_500" x1="24.468" y1="48.6494" x2="24.1178" y2="50.1774" gradientUnits="userSpaceOnUse">
<stop stop-color="#DBD5EF" stop-opacity="0"/>
<stop offset="0.285" stop-color="#D9D2EE" stop-opacity="0.285"/>
<stop offset="0.474" stop-color="#D4C9E9" stop-opacity="0.474"/>
<stop offset="0.635" stop-color="#CBBAE2" stop-opacity="0.635"/>
<stop offset="0.779" stop-color="#BFA5D7" stop-opacity="0.78"/>
<stop offset="0.913" stop-color="#AF8ACA" stop-opacity="0.913"/>
<stop offset="1" stop-color="#A274BF"/>
</linearGradient>
<linearGradient id="paint34_linear_179_500" x1="27.4437" y1="48.2789" x2="28.6369" y2="48.2789" gradientUnits="userSpaceOnUse">
<stop stop-color="#DBD5EF" stop-opacity="0"/>
<stop offset="0.285" stop-color="#D9D2EE" stop-opacity="0.285"/>
<stop offset="0.474" stop-color="#D4C9E9" stop-opacity="0.474"/>
<stop offset="0.635" stop-color="#CBBAE2" stop-opacity="0.635"/>
<stop offset="0.779" stop-color="#BFA5D7" stop-opacity="0.78"/>
<stop offset="0.913" stop-color="#AF8ACA" stop-opacity="0.913"/>
<stop offset="1" stop-color="#A274BF"/>
</linearGradient>
<linearGradient id="paint35_linear_179_500" x1="41.8794" y1="46.6369" x2="44.2945" y2="51.511" gradientUnits="userSpaceOnUse">
<stop stop-color="#5A5A5A"/>
<stop offset="1" stop-color="#444444"/>
</linearGradient>
<linearGradient id="paint36_linear_179_500" x1="40.1195" y1="47.5091" x2="42.5346" y2="52.3832" gradientUnits="userSpaceOnUse">
<stop stop-color="#5A5A5A"/>
<stop offset="1" stop-color="#444444"/>
</linearGradient>
<linearGradient id="paint37_linear_179_500" x1="11.1321" y1="2.56996" x2="43.67" y2="28.6529" gradientUnits="userSpaceOnUse">
<stop stop-color="#FEA613"/>
<stop offset="1" stop-color="#C4573A"/>
</linearGradient>
<linearGradient id="paint38_linear_179_500" x1="40.305" y1="17.0093" x2="46.6336" y2="17.0093" gradientUnits="userSpaceOnUse">
<stop stop-color="#C4573A" stop-opacity="0"/>
<stop offset="0.235" stop-color="#BE5539" stop-opacity="0.235"/>
<stop offset="0.539" stop-color="#AE4E35" stop-opacity="0.539"/>
<stop offset="0.879" stop-color="#934330" stop-opacity="0.879"/>
<stop offset="1" stop-color="#883F2E"/>
</linearGradient>
<linearGradient id="paint39_linear_179_500" x1="16.7124" y1="13.5935" x2="30.0503" y2="30.093" gradientUnits="userSpaceOnUse">
<stop stop-color="#C4573A" stop-opacity="0"/>
<stop offset="0.235" stop-color="#BE5539" stop-opacity="0.235"/>
<stop offset="0.539" stop-color="#AE4E35" stop-opacity="0.539"/>
<stop offset="0.879" stop-color="#934330" stop-opacity="0.879"/>
<stop offset="1" stop-color="#883F2E"/>
</linearGradient>
<linearGradient id="paint40_linear_179_500" x1="17.714" y1="25.1416" x2="16.9235" y2="29.2254" gradientUnits="userSpaceOnUse">
<stop stop-color="#C4573A" stop-opacity="0"/>
<stop offset="0.235" stop-color="#BE5539" stop-opacity="0.235"/>
<stop offset="0.539" stop-color="#AE4E35" stop-opacity="0.539"/>
<stop offset="0.879" stop-color="#934330" stop-opacity="0.879"/>
<stop offset="1" stop-color="#883F2E"/>
</linearGradient>
<linearGradient id="paint41_linear_179_500" x1="37.1918" y1="25.1416" x2="37.9822" y2="29.2254" gradientUnits="userSpaceOnUse">
<stop stop-color="#C4573A" stop-opacity="0"/>
<stop offset="0.235" stop-color="#BE5539" stop-opacity="0.235"/>
<stop offset="0.539" stop-color="#AE4E35" stop-opacity="0.539"/>
<stop offset="0.879" stop-color="#934330" stop-opacity="0.879"/>
<stop offset="1" stop-color="#883F2E"/>
</linearGradient>
<linearGradient id="paint42_linear_179_500" x1="27.3284" y1="2.92883" x2="27.8225" y2="9.51539" gradientUnits="userSpaceOnUse">
<stop stop-color="#FEA613"/>
<stop offset="1" stop-color="#C4573A"/>
</linearGradient>
<linearGradient id="paint43_linear_179_500" x1="21.7812" y1="3.26931" x2="22.1434" y2="4.78416" gradientUnits="userSpaceOnUse">
<stop stop-color="#C4573A" stop-opacity="0"/>
<stop offset="0.235" stop-color="#BE5539" stop-opacity="0.235"/>
<stop offset="0.539" stop-color="#AE4E35" stop-opacity="0.539"/>
<stop offset="0.879" stop-color="#934330" stop-opacity="0.879"/>
<stop offset="1" stop-color="#883F2E"/>
</linearGradient>
<linearGradient id="paint44_linear_179_500" x1="24.1807" y1="1.7618" x2="26.7495" y2="8.01903" gradientUnits="userSpaceOnUse">
<stop stop-color="#FEF0AE"/>
<stop offset="1" stop-color="#FAC600"/>
</linearGradient>
<linearGradient id="paint45_linear_179_500" x1="19.9351" y1="5.57213" x2="19.9351" y2="7.01413" gradientUnits="userSpaceOnUse">
<stop stop-color="#FE9738" stop-opacity="0"/>
<stop offset="1" stop-color="#FE9738"/>
</linearGradient>
<linearGradient id="paint46_linear_179_500" x1="17.9434" y1="9.57078" x2="18.9401" y2="9.57078" gradientUnits="userSpaceOnUse">
<stop stop-color="#FE9738" stop-opacity="0"/>
<stop offset="1" stop-color="#FE9738"/>
</linearGradient>
<linearGradient id="paint47_linear_179_500" x1="17.018" y1="11.706" x2="16.8203" y2="12.8256" gradientUnits="userSpaceOnUse">
<stop stop-color="#FE9738" stop-opacity="0"/>
<stop offset="1" stop-color="#FE9738"/>
</linearGradient>
<linearGradient id="paint48_linear_179_500" x1="12.2739" y1="19.0744" x2="16.8576" y2="26.9686" gradientUnits="userSpaceOnUse">
<stop stop-color="#F5FBFF"/>
<stop offset="1" stop-color="#DBD5EF"/>
</linearGradient>
<linearGradient id="paint49_linear_179_500" x1="14.5873" y1="23.9464" x2="14.2372" y2="25.4743" gradientUnits="userSpaceOnUse">
<stop stop-color="#DBD5EF" stop-opacity="0"/>
<stop offset="0.285" stop-color="#D9D2EE" stop-opacity="0.285"/>
<stop offset="0.474" stop-color="#D4C9E9" stop-opacity="0.474"/>
<stop offset="0.635" stop-color="#CBBAE2" stop-opacity="0.635"/>
<stop offset="0.779" stop-color="#BFA5D7" stop-opacity="0.78"/>
<stop offset="0.913" stop-color="#AF8ACA" stop-opacity="0.913"/>
<stop offset="1" stop-color="#A274BF"/>
</linearGradient>
<linearGradient id="paint50_linear_179_500" x1="17.5632" y1="23.5767" x2="18.7564" y2="23.5767" gradientUnits="userSpaceOnUse">
<stop stop-color="#DBD5EF" stop-opacity="0"/>
<stop offset="0.285" stop-color="#D9D2EE" stop-opacity="0.285"/>
<stop offset="0.474" stop-color="#D4C9E9" stop-opacity="0.474"/>
<stop offset="0.635" stop-color="#CBBAE2" stop-opacity="0.635"/>
<stop offset="0.779" stop-color="#BFA5D7" stop-opacity="0.78"/>
<stop offset="0.913" stop-color="#AF8ACA" stop-opacity="0.913"/>
<stop offset="1" stop-color="#A274BF"/>
</linearGradient>
<linearGradient id="paint51_linear_179_500" x1="31.9987" y1="21.9349" x2="34.4139" y2="26.8089" gradientUnits="userSpaceOnUse">
<stop stop-color="#5A5A5A"/>
<stop offset="1" stop-color="#444444"/>
</linearGradient>
<linearGradient id="paint52_linear_179_500" x1="30.2391" y1="22.806" x2="32.6542" y2="27.6801" gradientUnits="userSpaceOnUse">
<stop stop-color="#5A5A5A"/>
<stop offset="1" stop-color="#444444"/>
</linearGradient>
<clipPath id="clip0_179_500">
<rect width="56" height="56" fill="white"/>
</clipPath>
</defs>
</svg>
