<svg width="20" height="21" viewBox="0 0 20 21" fill="none" xmlns="http://www.w3.org/2000/svg">
<path fill-rule="evenodd" clip-rule="evenodd" d="M5.25762 18.0363L5.52726 18.5128C5.52742 18.513 5.52757 18.5133 5.5277 18.5135C5.74326 18.8969 5.6066 19.3862 5.22538 19.6015L4.30119 20.1253C4.30088 20.1255 4.30057 20.1256 4.30024 20.1258C3.91683 20.3413 3.42762 20.2047 3.21224 19.8233L0.49444 15.0211C0.27695 14.6373 0.413656 14.1477 0.795303 13.9321L1.7206 13.4083L1.72087 13.4081C2.10236 13.1927 2.59173 13.3281 2.80899 13.7096L2.80938 13.7103L3.02981 14.0998L5.46213 12.6916C6.18624 12.2729 6.92589 11.9987 7.72119 12.2569C8.4997 12.5093 9.77072 13.0534 11.0678 13.2878C11.0817 13.2903 11.0953 13.2937 11.1087 13.298C11.7559 13.5076 12.1497 14.1618 11.973 14.819C11.9427 14.9319 11.9013 15.036 11.8497 15.1301C12.0031 15.0897 12.1529 15.0277 12.2999 14.942L15.5953 13.0227C16.7788 12.3333 17.5675 12.4053 18.0141 12.7049C18.3965 12.9615 18.5734 13.3996 18.5619 13.8296C18.5504 14.2639 18.344 14.679 18.0034 14.8887L12.0237 18.5704C11.398 18.9566 10.7126 19.0471 10.0026 18.8577L10.0023 18.8576L5.79021 17.7287L5.25762 18.0363ZM3.33887 14.6459L4.94856 17.4902L5.58899 17.1204C5.62467 17.0998 5.66406 17.0864 5.70491 17.081C5.74576 17.0757 5.78727 17.0784 5.82707 17.0891L10.1645 18.2515C10.7017 18.3948 11.2207 18.3287 11.6942 18.0364L11.6944 18.0363L17.6744 14.3545C17.8327 14.257 17.9156 14.0613 17.9321 13.8606C17.9576 13.5515 17.8122 13.2106 17.43 13.1305C17.0788 13.0569 16.5842 13.1728 15.9112 13.5649L12.6159 15.4841C12.0903 15.7904 11.5394 15.875 10.9391 15.7794L10.938 15.7793L10.5294 15.7128L10.529 15.7127C10.5248 15.712 10.5206 15.7112 10.5164 15.7104L10.5159 15.7103C9.77248 15.5577 9.08299 15.3331 8.31793 15.1275C8.15072 15.0825 8.05142 14.9103 8.09636 14.7431C8.1413 14.5758 8.31354 14.4765 8.48075 14.5215C9.22883 14.7225 9.90311 14.943 10.6294 15.093C11.0056 15.1349 11.2805 14.9784 11.367 14.6562L11.3671 14.656C11.4548 14.3297 11.2506 14.013 10.9335 13.9011C9.61295 13.6589 8.32028 13.1107 7.52758 12.8537L7.52742 12.8537C6.90789 12.6525 6.34036 12.9085 5.77628 13.2347L3.33887 14.6459ZM2.26366 14.0199L2.26342 14.0195C2.21644 13.9378 2.11146 13.9082 2.02946 13.9544L1.10444 14.4781L1.10417 14.4783C1.02236 14.5245 0.993734 14.6295 1.04032 14.7116L1.0404 14.7118L3.75828 19.5143L3.75844 19.5145C3.80475 19.5965 3.91005 19.6252 3.99248 19.579L4.91601 19.0556L4.9164 19.0553C4.99844 19.009 5.02711 18.9037 4.98087 18.8212L2.26366 14.0199ZM1.90491 14.5319C2.11468 14.5007 2.30946 14.6455 2.34068 14.8553C2.37064 15.065 2.22581 15.261 2.01605 15.291C1.80628 15.3222 1.6115 15.1761 1.58028 14.9664C1.55032 14.7566 1.69515 14.5618 1.90491 14.5319ZM7.2357 4.19592C7.23569 4.14085 7.25018 4.08675 7.27772 4.03906C7.30525 3.99137 7.34486 3.95177 7.39256 3.92424L9.03899 2.97365L10.3839 2.19726L12.0303 1.24667C12.078 1.21913 12.1321 1.20464 12.1871 1.20464C12.2422 1.20464 12.2963 1.21913 12.344 1.24667L16.9817 3.92424C17.0294 3.95177 17.069 3.99137 17.0966 4.03907C17.1241 4.08676 17.1386 4.14085 17.1386 4.19592V9.55106C17.1386 9.60613 17.1241 9.66023 17.0966 9.70792C17.069 9.75561 17.0294 9.79521 16.9817 9.82275L12.344 12.5003C12.2963 12.5279 12.2422 12.5423 12.1871 12.5423C12.1321 12.5423 12.078 12.5279 12.0303 12.5003L7.39256 9.82275C7.34486 9.79522 7.30525 9.75562 7.27772 9.70792C7.25018 9.66023 7.23569 9.60613 7.2357 9.55106V4.19592ZM9.19585 3.60761L8.17687 4.19592L12.1871 6.51122L13.2061 5.9229L9.19585 3.60761ZM10.5407 2.83118L9.8233 3.24534L13.8336 5.56067L14.551 5.14651L10.5407 2.83118ZM16.1974 4.19592L12.1871 1.88063L11.1681 2.46894L15.1784 4.78424L16.1974 4.19592ZM12.5009 11.6852L16.5111 9.36992V4.7393L15.4922 5.32761V7.25561C15.4922 7.31068 15.4777 7.36478 15.4501 7.41247C15.4226 7.46016 15.383 7.49976 15.3353 7.5273L13.9904 8.30369C13.9427 8.33124 13.8886 8.34575 13.8335 8.34575C13.7785 8.34576 13.7243 8.33126 13.6767 8.30372C13.629 8.27618 13.5894 8.23656 13.5618 8.18886C13.5343 8.14115 13.5198 8.08704 13.5199 8.03196V6.46632L12.5009 7.05463V11.6852ZM7.86315 4.7393V9.36992L11.8734 11.6852V7.05463L7.86315 4.7393ZM14.8647 5.68988L14.1473 6.10404V7.48863L14.8647 7.07447V5.68988ZM16.4779 2.30467C16.4564 2.38502 16.4038 2.45352 16.3317 2.49511C16.2597 2.53671 16.1741 2.548 16.0937 2.52651C16.0133 2.50494 15.9448 2.45235 15.9033 2.38031C15.8617 2.30826 15.8504 2.22265 15.8719 2.14228L16.1753 1.00981C16.1968 0.929465 16.2494 0.860976 16.3215 0.819386C16.3935 0.777797 16.4791 0.766509 16.5595 0.788002C16.6399 0.809563 16.7084 0.862148 16.75 0.934198C16.7916 1.00625 16.8028 1.09187 16.7813 1.17224L16.4779 2.30467ZM18.081 5.9853C18.0007 5.96364 17.9322 5.91099 17.8907 5.83889C17.8492 5.7668 17.838 5.68117 17.8595 5.60083C17.9045 5.43365 18.0768 5.33439 18.244 5.37937L19.3772 5.6842C19.5444 5.72918 19.6437 5.90145 19.5987 6.06867C19.5537 6.23588 19.3815 6.3351 19.2142 6.29012L18.081 5.9853ZM18.0412 3.81424C17.9691 3.85579 17.8835 3.86704 17.8031 3.8455C17.7228 3.82396 17.6543 3.7714 17.6126 3.69937C17.5711 3.62731 17.5598 3.54169 17.5813 3.46133C17.6029 3.38097 17.6554 3.31245 17.7275 3.27083L18.7447 2.68357C18.8167 2.642 18.9024 2.63075 18.9827 2.65228C19.0631 2.67381 19.1316 2.72636 19.1732 2.79839C19.2148 2.87046 19.226 2.95607 19.2045 3.03643C19.183 3.11678 19.1304 3.1853 19.0584 3.22694L18.0412 3.81424ZM8.50244 2.14228C8.52393 2.22265 8.51264 2.30826 8.47104 2.38031C8.42945 2.45235 8.36095 2.50494 8.2806 2.52651C8.20023 2.548 8.11461 2.53671 8.04257 2.49511C7.97052 2.45352 7.91793 2.38502 7.89636 2.30467L7.59291 1.17224C7.57141 1.09187 7.5827 1.00625 7.6243 0.934198C7.6659 0.862148 7.7344 0.809563 7.81475 0.788002C7.89512 0.766509 7.98073 0.777797 8.05277 0.819386C8.12482 0.860976 8.17741 0.929465 8.19899 1.00981L8.50244 2.14228ZM6.13028 5.37937C6.21063 5.35781 6.29625 5.36902 6.36833 5.41054C6.44041 5.45207 6.49306 5.52051 6.51472 5.60083C6.53629 5.68117 6.52509 5.7668 6.48356 5.83889C6.44204 5.91099 6.37359 5.96364 6.29326 5.9853L5.16001 6.29012C4.99283 6.3351 4.82056 6.23588 4.77558 6.06867C4.7306 5.90145 4.82981 5.72918 4.99703 5.6842L6.13028 5.37937ZM6.64679 3.27083C6.71882 3.31245 6.77138 3.38097 6.79291 3.46133C6.81444 3.54169 6.80319 3.62731 6.76162 3.69937C6.67507 3.84934 6.48303 3.90079 6.33307 3.81424L5.31589 3.22694C5.24386 3.18532 5.19131 3.11679 5.16977 3.03644C5.14824 2.95608 5.1595 2.87046 5.20107 2.79839C5.24269 2.72636 5.31122 2.67381 5.39157 2.65228C5.47193 2.63075 5.55755 2.642 5.62962 2.68357L6.64679 3.27083Z" fill="#737791"/>
</svg>
