<svg width="57" height="57" viewBox="0 0 57 57" fill="none" xmlns="http://www.w3.org/2000/svg">
<g clip-path="url(#clip0_543_79805)">
<path d="M56.334 28.5C56.334 13.036 43.798 0.5 28.334 0.5C12.87 0.5 0.333984 13.036 0.333984 28.5C0.333984 43.964 12.87 56.5 28.334 56.5C43.798 56.5 56.334 43.964 56.334 28.5Z" fill="#1AA3FF"/>
<path d="M20.8482 22.9994L12.2885 25.2262C11.2308 25.5008 10.183 24.7504 10.1032 23.6611L9.45568 14.8389C9.401 14.0995 10.2344 13.6314 10.8382 14.0634L13.3768 15.8812C19.9404 8.15279 31.4455 6.62592 39.8346 12.6361C43.1465 15.0073 45.5024 18.2164 46.8215 21.7689C47.1835 22.7445 46.6279 23.8208 45.6194 24.08L42.6368 24.8478C41.7771 25.0687 40.8955 24.6083 40.5674 23.7825C39.6705 21.5239 38.1371 19.4884 36.0152 17.9692C30.5727 14.07 23.1647 14.9264 18.7372 19.7214L21.1391 21.4419C21.7429 21.8739 21.5679 22.8134 20.8504 23.0004L20.8482 22.9994ZM44.378 31.7734L35.8183 34.0003C35.0997 34.1873 34.9258 35.1269 35.5296 35.5589L37.9315 37.2794C33.5029 42.0744 26.096 42.9308 20.6535 39.0315C18.5316 37.5123 16.9971 35.4769 16.1013 33.2183C15.7732 32.3925 14.8927 31.9309 14.0319 32.1529L11.0493 32.9208C10.0408 33.18 9.48521 34.2562 9.84725 35.2319C11.1663 38.7833 13.5222 41.9923 16.8341 44.3647C25.2232 50.3748 36.7283 48.849 43.2919 41.1195L45.8305 42.9373C46.4332 43.3694 47.2666 42.9023 47.213 42.1619L46.5655 33.3397C46.4857 32.2503 45.4379 31.4989 44.3802 31.7745L44.378 31.7734Z" fill="#0D0D0D"/>
</g>
<defs>
<clipPath id="clip0_543_79805">
<rect width="56" height="56" fill="white" transform="translate(0.333984 0.5)"/>
</clipPath>
</defs>
</svg>
