<svg width="18" height="19" viewBox="0 0 18 19" fill="none" xmlns="http://www.w3.org/2000/svg">
<path d="M15.5729 9.94276L16.7029 10.949C16.9115 11.1231 17.051 11.3662 17.0959 11.6343C17.1409 11.9023 17.0883 12.1776 16.9479 12.4103L15.5854 14.7378C15.4797 14.9159 15.3287 15.063 15.1479 15.164C14.9649 15.2652 14.7595 15.319 14.5504 15.3203C14.4207 15.3211 14.2916 15.3017 14.1679 15.2628L12.7216 14.7853C12.4683 14.9478 12.205 15.0932 11.9316 15.2215L11.6279 16.6878C11.5717 16.9575 11.4215 17.1985 11.2041 17.3678C10.984 17.5401 10.7111 17.631 10.4316 17.6253H7.61037C7.33089 17.631 7.05799 17.5401 6.83787 17.3678C6.62097 17.1983 6.47125 16.9573 6.41537 16.6878L6.11037 15.2215C5.84062 15.0915 5.5789 14.9454 5.32662 14.784L3.87537 15.2628C3.75163 15.3017 3.62258 15.3211 3.49287 15.3203C3.2842 15.3188 3.07921 15.265 2.89662 15.164C2.71592 15.0633 2.565 14.9167 2.45912 14.739L1.04787 12.4103C0.901157 12.1755 0.845097 11.8953 0.8902 11.6221C0.935302 11.349 1.07847 11.1017 1.29287 10.9265L2.42162 9.50026V9.05776L1.29162 8.05151C1.08295 7.87738 0.943523 7.63429 0.898582 7.36624C0.853641 7.0982 0.906157 6.82293 1.04662 6.59026L2.45787 4.26276C2.56358 4.08459 2.71451 3.93754 2.89537 3.83651C3.07796 3.73547 3.28294 3.68176 3.49162 3.68026C3.62016 3.67215 3.74919 3.68396 3.87412 3.71526L5.29662 4.21526C5.55079 4.05276 5.81412 3.90734 6.08662 3.77901L6.39162 2.31276C6.4475 2.04322 6.59722 1.80225 6.81412 1.63276C7.03424 1.46044 7.30714 1.36948 7.58662 1.37526H10.3841C10.6636 1.36948 10.9365 1.46044 11.1566 1.63276C11.3754 1.80401 11.5254 2.04526 11.5791 2.31276L11.8841 3.77901C12.155 3.90818 12.4162 4.05401 12.6679 4.21651L14.1204 3.73901C14.2816 3.68657 14.4519 3.66816 14.6206 3.68494C14.7893 3.70172 14.9527 3.75333 15.1004 3.83651C15.2816 3.93901 15.4316 4.08651 15.5379 4.26151L16.9479 6.59026C17.0966 6.82304 17.1555 7.10196 17.1136 7.37499C17.0717 7.64801 16.932 7.89647 16.7204 8.07401L15.5729 9.05151V9.94276Z" stroke="#737791"/>
<path d="M12.125 9.5C12.125 10.3288 11.7958 11.1237 11.2097 11.7097C10.6237 12.2958 9.8288 12.625 9 12.625C8.1712 12.625 7.37634 12.2958 6.79029 11.7097C6.20424 11.1237 5.875 10.3288 5.875 9.5C5.875 8.6712 6.20424 7.87634 6.79029 7.29029C7.37634 6.70424 8.1712 6.375 9 6.375C9.8288 6.375 10.6237 6.70424 11.2097 7.29029C11.7958 7.87634 12.125 8.6712 12.125 9.5Z" stroke="#737791"/>
</svg>
