<svg width="20" height="21" viewBox="0 0 20 21" fill="none" xmlns="http://www.w3.org/2000/svg">
<path d="M10.0007 3.20703C10.1664 3.20703 10.3254 3.27288 10.4426 3.39009C10.5598 3.5073 10.6257 3.66627 10.6257 3.83203C10.6257 3.99779 10.5598 4.15676 10.4426 4.27397C10.3254 4.39118 10.1664 4.45703 10.0007 4.45703C8.3983 4.45703 6.86158 5.09356 5.72855 6.22659C4.59552 7.35963 3.95898 8.89635 3.95898 10.4987C3.95898 12.101 4.59552 13.6378 5.72855 14.7708C6.86158 15.9038 8.3983 16.5404 10.0007 16.5404C10.1664 16.5404 10.3254 16.6062 10.4426 16.7234C10.5598 16.8406 10.6257 16.9996 10.6257 17.1654C10.6257 17.3311 10.5598 17.4901 10.4426 17.6073C10.3254 17.7245 10.1664 17.7904 10.0007 17.7904C8.06678 17.7904 6.21212 17.0221 4.84466 15.6547C3.47721 14.2872 2.70898 12.4326 2.70898 10.4987C2.70898 8.56483 3.47721 6.71016 4.84466 5.34271C6.21212 3.97526 8.06678 3.20703 10.0007 3.20703Z" fill="#737791"/>
<path d="M13.7257 8.4417C13.6153 8.32322 13.5551 8.16652 13.558 8.0046C13.5609 7.84268 13.6265 7.68819 13.741 7.57368C13.8555 7.45917 14.01 7.39358 14.1719 7.39072C14.3338 7.38787 14.4905 7.44797 14.609 7.55837L17.109 10.0584C17.226 10.1756 17.2918 10.3344 17.2918 10.5C17.2918 10.6657 17.226 10.8245 17.109 10.9417L14.609 13.4417C14.5518 13.5031 14.4828 13.5524 14.4061 13.5865C14.3294 13.6207 14.2467 13.639 14.1628 13.6405C14.0788 13.642 13.9955 13.6266 13.9177 13.5951C13.8398 13.5637 13.7691 13.5169 13.7098 13.4576C13.6504 13.3982 13.6037 13.3275 13.5722 13.2497C13.5408 13.1719 13.5253 13.0885 13.5268 13.0046C13.5283 12.9207 13.5467 12.8379 13.5808 12.7613C13.615 12.6846 13.6642 12.6156 13.7257 12.5584L15.159 11.125H8.33398C8.16822 11.125 8.00925 11.0592 7.89204 10.942C7.77483 10.8248 7.70898 10.6658 7.70898 10.5C7.70898 10.3343 7.77483 10.1753 7.89204 10.0581C8.00925 9.94088 8.16822 9.87504 8.33398 9.87504H15.159L13.7257 8.4417Z" fill="#737791"/>
</svg>
