<svg width="57" height="56" viewBox="0 0 57 56" fill="none" xmlns="http://www.w3.org/2000/svg">
<path fill-rule="evenodd" clip-rule="evenodd" d="M4.07986 17.1484H9.85924C10.4422 17.1484 10.9191 17.6264 10.9191 18.2083V38.727C10.9191 39.31 10.4411 39.7869 9.85924 39.7869H4.07986C3.4969 39.7869 3.02002 39.3089 3.02002 38.727V18.2083C3.01893 17.6253 3.4969 17.1484 4.07986 17.1484Z" fill="#FF3131"/>
<path fill-rule="evenodd" clip-rule="evenodd" d="M18.4322 5.7793H24.2148C24.7978 5.7793 25.2747 6.25727 25.2747 6.83914V38.7263C25.2747 39.3093 24.7967 39.7862 24.2148 39.7862H18.4322C17.8492 39.7862 17.3745 39.3082 17.3745 38.7263V6.84023C17.3745 6.25727 17.8492 5.7793 18.4322 5.7793Z" fill="#FEA832"/>
<path fill-rule="evenodd" clip-rule="evenodd" d="M32.7864 12.5225H38.5691C39.152 12.5225 39.6267 13.0004 39.6267 13.5823V38.7265C39.6267 39.3095 39.152 39.7864 38.5691 39.7864H32.7864C32.2034 39.7864 31.7266 39.3084 31.7266 38.7265V13.5834C31.7255 13.0004 32.2034 12.5225 32.7864 12.5225Z" fill="#FF3131"/>
<path fill-rule="evenodd" clip-rule="evenodd" d="M47.1409 0H52.9203C53.5032 0 53.9801 0.477969 53.9801 1.05984V38.7264C53.9801 39.3094 53.5021 39.7863 52.9203 39.7863H47.1409C46.5579 39.7863 46.0811 39.3083 46.0811 38.7264V1.06094C46.0811 0.477969 46.5579 0 47.1409 0Z" fill="#FEA832"/>
<path fill-rule="evenodd" clip-rule="evenodd" d="M28.5012 55.9996C35.7156 55.9996 41.5999 50.1152 41.5999 42.8976C41.5999 35.6832 35.7156 29.7988 28.5012 29.7988C21.2835 29.7988 15.3992 35.6832 15.3992 42.8976C15.3992 50.1152 21.2835 55.9996 28.5012 55.9996Z" fill="#E6F1FA"/>
<path fill-rule="evenodd" clip-rule="evenodd" d="M24.6008 38.166H36.3794L33.7905 45.2349H27.193L24.6008 38.166Z" fill="#FFC107"/>
<path fill-rule="evenodd" clip-rule="evenodd" d="M29.5871 38.166H31.3951V40.7954H35.0843C35.1959 40.7954 35.2987 40.8173 35.3971 40.8512L34.7551 42.6034H31.394V45.236H29.586V42.6034H26.2282L25.5862 40.8512C25.6824 40.8173 25.7874 40.7954 25.8957 40.7954H29.5849V38.166H29.5871Z" fill="#CF9D05"/>
<path fill-rule="evenodd" clip-rule="evenodd" d="M31.4006 51.0298C31.8096 51.0298 32.1443 50.6952 32.1443 50.2828C32.1443 49.8738 31.8096 49.5391 31.4006 49.5391C30.9882 49.5391 30.6536 49.8738 30.6536 50.2828C30.6536 50.6952 30.9882 51.0298 31.4006 51.0298ZM27.8164 51.0298C28.2254 51.0298 28.5601 50.6952 28.5601 50.2828C28.5601 49.8738 28.2254 49.5391 27.8164 49.5391C27.404 49.5391 27.0693 49.8738 27.0693 50.2828C27.0693 50.6952 27.404 51.0298 27.8164 51.0298Z" fill="#455A64"/>
<path d="M33.4153 44.3299C33.914 44.3299 34.3209 44.7357 34.3209 45.2355C34.3209 45.7343 33.9151 46.1379 33.4153 46.1379H26.8769C26.8309 46.1379 26.7872 46.1598 26.7533 46.1904C26.7226 46.221 26.7008 46.268 26.7008 46.314C26.7008 46.3599 26.7226 46.407 26.7533 46.4376C26.7872 46.4715 26.8309 46.4901 26.8769 46.4901H33.4153C33.914 46.4901 34.3209 46.8937 34.3209 47.3924C34.3209 47.8912 33.9151 48.298 33.4153 48.298H26.8769C26.3311 48.298 25.8356 48.0749 25.4758 47.7151C25.1192 47.3552 24.8961 46.8598 24.8961 46.314C24.8961 45.7682 25.1192 45.2727 25.4758 44.9129C25.6245 44.7674 25.7919 44.6427 25.9811 44.5465L23.0542 36.5599H20.6206C20.1219 36.5599 19.7183 36.1541 19.7183 35.6543C19.7183 35.1577 20.1219 34.752 20.6206 34.752H23.6842C24.0933 34.752 24.4378 35.0221 24.5494 35.394L27.8229 44.3288H33.4153V44.3299Z" fill="#455A64"/>
<path fill-rule="evenodd" clip-rule="evenodd" d="M28.5012 29.7979C28.7276 29.7979 28.954 29.8011 29.1771 29.8132C22.257 30.1664 16.7543 35.89 16.7543 42.8966C16.7543 49.9064 22.257 55.63 29.1771 55.9833C28.954 55.9921 28.7276 55.9986 28.5012 55.9986C21.265 55.9986 15.3992 50.1329 15.3992 42.8966C15.3992 35.6636 21.265 29.7979 28.5012 29.7979Z" fill="#CFD9E1"/>
<path fill-rule="evenodd" clip-rule="evenodd" d="M4.07986 17.1484H5.65815C5.07518 17.1484 4.60049 17.6264 4.60049 18.2083V38.727C4.60049 39.31 5.07518 39.7869 5.65815 39.7869H4.07986C3.4969 39.7869 3.02002 39.3089 3.02002 38.727V18.2083C3.01893 17.6253 3.4969 17.1484 4.07986 17.1484Z" fill="#E62C2C"/>
<path fill-rule="evenodd" clip-rule="evenodd" d="M18.4321 5.7793H20.0136C19.4306 5.7793 18.9538 6.25727 18.9538 6.83914V33.9237C18.3619 34.5556 17.8332 35.2439 17.3755 35.9788V6.84023C17.3744 6.25727 17.8491 5.7793 18.4321 5.7793Z" fill="#E5972D"/>
<path fill-rule="evenodd" clip-rule="evenodd" d="M32.7864 12.5225H34.368C33.785 12.5225 33.3081 13.0004 33.3081 13.5823V30.7061C32.7963 30.5048 32.2691 30.3342 31.7266 30.1975V13.5834C31.7255 13.0004 32.2034 12.5225 32.7864 12.5225Z" fill="#E62C2C"/>
<path fill-rule="evenodd" clip-rule="evenodd" d="M47.1409 0H48.7225C48.1395 0 47.6626 0.477969 47.6626 1.05984V38.7264C47.6626 39.3094 48.1406 39.7863 48.7225 39.7863H47.1409C46.5579 39.7863 46.0811 39.3083 46.0811 38.7264V1.06094C46.0811 0.477969 46.5579 0 47.1409 0Z" fill="#E5972D"/>
</svg>
