<svg width="40" height="40" viewBox="0 0 40 40" fill="none" xmlns="http://www.w3.org/2000/svg">
<g clip-path="url(#clip0_195_22825)">
<path d="M33.2542 33.2583C40.5766 25.9359 40.5766 14.0641 33.2542 6.74175C25.9319 -0.580582 14.0601 -0.580582 6.73774 6.74175C-0.584586 14.0641 -0.584586 25.9359 6.73774 33.2583C14.0601 40.5806 25.9319 40.5806 33.2542 33.2583Z" fill="#46CC6B"/>
<path fill-rule="evenodd" clip-rule="evenodd" d="M38.4803 23.1815C37.1462 30.9877 30.987 37.1466 23.181 38.4808L13.0872 28.387C10.6718 26.3936 9.13232 23.377 9.13232 20.0007C9.13232 13.9984 13.9979 9.13281 20.0002 9.13281C23.3765 9.13281 26.3931 10.6723 28.3865 13.0877L38.4803 23.1815Z" fill="#179C5F"/>
<path fill-rule="evenodd" clip-rule="evenodd" d="M14.9132 20.646L18.0083 23.4884C18.4598 23.904 19.1587 23.8819 19.5833 23.4441L25.1051 18.1573C25.5542 17.7254 25.5678 17.0109 25.1358 16.5615C24.7037 16.1128 23.9896 16.0987 23.5404 16.5306L18.7575 21.1101L16.4422 18.9841C15.9836 18.562 15.269 18.5916 14.8467 19.0508C14.4245 19.5095 14.4543 20.2236 14.9132 20.646ZM20.0002 9.13281C26.0025 9.13281 30.8681 13.9984 30.8681 20.0007C30.8681 26.003 26.0025 30.8686 20.0002 30.8686C13.9979 30.8686 9.13232 26.003 9.13232 20.0007C9.13232 13.9984 13.9979 9.13281 20.0002 9.13281Z" fill="white"/>
</g>
<defs>
<clipPath id="clip0_195_22825">
<rect width="40" height="40" fill="white"/>
</clipPath>
</defs>
</svg>
