<svg width="57" height="57" viewBox="0 0 57 57" fill="none" xmlns="http://www.w3.org/2000/svg">
<g clip-path="url(#clip0_543_79814)">
<path d="M41.3125 25.3387V25.9725C41.3125 26.7491 41.4377 27.5207 41.6833 28.2575L43.1189 32.5644H45.8286V22.6289H44.0222C42.5257 22.629 41.3125 23.8421 41.3125 25.3387Z" fill="#5A4146"/>
<path d="M53.6779 27.2157L52.1495 32.5652L44.9236 26.2427C43.9259 26.2427 43.1172 25.4338 43.1172 24.4362C43.1172 22.9398 44.3304 21.7266 45.8268 21.7266H52.1494C53.1471 21.7266 53.9558 22.5354 53.9558 23.533V25.2307C53.9559 25.9021 53.8623 26.5701 53.6779 27.2157Z" fill="#694B4B"/>
<path d="M44.9238 35.2754H50.3431V39.2729H44.9238V35.2754Z" fill="#EABC8E"/>
<path d="M44.9238 36.9335C45.7615 37.2739 46.675 37.4655 47.6335 37.4655C48.5919 37.4655 49.5054 37.2739 50.3431 36.9335V35.2744H44.9238V36.9335Z" fill="#D8A881"/>
<path d="M54.7007 38.7108L50.3432 37.4659L47.6338 39.2639L44.9241 37.4658L40.5668 38.7108C40.0006 38.8726 39.5026 39.2144 39.148 39.6845C38.7934 40.1546 38.6016 40.7274 38.6016 41.3163V47.9199C38.6016 48.1594 38.6967 48.3892 38.8661 48.5586C39.0355 48.7279 39.2652 48.8231 39.5048 48.8231H55.7628C56.0024 48.8231 56.2321 48.7279 56.4015 48.5586C56.5709 48.3892 56.666 48.1594 56.666 47.9199V41.3163C56.666 40.7274 56.4742 40.1546 56.1196 39.6845C55.765 39.2144 55.2669 38.8726 54.7007 38.7108Z" fill="#1A233C"/>
<path d="M48.5369 48.8232H46.7305L47.1821 39.2725H48.0853L48.5369 48.8232Z" fill="#AFB9D2"/>
<path d="M47.6342 36.1783C44.6411 36.1783 42.2148 33.752 42.2148 30.759V29.7008C42.2148 29.2218 42.4052 28.7623 42.7439 28.4234L44.3818 26.7855C44.7286 26.4387 45.2029 26.2393 45.6931 26.2547C48.5804 26.3458 51.136 26.9644 52.5331 28.3288C52.8751 28.6628 53.0536 29.1301 53.0536 29.6081V30.759C53.0536 33.7521 50.6272 36.1783 47.6342 36.1783Z" fill="#F0C187"/>
<path d="M44.9245 29.9249C44.9245 28.883 45.7995 28.0548 46.8393 28.1211C48.6627 28.2375 51.3684 28.5422 53.0284 29.3406C52.9743 28.9596 52.8105 28.5998 52.5331 28.3288C51.136 26.9644 48.5804 26.3458 45.6931 26.2547L45.693 26.2548C45.2029 26.2394 44.7285 26.4388 44.3818 26.7855L42.744 28.4233C42.5762 28.591 42.4431 28.7902 42.3523 29.0094C42.2616 29.2286 42.2148 29.4635 42.2148 29.7007V30.7589C42.2148 33.2303 43.8709 35.3112 46.1327 35.9629C45.3798 35.034 44.9246 33.855 44.9246 32.5653L44.9245 29.9249Z" fill="#EABC8E"/>
<path d="M53.0527 44.0076C53.0527 43.2889 53.3382 42.5997 53.8464 42.0916L56.1713 39.7666C56.4821 40.2108 56.6656 40.7455 56.6656 41.3163V47.92C56.6656 48.1595 56.5705 48.3892 56.4011 48.5586C56.2317 48.728 56.0019 48.8232 55.7624 48.8232H53.0527V44.0076Z" fill="#263049"/>
<path d="M48.0853 41.0789H47.1821C47.0623 41.0789 46.9475 41.0313 46.8628 40.9466C46.7781 40.8619 46.7305 40.7471 46.7305 40.6273V39.2725H48.5369V40.6273C48.5369 40.6866 48.5252 40.7453 48.5025 40.8001C48.4798 40.8549 48.4466 40.9047 48.4046 40.9466C48.3627 40.9886 48.3129 41.0218 48.2581 41.0445C48.2033 41.0672 48.1446 41.0789 48.0853 41.0789Z" fill="#959CB5"/>
<path d="M47.6344 39.2635L46.1034 40.4328C46.0414 40.4802 45.9698 40.5137 45.8937 40.5308C45.8175 40.548 45.7385 40.5485 45.6621 40.5323C45.5858 40.5162 45.5138 40.4837 45.4511 40.4371C45.3884 40.3905 45.3366 40.3309 45.2991 40.2624L43.9258 37.7545L44.4786 36.9113C44.5074 36.8673 44.5454 36.8302 44.59 36.8025C44.6347 36.7747 44.6848 36.7571 44.737 36.7507C44.7891 36.7443 44.8421 36.7494 44.8921 36.7656C44.942 36.7818 44.9879 36.8087 45.0264 36.8445L47.6344 39.2635ZM47.6344 39.2635L49.1653 40.4329C49.2273 40.4803 49.2989 40.5138 49.3751 40.5309C49.4512 40.5481 49.5302 40.5486 49.6066 40.5325C49.683 40.5163 49.755 40.4838 49.8176 40.4372C49.8803 40.3906 49.9321 40.331 49.9696 40.2625L51.3429 37.7546L50.7902 36.9114C50.7614 36.8674 50.7233 36.8303 50.6787 36.8026C50.634 36.7748 50.5839 36.7572 50.5317 36.7508C50.4796 36.7444 50.4267 36.7495 50.3767 36.7657C50.3267 36.7819 50.2808 36.8088 50.2423 36.8446L47.6344 39.2635Z" fill="#263049"/>
<path d="M16.8335 35.8006C16.0617 33.7555 15.4495 30.2398 15.3173 28.4094C15.0657 24.9263 12.4408 22.0869 8.89247 22.0869C5.34413 22.0869 2.71924 24.9264 2.46768 28.4094C2.33544 30.2397 1.72327 33.7555 0.951411 35.8006C0.781333 36.2514 0.977661 36.7485 1.42161 36.9498C2.24871 37.3246 4.01216 38.0589 6.13896 38.345H11.6459C13.7627 38.0583 15.5385 37.3235 16.3632 36.9498C16.8073 36.7485 17.0036 36.2514 16.8335 35.8006Z" fill="#5A4146"/>
<path d="M16.3632 36.9498C16.8071 36.7485 17.0035 36.2514 16.8333 35.8006C16.0616 33.7555 15.4493 30.2398 15.3172 28.4094C15.0657 24.9263 12.4407 22.0869 8.89247 22.0869L8.86567 22.087C6.143 22.0981 5.18083 25.8112 7.52462 27.1967C7.66539 27.2799 7.75562 27.32 7.75562 27.32L9.80848 38.345H11.6459C13.7627 38.0581 15.5385 37.3234 16.3632 36.9498Z" fill="#694B4B"/>
<path d="M15.4262 40.1581L12.5032 38.6968C12.2031 38.5467 11.9508 38.3161 11.7744 38.0307C11.598 37.7453 11.5046 37.4164 11.5046 37.0809L11.5049 34.3711H6.08533V37.081C6.08533 37.4164 5.99191 37.7453 5.81554 38.0307C5.63916 38.316 5.3868 38.5466 5.08673 38.6967L2.1638 40.1581C1.71372 40.3831 1.33521 40.729 1.07066 41.1571C0.806118 41.5851 0.666002 42.0784 0.666016 42.5815L0.666016 47.9193C0.666016 48.1588 0.761176 48.3886 0.930562 48.5579C1.09995 48.7273 1.32969 48.8225 1.56923 48.8225H16.0208C16.2604 48.8225 16.4901 48.7273 16.6595 48.5579C16.8289 48.3886 16.9241 48.1588 16.9241 47.9193V42.5817C16.9241 42.0784 16.7839 41.5852 16.5194 41.1571C16.2548 40.7291 15.8763 40.3832 15.4262 40.1581Z" fill="#EABC8E"/>
<path d="M8.7937 37.984C9.76627 37.984 10.6978 37.7835 11.5518 37.4266C11.5294 37.3127 11.5033 37.1995 11.5033 37.0809L11.5035 34.3711H6.08394V37.081C6.08394 37.2003 6.0578 37.314 6.03516 37.4283C6.8897 37.7834 7.82081 37.984 8.7937 37.984Z" fill="#D8A881"/>
<path d="M15.4262 40.1584L13.3439 39.1173C12.3783 40.6083 10.7037 41.5972 8.79509 41.5972C6.8865 41.5972 5.21175 40.6083 4.24619 39.1172L2.16391 40.1584C1.71382 40.3834 1.33529 40.7293 1.07072 41.1574C0.806162 41.5854 0.666025 42.0787 0.666016 42.5819L0.666016 47.9196C0.666016 48.1591 0.761176 48.3889 0.930562 48.5583C1.09995 48.7276 1.32969 48.8228 1.56923 48.8228H16.0208C16.2604 48.8228 16.4901 48.7276 16.6595 48.5583C16.8289 48.3889 16.9241 48.1591 16.9241 47.9196V42.582C16.9241 42.0788 16.7839 41.5855 16.5194 41.1574C16.2548 40.7294 15.8763 40.3835 15.4262 40.1584Z" fill="#1A233C"/>
<path d="M8.79644 36.1771C6.04107 36.1771 3.76607 34.1208 3.42208 31.4592C3.37221 31.0735 3.5576 30.6954 3.90475 30.5203C4.3206 30.3105 4.92489 29.9568 5.50349 29.4405C6.14782 28.8657 6.52582 28.2594 6.73932 27.8144C6.92318 27.4311 7.3458 27.2143 7.75771 27.3194C10.9379 28.1306 13.103 29.7851 13.8885 30.4606C14.0994 30.6419 14.2209 30.9093 14.1992 31.1867C13.9804 33.9791 11.6451 36.1771 8.79644 36.1771Z" fill="#F0C187"/>
<path d="M13.8884 30.4606C13.1029 29.7851 10.9378 28.1306 7.75757 27.3194C7.34566 27.2143 6.92304 27.4311 6.73918 27.8144C6.57752 28.1514 6.31032 28.5809 5.91384 29.0192L5.91329 29.0223C5.79024 29.1617 5.65921 29.3015 5.50346 29.4406C4.92487 29.957 4.32057 30.3106 3.90473 30.5204C3.55757 30.6955 3.37229 31.0737 3.42205 31.4594C3.73104 33.8498 5.60157 35.7525 7.97479 36.1154C6.8934 35.3797 6.08676 34.368 6.08676 32.5644V31.2764C6.29194 31.1249 6.49855 30.9739 6.70615 30.7886C7.20553 30.3432 7.6403 29.8303 7.99787 29.2647C10.4307 30.0238 12.0801 31.2883 12.7054 31.826C12.8765 31.9761 13.3014 32.3676 13.7984 32.8339C14.0122 32.3193 14.1536 31.7672 14.199 31.1869C14.2208 30.9094 14.0992 30.642 13.8884 30.4606Z" fill="#EABC8E"/>
<path d="M1.21661 40.9541C0.868687 41.4159 0.666016 41.9823 0.666016 42.5823V47.92C0.666016 48.1595 0.761176 48.3893 0.930562 48.5586C1.09995 48.728 1.32969 48.8232 1.56923 48.8232H4.27889V44.2721C4.27889 43.7234 4.02941 43.2043 3.60087 42.8615L1.21661 40.9541Z" fill="#263049"/>
<path d="M41.6439 38.9259L34.0866 36.1777L28.6673 37.9843L23.248 36.1778L15.6907 38.926C14.9938 39.1794 14.3917 39.6412 13.9662 40.2486C13.5407 40.8561 13.3125 41.5797 13.3125 42.3213V47.9198C13.3125 48.1593 13.4077 48.3891 13.577 48.5585C13.7464 48.7279 13.9762 48.823 14.2157 48.823H43.1189C43.3585 48.823 43.5882 48.7279 43.7576 48.5585C43.927 48.3891 44.0222 48.1593 44.0222 47.9198V42.3213C44.0222 41.5797 43.794 40.856 43.3685 40.2486C42.943 39.6411 42.3409 39.1793 41.6439 38.9259Z" fill="#FF6A8F"/>
<path d="M27.7196 39.791L26.8594 48.8231H30.4722L29.612 39.791H27.7196Z" fill="#707487"/>
<path d="M29.6148 41.0318H27.7182C27.6352 41.0318 27.553 41.0155 27.4762 40.9837C27.3995 40.9519 27.3298 40.9053 27.2711 40.8466C27.2124 40.7879 27.1658 40.7182 27.134 40.6415C27.1023 40.5647 27.0859 40.4825 27.0859 40.3995V37.9844H30.247V40.3995C30.247 40.4825 30.2307 40.5647 30.1989 40.6414C30.1671 40.7182 30.1206 40.7879 30.0619 40.8466C30.0032 40.9053 29.9335 40.9519 29.8568 40.9836C29.78 41.0154 29.6978 41.0318 29.6148 41.0318Z" fill="#5B5D6E"/>
<path d="M43.0486 39.8594C43.6585 40.514 44.0209 41.3858 44.0209 42.321V47.9194C44.0209 48.159 43.9257 48.3887 43.7563 48.5581C43.5869 48.7275 43.3572 48.8227 43.1177 48.8227H38.6016V45.803C38.6016 44.8448 38.9822 43.9258 39.6598 43.2484L43.0486 39.8594Z" fill="#D75179"/>
<path d="M38.6015 17.5507V9.98417C38.6015 8.98645 37.7927 8.17773 36.7951 8.17773H25.9563C21.9657 8.17773 18.7305 11.4128 18.7305 15.4036V17.5507C18.7305 18.5215 18.887 19.486 19.194 20.407L19.4947 21.309C19.5868 21.5853 19.6337 21.8746 19.6337 22.1658V22.6293H37.6982V22.1658C37.6982 21.8745 37.7451 21.5852 37.8372 21.309L38.1379 20.407C38.445 19.486 38.6015 18.5215 38.6015 17.5507Z" fill="#5A4146"/>
<path d="M23.2461 11.847C23.2461 13.8735 24.8889 15.5164 26.9154 15.5164H27.4235L27.6687 22.6292H37.6976V22.1657C37.6976 21.8744 37.7445 21.5851 37.8366 21.3089L38.1373 20.4068C38.4443 19.4859 38.6008 18.5214 38.6008 17.5506V9.98417C38.6008 8.98645 37.792 8.17773 36.7944 8.17773H26.9154C24.8889 8.17773 23.2461 9.82055 23.2461 11.847Z" fill="#694B4B"/>
<path d="M23.2461 29.8555H34.0852V37.9842H23.2461V29.8555Z" fill="#EABC8E"/>
<path d="M23.2462 32.9097C24.8418 33.834 26.689 34.3716 28.6655 34.3716C30.642 34.3716 32.4894 33.834 34.0848 32.9097V29.8555H23.2461L23.2462 32.9097Z" fill="#D8A881"/>
<path d="M28.6652 37.9842L25.7845 40.8649C25.3973 41.2521 24.7573 41.2084 24.4264 40.7722L21.4395 36.8365L22.2207 35.1901C22.4513 34.7042 23.0526 34.5262 23.5105 34.8084L28.6652 37.9842ZM28.6652 37.9842L31.5459 40.8649C31.9331 41.2521 32.5731 41.2084 32.904 40.7722L35.891 36.8365L35.1097 35.1901C34.8791 34.7042 34.2778 34.5262 33.8199 34.8084L28.6652 37.9842Z" fill="#D75179"/>
<path d="M28.6651 32.5653C23.6767 32.5653 19.6328 28.5213 19.6328 23.533V22.4748C19.6328 21.9957 19.8231 21.5362 20.1619 21.1974L20.9101 20.4491C21.0778 20.2814 21.2109 20.0822 21.3017 19.8631C21.3924 19.6439 21.4392 19.409 21.4391 19.1717V17.0066C21.4391 16.5883 21.72 16.225 22.127 16.1288C24.2632 15.6243 30.9107 14.4291 35.4345 17.7563C35.7283 17.9723 35.8907 18.3273 35.8907 18.6919V19.1717C35.8907 19.6508 36.0811 20.1103 36.4198 20.4491L37.168 21.1974C37.3358 21.3651 37.4688 21.5643 37.5596 21.7835C37.6504 22.0026 37.6971 22.2375 37.6971 22.4748V23.533C37.6974 28.5213 33.6535 32.5653 28.6651 32.5653Z" fill="#F0C187"/>
<path d="M35.4347 17.7558C32.2529 15.4157 28.0266 15.3144 25.0522 15.6348C23.7976 15.7699 22.7609 15.9787 22.1272 16.1283C21.7202 16.2244 21.4394 16.5878 21.4394 17.006V19.1711C21.4394 19.6503 21.249 20.1098 20.9102 20.4486L20.162 21.1968C19.9942 21.3646 19.8611 21.5638 19.7703 21.783C19.6795 22.0021 19.6328 22.2371 19.6328 22.4743V23.5324C19.6328 28.1507 23.1011 31.9527 27.5737 32.4924C26.0152 30.8694 25.0521 28.67 25.0521 26.2421V19.6401C25.0521 18.7247 25.7328 17.9598 26.6409 17.8459C28.8085 17.5741 32.7786 17.4107 35.8907 19.1713V18.6914C35.891 18.3267 35.7282 17.9717 35.4347 17.7558Z" fill="#EABC8E"/>
<path d="M14.2847 39.8594C13.6749 40.514 13.3125 41.3858 13.3125 42.321V47.9194C13.3125 48.159 13.4077 48.3887 13.577 48.5581C13.7464 48.7275 13.9762 48.8227 14.2157 48.8227H18.7318V45.803C18.7318 44.8448 18.3512 43.9258 17.6736 43.2484L14.2847 39.8594Z" fill="#D75179"/>
</g>
<defs>
<clipPath id="clip0_543_79814">
<rect width="56" height="56" fill="white" transform="translate(0.666016 0.5)"/>
</clipPath>
</defs>
</svg>
