<svg width="40" height="40" viewBox="0 0 40 40" fill="none" xmlns="http://www.w3.org/2000/svg">
<path fill-rule="evenodd" clip-rule="evenodd" d="M22.6558 35.7721C32.209 35.7721 40 27.9811 40 18.4302C40 8.87695 32.209 1.08594 22.6558 1.08594C13.1049 1.08594 5.31396 8.87695 5.31396 18.4302C5.31396 27.9811 13.105 35.7721 22.6558 35.7721Z" fill="#24D1F8"/>
<path fill-rule="evenodd" clip-rule="evenodd" d="M29.7204 34.2717C35.7765 31.567 39.9976 25.4903 39.9976 18.4302C39.9976 8.85195 32.234 1.08594 22.6558 1.08594C19.0016 1.08594 15.6115 2.2175 12.8157 4.14812C14.974 3.18508 17.3623 2.64773 19.8804 2.64773C29.4563 2.64773 37.2222 10.4137 37.2222 19.992C37.2222 25.9138 34.2511 31.1435 29.7204 34.2717Z" fill="#20BDE0"/>
<path fill-rule="evenodd" clip-rule="evenodd" d="M5.78748 14.3943C7.62482 14.4512 9.2299 14.6675 9.67842 15.2071C10.8874 16.655 9.42342 19.7764 12.8272 20.2114C19.2066 21.0287 20.1583 29.8124 15.9326 34.4205C9.69436 31.7954 5.31396 25.6232 5.31396 18.431C5.31389 17.0399 5.47779 15.6897 5.78748 14.3943ZM31.1594 33.5462L25.5791 28.2027L25.6269 22.3583C25.6269 22.3583 17.8177 16.1292 22.2733 14.5491C26.7288 12.969 28.9327 19.0525 33.6273 19.0525C35.8472 19.0525 38.1626 19.0206 39.9885 18.9864C39.7928 25.2407 36.2844 30.657 31.1594 33.5462Z" fill="#23F1A8"/>
<path fill-rule="evenodd" clip-rule="evenodd" d="M31.1595 33.5461L30.9478 33.3434C34.7795 30.1605 37.2224 25.3612 37.2224 19.9927C37.2224 19.6694 37.2133 19.3484 37.1951 19.0296C38.1923 19.0182 39.144 19.0023 39.9887 18.9863C39.9022 21.723 39.1828 24.298 37.9715 26.5724C37.9305 26.6498 37.8873 26.7273 37.844 26.8047L37.8349 26.8229C37.7938 26.8958 37.7529 26.9709 37.7096 27.0437L37.696 27.0688C37.6549 27.1417 37.6117 27.2145 37.5685 27.2874L37.5593 27.3034C37.2823 27.7658 36.9844 28.2156 36.6668 28.6512L36.6509 28.6739C36.6031 28.7377 36.5575 28.7991 36.5097 28.8629L36.4801 28.9039C36.4345 28.9636 36.3882 29.0228 36.3412 29.0815L36.3048 29.1293C36.2597 29.188 36.2134 29.2457 36.1659 29.3023L36.1295 29.3479C36.0817 29.4071 36.0338 29.464 35.986 29.5232L35.9587 29.5573C35.6824 29.8868 35.3938 30.2058 35.0935 30.5136C35.0799 30.5273 35.0662 30.5432 35.0525 30.5569C35.0047 30.607 34.9546 30.6548 34.9068 30.7048C34.8863 30.723 34.8681 30.7435 34.8476 30.7618C34.8021 30.8096 34.752 30.8552 34.7042 30.903C34.6837 30.9212 34.6655 30.9416 34.6449 30.9599C34.5971 31.0055 34.5493 31.051 34.4992 31.0966C34.4786 31.1169 34.4573 31.1367 34.4355 31.1558C34.3877 31.2013 34.3399 31.2469 34.2898 31.2901C34.2693 31.3083 34.2488 31.3265 34.2283 31.347C34.176 31.3926 34.1259 31.4381 34.0757 31.4813C34.0598 31.495 34.0461 31.5064 34.0324 31.52C33.8412 31.6839 33.6477 31.8478 33.4496 32.0049L33.436 32.0141C33.3836 32.0573 33.3289 32.0983 33.2743 32.1416C33.2516 32.1575 33.2288 32.1757 33.206 32.1939C33.1582 32.2326 33.1081 32.2691 33.0581 32.3055C33.0307 32.3259 33.0035 32.3487 32.9738 32.3692C32.926 32.4034 32.8782 32.4398 32.8304 32.474C32.8008 32.4967 32.7712 32.5173 32.7416 32.5377C32.6938 32.5741 32.646 32.6083 32.5959 32.6425C32.5663 32.663 32.5367 32.6835 32.5048 32.704C32.4567 32.7381 32.4082 32.7715 32.3591 32.8041C32.3295 32.8246 32.2976 32.8452 32.268 32.8656C32.2179 32.8998 32.1678 32.9316 32.1178 32.9658C32.0904 32.984 32.0608 33.0022 32.0335 33.0204C31.9789 33.0545 31.9265 33.0887 31.8719 33.1228L31.8378 33.1433C31.7017 33.2289 31.5643 33.3124 31.4256 33.3937C31.417 33.3999 31.4079 33.4052 31.3983 33.4097C31.3437 33.4416 31.2913 33.4712 31.2389 33.503C31.2118 33.5165 31.1867 33.5324 31.1595 33.5461Z" fill="#1FDA98"/>
<path fill-rule="evenodd" clip-rule="evenodd" d="M16.4517 2.22891C16.8979 3.8818 17.458 5.44367 18.034 5.71C19.3272 6.30875 21.3148 4.63086 22.296 7.02594C24.3246 11.971 32.1065 10.2338 33.896 5.22273C30.868 2.6432 26.9452 1.08594 22.6558 1.08594C20.4701 1.08602 18.38 1.49125 16.4517 2.22891Z" fill="#23F1A8"/>
<path fill-rule="evenodd" clip-rule="evenodd" d="M16.4517 2.22883C16.5166 2.46958 16.585 2.70942 16.6566 2.94828C17.6993 2.75023 18.7785 2.64773 19.8804 2.64773C24.7025 2.64773 29.0648 4.61711 32.2089 7.79547C32.9466 7.08516 33.5408 6.22 33.896 5.22273C33.8641 5.19539 33.8322 5.16813 33.8003 5.14305C33.7376 5.0887 33.6738 5.03557 33.6091 4.98367C33.5567 4.94039 33.5043 4.89945 33.452 4.85617C33.3835 4.80159 33.3144 4.74771 33.2448 4.69453C33.2084 4.66719 33.1719 4.63758 33.1355 4.61031C33.0649 4.55797 32.9943 4.50328 32.9238 4.45094C32.8851 4.42359 32.8463 4.39633 32.8077 4.36672C32.7371 4.31664 32.6688 4.26656 32.5982 4.21875C32.5481 4.18234 32.4981 4.1482 32.448 4.11398C32.3888 4.07531 32.3319 4.0343 32.2727 3.99563C32.2089 3.95461 32.1474 3.91367 32.0837 3.87266C32.0291 3.83625 31.9744 3.80211 31.9198 3.76563C31.8606 3.72922 31.7991 3.69047 31.7399 3.65406C31.6785 3.61539 31.617 3.57891 31.5532 3.54023C31.4963 3.50609 31.4371 3.47195 31.3802 3.43781C31.321 3.40367 31.2618 3.36953 31.2003 3.33539C31.1274 3.29438 31.0546 3.25117 30.9795 3.21242C30.9362 3.18734 30.893 3.16461 30.8474 3.13953C30.7715 3.09796 30.6949 3.05772 30.6175 3.01883C30.5765 2.99609 30.5333 2.97555 30.4923 2.95508C30.4103 2.9118 30.3284 2.87313 30.2464 2.83211C30.2031 2.81164 30.1622 2.79109 30.1189 2.77063C30.0319 2.7292 29.9446 2.68821 29.8571 2.64766C29.8138 2.62945 29.7729 2.60898 29.7296 2.5907C29.6352 2.54801 29.5403 2.50626 29.445 2.46547L29.3494 2.42445L29.0625 2.30836C29.0306 2.29695 28.9988 2.28328 28.9692 2.27195C28.869 2.23328 28.7665 2.19453 28.6663 2.15586C28.6413 2.14672 28.614 2.13766 28.5889 2.12852C28.4774 2.0875 28.3658 2.04883 28.2542 2.01016L28.1905 1.98742C28.0721 1.94875 27.9537 1.91 27.8353 1.87359C27.8149 1.8668 27.7967 1.85992 27.7761 1.85539C27.6623 1.81886 27.5476 1.78471 27.4324 1.75297L27.3731 1.73477C27.2548 1.70289 27.1386 1.67102 27.0203 1.63914L26.9679 1.62773C26.8427 1.59359 26.7152 1.56398 26.5877 1.53438L26.5649 1.52984C26.4296 1.49784 26.2938 1.46822 26.1574 1.44102L26.1392 1.43648C26.0072 1.40914 25.8728 1.38414 25.7408 1.35906L25.7089 1.35453C25.5769 1.3318 25.4449 1.30898 25.3105 1.28852L25.2854 1.28398C25.1465 1.26352 25.0077 1.24297 24.8665 1.22703L24.8642 1.22477C24.5752 1.18794 24.2852 1.1591 23.9946 1.13828L23.9854 1.13602L23.5551 1.10867H23.5414C23.3957 1.10188 23.25 1.095 23.1043 1.09273C22.9549 1.0882 22.8053 1.08594 22.6558 1.08594C22.0297 1.08594 21.4104 1.12008 20.8025 1.18383L20.7888 1.18609C20.7365 1.19062 20.6841 1.1975 20.6317 1.2043H20.6272C20.5794 1.20883 20.5293 1.2157 20.4792 1.2225L20.4565 1.22477C20.4087 1.23156 20.3631 1.23617 20.3153 1.24297L20.2767 1.2475C20.2356 1.2543 20.1924 1.26117 20.1492 1.2657L20.0991 1.27484C20.0695 1.27711 20.0399 1.28164 20.0103 1.28625C19.9898 1.29078 19.9692 1.29305 19.9488 1.29766C19.9124 1.30219 19.8736 1.30906 19.8372 1.31359L19.7643 1.32727L19.7097 1.33641C19.6642 1.3432 19.6163 1.35234 19.5708 1.36148L19.5435 1.36602C18.4884 1.55741 17.4534 1.84625 16.4517 2.22883Z" fill="#1FDA98"/>
<path fill-rule="evenodd" clip-rule="evenodd" d="M1.53003 21.4785H19.7189V32.1314H1.53003V21.4785Z" fill="#FFC06C"/>
<path fill-rule="evenodd" clip-rule="evenodd" d="M11.8186 21.4785H19.7189V32.1314H11.8186V21.4785Z" fill="#EDA558"/>
<path fill-rule="evenodd" clip-rule="evenodd" d="M18.2776 21.4785H19.7188V32.1314H18.2776V21.4785Z" fill="#E1994C"/>
<path fill-rule="evenodd" clip-rule="evenodd" d="M14.4324 21.4785H17.1029V26.9791L15.7688 25.6449L14.4324 26.9791V21.4785Z" fill="#FF4C4C"/>
<path fill-rule="evenodd" clip-rule="evenodd" d="M15.7686 21.4785H17.1027V26.9791L15.7686 25.6449V21.4785Z" fill="#D11E1E"/>
<path fill-rule="evenodd" clip-rule="evenodd" d="M1.04727 32.1309H30.3489C30.9249 32.1309 31.3962 32.6021 31.3962 33.1781V35.7645C31.3962 36.3405 30.9249 36.8118 30.3489 36.8118H1.04727C0.47125 36.8119 0 36.3405 0 35.7645V33.1782C0 32.6022 0.47125 32.1309 1.04727 32.1309Z" fill="#CD353E"/>
<path fill-rule="evenodd" clip-rule="evenodd" d="M20.8232 6.27189C22.9018 4.19322 26.3032 4.19322 28.3819 6.27189C30.4606 8.35057 30.4606 11.752 28.3819 13.8306L24.6025 17.61L20.8232 13.8306C18.7445 11.752 18.7445 8.35057 20.8232 6.27189Z" fill="#FF4C4C"/>
<path fill-rule="evenodd" clip-rule="evenodd" d="M22.3187 7.76826C23.5801 6.50693 25.6246 6.50693 26.8859 7.76826C28.1472 9.02959 28.1472 11.0741 26.8859 12.3354C25.6245 13.5967 23.58 13.5967 22.3187 12.3354C21.0575 11.0741 21.0575 9.02959 22.3187 7.76826Z" fill="white"/>
<path fill-rule="evenodd" clip-rule="evenodd" d="M27.478 6.27254C29.5567 8.35121 29.5567 11.7526 27.478 13.8313L26.3464 14.9629L24.1494 17.1599L24.6025 17.6107L27.091 15.1222L28.3819 13.8313C30.4606 11.7526 30.4606 8.35121 28.3819 6.27254C28.0391 5.92884 27.6507 5.63389 27.2276 5.39598C26.2805 4.86551 25.2036 4.64465 24.1495 4.73114C25.2605 4.8245 26.3465 5.26161 27.2322 6.04028C27.3163 6.11538 27.3983 6.19283 27.478 6.27254Z" fill="#D11E1E"/>
<path fill-rule="evenodd" clip-rule="evenodd" d="M24.2905 6.83711C25.2172 6.74828 26.1757 7.05797 26.886 7.76828C28.1473 9.02961 28.1473 11.0741 26.886 12.3354C26.1757 13.0457 25.2172 13.3554 24.2905 13.2666C25.01 13.1983 25.7112 12.8863 26.2622 12.3354C27.5235 11.0741 27.5235 9.02953 26.2622 7.76828C25.7112 7.21735 25.01 6.90774 24.2905 6.83711Z" fill="#E6E6E6"/>
<path fill-rule="evenodd" clip-rule="evenodd" d="M21.4834 36.8116H32.8807V26.4252L29.1036 21.3571C28.753 20.8835 28.2453 20.6309 27.6579 20.6309H22.7561C22.0549 20.6309 21.4834 21.2023 21.4834 21.9035V36.8116Z" fill="#FF4C4C"/>
<path fill-rule="evenodd" clip-rule="evenodd" d="M23.4321 22.4395V26.426H30.6198L27.6874 22.4895C27.6532 22.444 27.6418 22.4395 27.5872 22.4395H23.4321Z" fill="#F0F0FC"/>
<path fill-rule="evenodd" clip-rule="evenodd" d="M26.5833 22.4395L29.5521 26.426H30.6199L27.6875 22.4895C27.6533 22.444 27.6419 22.4395 27.5873 22.4395H26.5833Z" fill="#D7D7E3"/>
<path fill-rule="evenodd" clip-rule="evenodd" d="M31.6535 36.8116H32.8807V26.4252L29.1036 21.3571C28.7529 20.8835 28.2452 20.6309 27.6579 20.6309H26.4307C27.0204 20.6309 27.5257 20.8836 27.8786 21.3571L31.6535 26.4252V36.8116Z" fill="#D11E1E"/>
<path fill-rule="evenodd" clip-rule="evenodd" d="M27.182 38.9139C29.1719 38.9139 30.7953 37.2906 30.7953 35.3007C30.7953 33.3086 29.172 31.6875 27.182 31.6875C25.1899 31.6875 23.5688 33.3085 23.5688 35.3007C23.5688 37.2906 25.1899 38.9139 27.182 38.9139Z" fill="#363D52"/>
<path fill-rule="evenodd" clip-rule="evenodd" d="M27.1819 36.922C28.0744 36.922 28.8029 36.1934 28.8029 35.301C28.8029 34.4063 28.0743 33.6777 27.1819 33.6777C26.2871 33.6777 25.5586 34.4063 25.5586 35.301C25.5586 36.1934 26.2871 36.922 27.1819 36.922Z" fill="#E1EFFF"/>
<path fill-rule="evenodd" clip-rule="evenodd" d="M27.1819 31.6875C29.1764 31.6875 30.7951 33.304 30.7951 35.3007C30.7951 37.2952 29.1764 38.9139 27.1819 38.9139C27.0544 38.9139 26.9292 38.9071 26.804 38.8934C28.6231 38.7045 30.0415 37.1677 30.0415 35.3008C30.0415 33.4316 28.623 31.8948 26.804 31.7058C26.9292 31.692 27.0544 31.6875 27.1819 31.6875Z" fill="#2A3146"/>
<path fill-rule="evenodd" clip-rule="evenodd" d="M27.182 33.6777C28.0767 33.6777 28.803 34.404 28.803 35.301C28.803 36.1958 28.0767 36.922 27.182 36.922C27.0841 36.922 26.9862 36.9129 26.8928 36.897C27.6533 36.7603 28.2293 36.0978 28.2293 35.3009C28.2293 34.5018 27.6533 33.8393 26.8928 33.7027C26.9883 33.6863 27.0851 33.678 27.182 33.6777Z" fill="#D7D7E3"/>
<path fill-rule="evenodd" clip-rule="evenodd" d="M8.23942 38.9041C10.2293 38.9041 11.8526 37.2809 11.8526 35.2909C11.8526 33.301 10.2293 31.6777 8.23942 31.6777C6.2495 31.6777 4.62622 33.301 4.62622 35.2909C4.62622 37.2809 6.2495 38.9041 8.23942 38.9041Z" fill="#363D52"/>
<path fill-rule="evenodd" clip-rule="evenodd" d="M8.23949 36.9123C9.13199 36.9123 9.86051 36.1837 9.86051 35.2913C9.86051 34.3965 9.13191 33.668 8.23949 33.668C7.34473 33.668 6.61621 34.3966 6.61621 35.2913C6.61613 36.1838 7.34473 36.9123 8.23949 36.9123Z" fill="#E1EFFF"/>
<path fill-rule="evenodd" clip-rule="evenodd" d="M8.23954 31.6777C10.234 31.6777 11.8527 33.2942 11.8527 35.2909C11.8527 37.2854 10.234 38.9041 8.23954 38.9041C8.11204 38.9041 7.98681 38.8973 7.86157 38.8837C9.68071 38.697 11.0991 37.1602 11.0991 35.291C11.0991 33.4219 9.68063 31.885 7.86157 31.696C7.98722 31.6842 8.11334 31.6781 8.23954 31.6777Z" fill="#2A3146"/>
<path fill-rule="evenodd" clip-rule="evenodd" d="M8.23951 33.668C9.13428 33.668 9.86053 34.3942 9.86053 35.2913C9.86053 36.186 9.13428 36.9123 8.23951 36.9123C8.14162 36.9123 8.04373 36.9055 7.95264 36.8872C8.71076 36.7529 9.28678 36.088 9.28678 35.2912C9.28678 34.492 8.71076 33.8295 7.95264 33.6929C8.0474 33.6766 8.14336 33.6682 8.23951 33.668Z" fill="#D7D7E3"/>
</svg>
