<svg width="24" height="24" viewBox="0 0 24 24" fill="none" xmlns="http://www.w3.org/2000/svg">
<path d="M20.0034 24H3.99584C3.146 24 2.45703 23.3111 2.45703 22.4612V2.59838C2.45703 1.74854 3.14595 1.05957 3.99584 1.05957H20.0033C20.8532 1.05957 21.5421 1.74849 21.5421 2.59838V22.4612C21.5421 23.3111 20.8532 24 20.0034 24Z" fill="#73A6DC"/>
<path d="M5.71564 24.0001H3.99603C3.14614 24.0001 2.45703 23.311 2.45703 22.4611V2.59857C2.45703 1.74868 3.14614 1.05957 3.99603 1.05957H5.71564C4.86575 1.05957 4.17711 1.74868 4.17711 2.59857V22.4611C4.17716 23.311 4.86575 24.0001 5.71564 24.0001Z" fill="#5193D5"/>
<path d="M4.05078 21.3509V3.70904C4.05078 3.12596 4.52342 2.65332 5.1065 2.65332H18.893C19.4761 2.65332 19.9488 3.12596 19.9488 3.70904V21.3509C19.9488 21.9339 19.4761 22.4066 18.893 22.4066H5.1065C4.52342 22.4066 4.05078 21.9339 4.05078 21.3509Z" fill="#161F27"/>
<path d="M16.4973 3.79191H7.50267C6.81839 3.79191 6.26367 3.23719 6.26367 2.55291V1.239C6.26367 0.554719 6.81839 0 7.50267 0H16.4974C17.1817 0 17.7364 0.554719 17.7364 1.239V2.55286C17.7364 3.23719 17.1817 3.79191 16.4973 3.79191Z" fill="#FFE277"/>
<path d="M9.87717 3.79172H7.50277C6.81848 3.79172 6.26367 3.23738 6.26367 2.55309V1.23909C6.26363 0.554859 6.81848 0 7.50277 0H9.87717C9.19289 0 8.63808 0.554859 8.63808 1.23909V2.55305C8.63803 3.23733 9.19289 3.79172 9.87717 3.79172Z" fill="#FFD875"/>
<path d="M8.94109 9.56935H6.25619C5.87092 9.56935 5.55859 9.25702 5.55859 8.87176V6.18685C5.55859 5.80159 5.87092 5.48926 6.25619 5.48926H8.94109C9.32636 5.48926 9.63869 5.80159 9.63869 6.18685V8.87176C9.63869 9.25702 9.32636 9.56935 8.94109 9.56935Z" fill="#9BE69E"/>
<path d="M7.4539 8.70844C7.39947 8.70843 7.34574 8.69615 7.29671 8.67252C7.24767 8.64889 7.2046 8.61451 7.17068 8.57194L6.46952 7.69177C6.40967 7.61664 6.38212 7.52082 6.39292 7.42538C6.40373 7.32993 6.452 7.24269 6.52713 7.18285C6.60226 7.123 6.69808 7.09545 6.79352 7.10625C6.88896 7.11705 6.9762 7.16533 7.03605 7.24046L7.40107 7.69866L8.08193 6.48047C8.17947 6.30586 8.40016 6.24342 8.57477 6.34102C8.74938 6.43861 8.81182 6.65925 8.71422 6.83386L7.77012 8.523C7.73867 8.57925 7.69279 8.6261 7.63721 8.65869C7.58162 8.69129 7.51834 8.70846 7.4539 8.70844ZM16.1459 7.0193H11.292C11.1959 7.0193 11.1038 6.98114 11.0359 6.91323C10.968 6.84531 10.9298 6.75319 10.9298 6.65714C10.9298 6.56109 10.968 6.46898 11.0359 6.40106C11.1038 6.33314 11.1959 6.29499 11.292 6.29499H16.1459C16.242 6.29499 16.3341 6.33314 16.402 6.40106C16.4699 6.46898 16.5081 6.56109 16.5081 6.65714C16.5081 6.75319 16.4699 6.84531 16.402 6.91323C16.3341 6.98114 16.242 7.0193 16.1459 7.0193ZM17.7356 8.63602H11.292C11.1959 8.63602 11.1038 8.59786 11.0359 8.52995C10.968 8.46203 10.9298 8.36991 10.9298 8.27386C10.9298 8.17781 10.968 8.0857 11.0359 8.01778C11.1038 7.94986 11.1959 7.91171 11.292 7.91171H17.7356C17.8316 7.91171 17.9237 7.94986 17.9916 8.01778C18.0596 8.0857 18.0977 8.17781 18.0977 8.27386C18.0977 8.32142 18.0884 8.36852 18.0702 8.41246C18.052 8.4564 18.0253 8.49633 17.9917 8.52996C17.958 8.56359 17.9181 8.59027 17.8742 8.60846C17.8302 8.62666 17.7831 8.63602 17.7356 8.63602Z" fill="#0185B0"/>
<path d="M8.94109 15.2168H6.25619C5.87092 15.2168 5.55859 14.9045 5.55859 14.5192V11.8343C5.55859 11.449 5.87092 11.1367 6.25619 11.1367H8.94109C9.32636 11.1367 9.63869 11.449 9.63869 11.8343V14.5192C9.63869 14.9045 9.32636 15.2168 8.94109 15.2168Z" fill="#9BE69E"/>
<path d="M7.4539 14.3559C7.39947 14.3559 7.34574 14.3437 7.2967 14.32C7.24767 14.2964 7.20459 14.262 7.17068 14.2194L6.46952 13.3392C6.40967 13.2641 6.38212 13.1683 6.39292 13.0728C6.40373 12.9774 6.452 12.8902 6.52713 12.8303C6.60226 12.7705 6.69808 12.7429 6.79352 12.7537C6.88896 12.7645 6.9762 12.8128 7.03605 12.8879L7.40107 13.3461L8.08193 12.1279C8.17947 11.9533 8.40016 11.8909 8.57477 11.9885C8.74938 12.0861 8.81182 12.3067 8.71422 12.4813L7.77012 14.1705C7.73868 14.2267 7.6928 14.2736 7.63721 14.3062C7.58162 14.3388 7.51834 14.356 7.4539 14.3559ZM16.1459 12.6668H11.292C11.1959 12.6668 11.1038 12.6286 11.0359 12.5607C10.968 12.4928 10.9298 12.4007 10.9298 12.3046C10.9298 12.2086 10.968 12.1164 11.0359 12.0485C11.1038 11.9806 11.1959 11.9424 11.292 11.9424H16.1459C16.242 11.9424 16.3341 11.9806 16.402 12.0485C16.4699 12.1164 16.5081 12.2086 16.5081 12.3046C16.5081 12.4007 16.4699 12.4928 16.402 12.5607C16.3341 12.6286 16.242 12.6668 16.1459 12.6668ZM17.7356 14.2835H11.292C11.1959 14.2835 11.1038 14.2453 11.0359 14.1774C10.968 14.1095 10.9298 14.0174 10.9298 13.9213C10.9298 13.8253 10.968 13.7332 11.0359 13.6652C11.1038 13.5973 11.1959 13.5592 11.292 13.5592H17.7356C17.8316 13.5592 17.9237 13.5973 17.9916 13.6652C18.0596 13.7332 18.0977 13.8253 18.0977 13.9213C18.0977 14.0174 18.0596 14.1095 17.9916 14.1774C17.9237 14.2453 17.8316 14.2835 17.7356 14.2835Z" fill="#0185B0"/>
<path d="M8.94109 20.8643H6.25619C5.87092 20.8643 5.55859 20.5519 5.55859 20.1667V17.4818C5.55859 17.0965 5.87092 16.7842 6.25619 16.7842H8.94109C9.32636 16.7842 9.63869 17.0965 9.63869 17.4818V20.1667C9.63869 20.5519 9.32636 20.8643 8.94109 20.8643Z" fill="#9BE69E"/>
<path d="M7.4539 20.0034C7.39947 20.0033 7.34574 19.9911 7.29671 19.9674C7.24767 19.9438 7.2046 19.9094 7.17068 19.8669L6.46952 18.9867C6.40967 18.9116 6.38212 18.8157 6.39292 18.7203C6.40373 18.6249 6.452 18.5376 6.52713 18.4778C6.60226 18.4179 6.69808 18.3904 6.79352 18.4012C6.88896 18.412 6.9762 18.4603 7.03605 18.5354L7.40107 18.9936L8.08193 17.7754C8.17947 17.6008 8.40016 17.5383 8.57477 17.6359C8.74938 17.7335 8.81182 17.9542 8.71422 18.1288L7.77012 19.8179C7.73867 19.8742 7.69279 19.921 7.63721 19.9536C7.58162 19.9862 7.51834 20.0034 7.4539 20.0034ZM16.1459 18.3142H11.292C11.1959 18.3142 11.1038 18.2761 11.0359 18.2081C10.968 18.1402 10.9298 18.0481 10.9298 17.9521C10.9298 17.856 10.968 17.7639 11.0359 17.696C11.1038 17.6281 11.1959 17.5899 11.292 17.5899H16.1459C16.242 17.5899 16.3341 17.6281 16.402 17.696C16.4699 17.7639 16.5081 17.856 16.5081 17.9521C16.5081 18.0481 16.4699 18.1402 16.402 18.2081C16.3341 18.2761 16.242 18.3142 16.1459 18.3142ZM17.7356 19.9309H11.292C11.1959 19.9309 11.1038 19.8928 11.0359 19.8249C10.968 19.7569 10.9298 19.6648 10.9298 19.5688C10.9298 19.4727 10.968 19.3806 11.0359 19.3127C11.1038 19.2448 11.1959 19.2066 11.292 19.2066H17.7356C17.8316 19.2066 17.9237 19.2448 17.9916 19.3127C18.0596 19.3806 18.0977 19.4727 18.0977 19.5688C18.0977 19.6648 18.0596 19.7569 17.9916 19.8249C17.9237 19.8928 17.8316 19.9309 17.7356 19.9309Z" fill="#0185B0"/>
</svg>
