<svg width="41" height="40" viewBox="0 0 41 40" fill="none" xmlns="http://www.w3.org/2000/svg">
<g clip-path="url(#clip0_303_1043)">
<path d="M38.6479 2.17969V19.4984L35.883 19.5977L33.115 19.7016V2.17969H38.6479ZM21.2174 2.17969V25.8555L15.6854 23.5805V2.17969H21.2174ZM29.9322 9.75547V29.7188L28.3994 31.1367L26.9611 32.4711L24.4002 29.8938V9.75547H29.9322ZM12.4986 9.75547V24.5211L6.96973 23.1266V9.75547H12.4986Z" fill="#3791F4"/>
<path d="M38.6479 2.17969V19.4984L35.8831 19.5977V2.17969H38.6479ZM21.2174 2.17969V24.7203L18.4495 23.5805V2.17969H21.2174ZM29.9323 9.75547V29.7188L28.3995 31.1367L27.1643 29.8938V9.75547H29.9323ZM12.4987 9.75547V23.8234L9.73462 23.1266V9.75547H12.4987Z" fill="#54A0FF"/>
<path d="M39.6954 25.4172L39.5438 26.6875L38.6477 25.7594L36.9508 24.0031L33.1149 27.9102L29.9321 31.157L28.7571 32.3555L26.7657 34.3828L24.7188 32.3555L24.4001 32.0406L21.2133 28.8906L17.4375 25.15L14.9165 27.6672L14.3743 26.8312L17.4375 23.7719L21.2133 27.5125L24.4001 30.6625L24.7188 30.9773L26.7657 33.0047L28.7571 30.9773L29.9321 29.7781L33.1149 26.532L36.9508 22.625L38.6477 24.3812L39.6954 25.4172Z" fill="#FF9F22"/>
<path d="M40.5159 18.5176L39.544 26.6871L36.951 24.0027L36.3291 23.2574L33.1151 26.5316L29.9323 29.7777L28.7573 30.977L26.7659 33.0043L24.719 30.977L24.4002 30.6621L21.2135 27.5121L17.4377 23.7715L14.3745 26.8309L13.4026 25.3254L17.4377 21.2941L21.2135 25.034L24.4002 28.1848L26.7659 30.527L29.9323 27.3004L33.1151 24.0543L34.9956 22.1387L32.3463 19.4895L33.1151 19.398L33.5776 19.3426L38.6479 18.741L40.5159 18.5176Z" fill="#FFC14F"/>
<path d="M15.4501 30.4324C15.4501 33.9293 13.0244 36.8574 9.76265 37.6223V37.6262C9.34077 37.7254 8.9103 37.7855 8.46812 37.8098C8.4603 37.8137 8.44858 37.8137 8.43608 37.8098C8.31265 37.8176 8.19312 37.8215 8.06968 37.8215C7.01421 37.8215 6.0064 37.598 5.09858 37.1965C2.50171 36.0535 0.685303 33.4566 0.685303 30.4332C0.685303 26.3543 3.99155 23.0449 8.06968 23.0449C8.19312 23.0449 8.31655 23.0488 8.43608 23.0527C9.85796 23.1246 11.1767 23.5941 12.2759 24.3629C13.5783 25.2668 14.5783 26.5816 15.0837 28.1191C15.3228 28.8465 15.4501 29.6238 15.4501 30.4324Z" fill="#F7D33E"/>
<path d="M15.4502 30.4324C15.4502 33.9293 13.0245 36.8574 9.76274 37.6223V37.6262C9.34087 37.7254 8.9104 37.7855 8.46821 37.8098C8.4604 37.8137 8.44868 37.8137 8.43618 37.8098C7.52368 37.7621 6.65962 37.5473 5.86274 37.1965C3.26196 36.0535 1.44556 33.4566 1.44556 30.4332C1.44556 26.4855 4.54478 23.2598 8.43618 23.0527C9.85806 23.1246 11.1768 23.5941 12.276 24.3629C13.5784 25.2668 14.5784 26.5816 15.0838 28.1191C15.3229 28.8465 15.4502 29.6238 15.4502 30.4324Z" fill="#FFDE50"/>
<path d="M13.8689 30.432C13.8689 33.4711 11.5346 35.9687 8.56348 36.2156C8.4002 36.2312 8.23691 36.2398 8.06973 36.2398C7.55957 36.2398 7.06973 36.1719 6.6041 36.0523C4.10645 35.4031 2.2666 33.1328 2.2666 30.432C2.2666 27.2258 4.86348 24.625 8.06973 24.625C8.23691 24.625 8.4041 24.6328 8.56738 24.6492C11.5346 24.8992 13.8689 27.393 13.8689 30.432Z" fill="#F4AF03"/>
<path d="M13.869 30.432C13.869 33.4711 11.5346 35.9688 8.56353 36.2156C8.22915 36.1875 7.90649 36.132 7.59556 36.0523C5.0979 35.4031 3.25806 33.1328 3.25806 30.432C3.25806 27.393 5.59243 24.8953 8.56743 24.6484C11.5346 24.8992 13.869 27.393 13.869 30.432Z" fill="#FFBD00"/>
<path d="M8.06738 29.9164C7.60879 29.9164 7.23613 29.543 7.23613 29.0844C7.23613 28.6258 7.60879 28.2523 8.06738 28.2523C8.52598 28.2523 8.89863 28.6258 8.89863 29.0844C8.89863 29.3578 9.11973 29.5789 9.39316 29.5789C9.6666 29.5789 9.8877 29.3578 9.8877 29.0844C9.8877 28.2539 9.32832 27.5523 8.5666 27.3352V26.9281C8.5666 26.6547 8.34551 26.4336 8.07207 26.4336C7.79863 26.4336 7.57754 26.6547 7.57754 26.9281V27.3328C6.81113 27.5477 6.24707 28.2508 6.24707 29.0852C6.24707 30.0891 7.06348 30.9062 8.06738 30.9062C8.52598 30.9062 8.89863 31.2797 8.89863 31.7383C8.89863 32.1969 8.52598 32.5703 8.06738 32.5703C7.60879 32.5703 7.23613 32.1969 7.23613 31.7383C7.23613 31.4648 7.01504 31.2438 6.7416 31.2438C6.46816 31.2438 6.24707 31.4648 6.24707 31.7383C6.24707 32.5727 6.81113 33.2758 7.57754 33.4906V33.9383C7.57754 34.2117 7.79863 34.4328 8.07207 34.4328C8.34551 34.4328 8.5666 34.2117 8.5666 33.9383V33.4883C9.32832 33.2703 9.8877 32.5695 9.8877 31.7391C9.8877 30.7328 9.07129 29.9164 8.06738 29.9164Z" fill="white"/>
</g>
<defs>
<clipPath id="clip0_303_1043">
<rect width="40" height="40" fill="white" transform="translate(0.600098)"/>
</clipPath>
</defs>
</svg>
