<svg width="68" height="51" viewBox="0 0 68 51" fill="none" xmlns="http://www.w3.org/2000/svg">
<path opacity="0.25" d="M11.7999 19.1024L1 32.1037V50.2475H65.7993V2.0368L58.5418 14.2191L51.3995 13.1927L45.3228 28.7341L35.7996 19.1024L23.8094 30.5485L11.7999 19.1024Z" fill="url(#paint0_linear_1_483)"/>
<path d="M1.51831 31.5853L9.34544 22.0095C10.8441 20.176 13.5987 20.0386 15.2723 21.7139L21.1235 27.5708C22.6859 29.1347 25.2207 29.1347 26.7831 27.5708L32.5995 21.7487C34.2856 20.061 37.0646 20.2149 38.554 22.0784L40.6129 24.6545C42.5929 27.1319 46.5306 26.43 47.5326 23.421L50.031 15.9186C50.6531 14.0505 52.5422 12.913 54.4843 13.237L55.5081 13.4078C57.1298 13.6783 58.7519 12.929 59.5972 11.5188L65.2809 2.0368" stroke="#22C55E" stroke-width="2" stroke-linecap="round"/>
<path d="M61.5401 2.34817L64.7315 1.77775C65.2848 1.67886 65.8109 2.05527 65.896 2.61088L66.3923 5.85414" stroke="#22C55E" stroke-width="2" stroke-linecap="round"/>
<defs>
<linearGradient id="paint0_linear_1_483" x1="33.3997" y1="17.0703" x2="33.3997" y2="50.2475" gradientUnits="userSpaceOnUse">
<stop stop-color="#22C55E"/>
<stop offset="1" stop-color="#22C55E" stop-opacity="0"/>
</linearGradient>
</defs>
</svg>
