<svg width="67" height="50" viewBox="0 0 67 50" fill="none" xmlns="http://www.w3.org/2000/svg">
<path opacity="0.25" d="M12.2007 19.2527L1.20068 31.8562V50H66V1.78931L58.2007 13.7893L51.6002 12.9452L45.2007 26.7527L36.2007 19.7527L24.2007 29.2527L12.2007 19.2527Z" fill="url(#paint0_linear_1_502)"/>
<path d="M1.71899 31.3744L9.54613 21.7986C11.0448 19.9651 13.7993 19.8278 15.473 21.503L21.3242 27.3599C22.8866 28.9239 25.4214 28.9239 26.9838 27.3599L32.8002 21.5378C34.4863 19.8501 37.2653 20.004 38.7547 21.8676L40.8136 24.4436C42.7935 26.921 46.7313 26.2191 47.7333 23.2102L50.2317 15.7078C50.8538 13.8396 52.7429 12.7021 54.685 13.0261L55.7088 13.1969C57.3305 13.4674 58.9526 12.7181 59.7979 11.3079L65.4815 1.82593" stroke="#EF4444" stroke-width="2" stroke-linecap="round"/>
<defs>
<linearGradient id="paint0_linear_1_502" x1="33.6004" y1="16.8228" x2="33.6004" y2="50" gradientUnits="userSpaceOnUse">
<stop stop-color="#EF4444"/>
<stop offset="1" stop-color="#EF4444" stop-opacity="0"/>
</linearGradient>
</defs>
</svg>
