<svg width="68" height="50" viewBox="0 0 68 50" fill="none" xmlns="http://www.w3.org/2000/svg">
<path opacity="0.25" d="M13.2007 19.2527L2.20068 31.8562V50H67V1.78931L59.2007 13.7893L52.6002 12.9452L46.2007 26.7527L37.2007 19.7527L25.2007 29.2527L13.2007 19.2527Z" fill="url(#paint0_linear_1_501)"/>
<path d="M2.71899 31.3744L10.5461 21.7986C12.0448 19.9651 14.7993 19.8278 16.473 21.503L22.3242 27.3599C23.8866 28.9239 26.4214 28.9239 27.9838 27.3599L33.8002 21.5378C35.4863 19.8501 38.2653 20.004 39.7547 21.8676L41.8136 24.4436C43.7935 26.921 47.7313 26.2191 48.7333 23.2102L51.2317 15.7078C51.8538 13.8396 53.7429 12.7021 55.685 13.0261L56.7088 13.1969C58.3305 13.4674 59.9526 12.7181 60.7979 11.3079L66.4815 1.82593" stroke="#EF4444" stroke-width="2" stroke-linecap="round"/>
<path d="M5.68853 32.6814L2.46111 32.9882C1.90155 33.0413 1.4081 32.623 1.36893 32.0623L1.14029 28.7893" stroke="#EF4444" stroke-width="2" stroke-linecap="round"/>
<defs>
<linearGradient id="paint0_linear_1_501" x1="34.6004" y1="16.8228" x2="34.6004" y2="50" gradientUnits="userSpaceOnUse">
<stop stop-color="#EF4444"/>
<stop offset="1" stop-color="#EF4444" stop-opacity="0"/>
</linearGradient>
</defs>
</svg>
