<svg width="18" height="18" viewBox="0 0 18 18" fill="none" xmlns="http://www.w3.org/2000/svg">
<path d="M8.99935 15.6667C5.32435 15.6667 2.33268 12.675 2.33268 9.00002C2.33268 5.32502 5.32435 2.33335 8.99935 2.33335C12.6743 2.33335 15.666 5.32502 15.666 9.00002C15.666 12.675 12.6743 15.6667 8.99935 15.6667ZM8.99935 0.666687C4.39102 0.666687 0.666016 4.39169 0.666016 9.00002C0.666016 13.6084 4.39102 17.3334 8.99935 17.3334C13.6077 17.3334 17.3327 13.6084 17.3327 9.00002C17.3327 4.39169 13.6077 0.666687 8.99935 0.666687ZM11.1577 5.66669L8.99935 7.82502L6.84102 5.66669L5.66602 6.84169L7.82435 9.00002L5.66602 11.1584L6.84102 12.3334L8.99935 10.175L11.1577 12.3334L12.3327 11.1584L10.1743 9.00002L12.3327 6.84169L11.1577 5.66669Z" fill="#EF4444"/>
</svg>
