<svg width="27" height="21" viewBox="0 0 27 21" fill="none" xmlns="http://www.w3.org/2000/svg">
<g clip-path="url(#clip0_416_19984)">
<path fill-rule="evenodd" clip-rule="evenodd" d="M0 0.5V20.5H26.6667V0.5H0Z" fill="#2E42A5"/>
<mask id="mask0_416_19984" style="mask-type:luminance" maskUnits="userSpaceOnUse" x="0" y="0" width="27" height="21">
<path fill-rule="evenodd" clip-rule="evenodd" d="M0 0.5V20.5H26.6667V0.5H0Z" fill="white"/>
</mask>
<g mask="url(#mask0_416_19984)">
<path d="M-2.96851 19.0716L2.89983 21.5541L26.7998 3.19914L29.8957 -0.489193L23.6207 -1.31836L13.8723 6.59081L6.02566 11.9208L-2.96851 19.0716Z" fill="white"/>
<path d="M-2.16602 20.8105L0.824817 22.2505L28.784 -0.832031H24.5865L-2.16602 20.8105Z" fill="#F50100"/>
<path d="M29.6352 19.0716L23.7668 21.5541L-0.13317 3.19914L-3.229 -0.489193L3.046 -1.31836L12.7943 6.59081L20.641 11.9208L29.6352 19.0716Z" fill="white"/>
<path d="M29.4356 20.3201L26.4456 21.7601L14.5406 11.8768L11.0106 10.7734L-3.52686 -0.476562H0.671478L15.1998 10.5068L19.059 11.8301L29.4356 20.3201Z" fill="#F50100"/>
<path fill-rule="evenodd" clip-rule="evenodd" d="M16.4814 -1.16602H10.1848V7.16732H-1.64355V13.834H10.1848V22.1673H16.4814V13.834H28.3564V7.16732H16.4814V-1.16602Z" fill="#F50100"/>
<mask id="mask1_416_19984" style="mask-type:luminance" maskUnits="userSpaceOnUse" x="-2" y="-2" width="31" height="25">
<path fill-rule="evenodd" clip-rule="evenodd" d="M16.4814 -1.16602H10.1848V7.16732H-1.64355V13.834H10.1848V22.1673H16.4814V13.834H28.3564V7.16732H16.4814V-1.16602Z" fill="white"/>
</mask>
<g mask="url(#mask1_416_19984)">
<path d="M10.1849 -1.16536V-2.83203H8.51827V-1.16536H10.1849ZM16.4816 -1.16536H18.1483V-2.83203H16.4816V-1.16536ZM10.1849 7.16797V8.83463H11.8516V7.16797H10.1849ZM-1.64339 7.16797V5.5013H-3.31006V7.16797H-1.64339ZM-1.64339 13.8346H-3.31006V15.5013H-1.64339V13.8346ZM10.1849 13.8346H11.8516V12.168H10.1849V13.8346ZM10.1849 22.168H8.51827V23.8346H10.1849V22.168ZM16.4816 22.168V23.8346H18.1483V22.168H16.4816ZM16.4816 13.8346V12.168H14.8149V13.8346H16.4816ZM28.3566 13.8346V15.5013H30.0233V13.8346H28.3566ZM28.3566 7.16797H30.0233V5.5013H28.3566V7.16797ZM16.4816 7.16797H14.8149V8.83463H16.4816V7.16797ZM10.1849 0.501302H16.4816V-2.83203H10.1849V0.501302ZM11.8516 7.16797V-1.16536H8.51827V7.16797H11.8516ZM-1.64339 8.83463H10.1849V5.5013H-1.64339V8.83463ZM0.0232742 13.8346V7.16797H-3.31006V13.8346H0.0232742ZM10.1849 12.168H-1.64339V15.5013H10.1849V12.168ZM11.8516 22.168V13.8346H8.51827V22.168H11.8516ZM16.4816 20.5013H10.1849V23.8346H16.4816V20.5013ZM14.8149 13.8346V22.168H18.1483V13.8346H14.8149ZM28.3566 12.168H16.4816V15.5013H28.3566V12.168ZM26.6899 7.16797V13.8346H30.0233V7.16797H26.6899ZM16.4816 8.83463H28.3566V5.5013H16.4816V8.83463ZM14.8149 -1.16536V7.16797H18.1483V-1.16536H14.8149Z" fill="white"/>
</g>
</g>
</g>
<defs>
<clipPath id="clip0_416_19984">
<rect y="0.5" width="26.6667" height="20" rx="2" fill="white"/>
</clipPath>
</defs>
</svg>
